<svg viewBox="0 0 32 38" xmlns="http://www.w3.org/2000/svg"><g fill="none" fill-rule="evenodd"><path d="M-9-5h48v48H-9z"/><path fill="#792F27" fill-rule="nonzero" d="M2.512 6.54L0 7.794v22.05L2.512 31.1l6.155-12.284L2.512 6.539"/><path fill="#D04D42" fill-rule="nonzero" d="M15.591 27.93L2.512 31.095V6.539l13.079 3.167 6.181 9.15-6.181 9.074"/><path fill="#792F27" fill-rule="nonzero" d="M15.591 27.93l13.078 3.165 2.26-11.964-2.26-12.592-13.078 3.167V27.93"/><path fill="#D04D42" fill-rule="nonzero" d="M28.67 6.54l2.513 1.255v22.05l-2.513 1.256V6.539"/><path fill="#792F27" fill-rule="nonzero" d="M9.888 22.883l5.703.726 4.522-4.753-4.522-4.753-5.703.715v8.065"/><path fill="#4A1F1C" fill-rule="nonzero" d="M21.295 10.918l-5.704 1.04-5.703-1.04L15.59 0l5.704 10.918"/><path fill="#EBAAA1" fill-rule="nonzero" d="M21.295 26.773l-5.704-1.047-5.703 1.047 5.703 10.918 5.704-10.918"/><path fill="#D04D42" fill-rule="nonzero" d="M21.295 10.918l-5.704-1.412V0l5.704 2.852v8.066"/><path fill="#792F27" fill-rule="nonzero" d="M9.888 10.918l5.703-1.412V0L9.888 2.852v8.066"/><path fill="#D04D42" fill-rule="nonzero" d="M15.591 37.69l5.704-2.85v-8.067l-5.704 1.412v9.506"/><path fill="#792F27" fill-rule="nonzero" d="M15.591 37.69l-5.704-2.85v-8.067l5.704 1.412v9.506"/><path fill="#D04D42" fill-rule="nonzero" d="M21.295 22.883l-5.704.726v-9.506l5.704.715v8.065"/></g></svg>