<svg xmlns="http://www.w3.org/2000/svg" xmlns:v="http://vecta.io" xmlns:xlink="http://www.w3.org/1999/xlink" viewBox="0 0 80.29296902939704 80.29296902939704" stroke="#000" stroke-linecap="round" stroke-linejoin="round" fill="#fff" fill-rule="evenodd" font-family="Roboto" font-size="14px" text-anchor="middle" width="300" height="300"><g><use xlink:href="#NMWbjpKAFJ55nBlAgJ-m_a.sym" x="0.14648451469851942" y="0.14648451469851942"></use></g><defs><style type="text/css">@import url("https://fonts.googleapis.com/css?family=Roboto:400,400i,700,700i");</style><linearGradient id="sym_NMWbjpKAFJ55nBlAgJ-m_a_L00100100000C3FF1000073FF.grad" x1="0%" y1="0%" x2="100%" y2="100%"><stop offset="0%" stop-color="#00C3FF"></stop><stop offset="100%" stop-color="#0073FF"></stop></linearGradient></defs><style>svg{stroke:#000;stroke-linecap:round;stroke-linejoin:round;fill:#fff;fill-rule:evenodd;font-family:Roboto;font-size:14px;text-anchor:middle}svg text{stroke:none}</style><symbol id="NMWbjpKAFJ55nBlAgJ-m_a.sym" v:tags="Social Media, Messenger"><title>Messenger</title><desc></desc><g id="jmr8jbmx6q8" class="Group.cls" transform="translate(0 0)" v:abox="{&quot;x&quot;:0,&quot;y&quot;:0,&quot;width&quot;:80,&quot;height&quot;:80}" v:size="80.29296902939704,80.29296902939704,0.14648451469851942,0.14648451469851942"><g class="Prim.cls"><g id="jmpmu8ow104" transform="translate(0 0)" class=""><path d="M 40 0 C 17.91 0 0 16.58 0 37.035 C 0 48.69 5.815 59.085 14.905 65.875 L 14.905 80 L 28.525 72.525 C 32.16 73.53 36.01 74.075 40 74.075 C 62.09 74.075 80 57.495 80 37.04 C 80 16.58 62.09 0 40 0 Z" fill="url(#sym_NMWbjpKAFJ55nBlAgJ-m_a_L00100100000C3FF1000073FF.grad)" fill-opacity="1" stroke="none" stroke-width="0.29296902939703884"></path></g><g id="jmpmu8ow105" transform="translate(13.915000000000077 26.664999999999992)"><path d="M 30.06 23.21 L 19.875 12.345 L 0 23.21 L 21.86 0 L 32.295 10.865 L 51.925 0 Z" fill="#fafafa" stroke="none" stroke-width="0.29296902939703884"></path></g></g></g></symbol></svg>