<svg xmlns="http://www.w3.org/2000/svg" xmlns:v="http://vecta.io" xmlns:xlink="http://www.w3.org/1999/xlink" viewBox="0 0 85 86" stroke="#000" stroke-linecap="round" stroke-linejoin="round" fill="#fff" fill-rule="evenodd" font-family="Roboto" font-size="14px" text-anchor="middle" width="300" height="300"><g><use xlink:href="#oZnwlNDrM-EWEvC6H8rcfp.sym" x="0.5" y="0.5"></use></g><defs><style type="text/css">@import url("https://fonts.googleapis.com/css?family=Roboto:400,400i,700,700i");</style></defs><style>svg{stroke:#000;stroke-linecap:round;stroke-linejoin:round;fill:#fff;fill-rule:evenodd;font-family:Roboto;font-size:14px;text-anchor:middle}svg text{stroke:none}</style><symbol id="oZnwlNDrM-EWEvC6H8rcfp.sym" v:tags="Social Media, Github"><title>Github</title><desc></desc><g id="jmpmt4g1zc" transform="translate(0 0)" class="" v:size="85,86,0.5,0.5"><path d="M 41.9999505810841 0 C 18.8057754239731 0 0 19.5105810185335 0 43.5743706828505 C 0 62.8295409678726 12.0330118358304 79.1594336424273 28.7236576586965 84.9200203075262 C 30.8232697202066 85.3188809050646 31.5896582681965 83.9731512398863 31.5896582681965 82.8242527818642 C 31.5896582681965 81.7869153330784 31.5512103516156 78.3509162206504 31.5307509204273 74.712587822654 C 19.8515785225391 77.3455675917172 17.3829059969854 69.5742836687522 17.3829059969854 69.5742836687522 C 15.4705916267883 64.5423423408605 12.719934767031 63.2020107890324 12.719934767031 63.2020107890324 C 8.9030153775193 60.4998551970377 13.0095296142854 60.5531365751049 13.0095296142854 60.5531365751049 C 17.2263468713708 60.8562306432092 19.4465410877103 65.0424675462451 19.4465410877103 65.0424675462451 C 23.1942739949428 71.7018400841428 29.2800158140531 69.7764130241964 31.6691238849857 68.659503386027 C 32.0508355915032 65.850984968022 33.1378540659413 63.9253579779516 34.3351755606988 62.8402372295108 C 25.0118028844174 61.7393220012678 15.2040259943498 57.9998289604872 15.2040259943498 41.3029645431848 C 15.2040259943498 36.5425283237929 16.8421642190576 32.6594854539234 19.5234369208721 29.6090515857824 C 19.0953702712275 28.5027382441892 17.6495704672559 24.0690878126051 19.9387534902109 18.0718838456583 C 19.9387534902109 18.0718838456583 23.461037303045 16.9015928643597 31.4897332202189 22.5399222585841 C 34.8374694220458 21.5692615061787 38.4289397171591 21.0903288939466 41.9998517432523 21.0745344141443 C 45.5682928235498 21.0903288939466 49.1623329022906 21.5743597243428 52.5153075092043 22.5452204068722 C 60.5288812381086 16.9015928643597 64.0562057803659 18.0770820288844 64.0562057803659 18.0770820288844 C 66.3530981542035 24.0797840742434 64.9072983502319 28.5078364623533 64.4766619169598 29.6090515857824 C 67.1682137532843 32.6594854539234 68.7934042220227 36.5425283237929 68.7934042220227 41.3029645431848 C 68.7934042220227 58.0424140769161 58.9701097923582 61.7286257396295 49.6135276045828 62.8083483747202 C 51.1260429450379 64.1594761532485 52.4642083501495 66.8084503322381 52.4642083501495 70.8722300342754 C 52.4642083501495 76.6965944089556 52.407771948176 81.3933528838282 52.407771948176 82.8295509301523 C 52.407771948176 83.9892456148747 53.1715907125384 85.3455715766291 55.2993715561193 84.9200203075262 C 71.9771684608479 79.1487373807891 84 62.8190446363584 84 43.5743706828505 C 84 19.5105810185335 65.1942245760269 0 41.9999505810841 0 Z" fill="#000000" fill-opacity="1" stroke="none"></path></g></symbol></svg>