<svg width="83" height="74" xmlns="http://www.w3.org/2000/svg" xmlns:xlink="http://www.w3.org/1999/xlink"><defs><path d="M81.432 33.3L64.648 3.978C63.264 1.664 60.867.37 58.377.37h-33.57c-2.674 0-5.071 1.48-6.27 3.607L1.752 33.208c-1.383 2.313-1.29 5.18 0 7.308L18.537 69.93c1.383 2.313 3.78 3.977 6.27 3.977h33.57c2.674 0 5.072-1.757 6.27-3.977l16.785-29.323c1.384-2.312 1.291-5.18 0-7.307" id="a"/></defs><g fill="none" fill-rule="evenodd"><mask id="b" fill="#fff"><use xlink:href="#a"/></mask><use fill="#4285F4" xlink:href="#a"/><path fill="#3D7BE2" fill-rule="nonzero" mask="url(#b)" d="M27 27l4 4 4-1 5 4 4-11 12 11 5-7 19 19-16 29H49L22 48z"/><path d="M22 27.1h5.2v20.8H22V27.1zm8.4 2.6h5.2v15.6h-5.2V29.7zm8.4-7h5.3v29.6h-5.3V22.7zm8.5 9.6h5.2v10.4h-5.2V32.3zm8.4-5.2H61v20.8h-5.3V27.1z" fill="#FFF" fill-rule="nonzero" mask="url(#b)"/></g></svg>