<svg xmlns="http://www.w3.org/2000/svg" xmlns:v="http://vecta.io" xmlns:xlink="http://www.w3.org/1999/xlink" viewBox="0 0 81 71" stroke="#000" stroke-linecap="round" stroke-linejoin="round" fill="#fff" fill-rule="evenodd" font-family="Roboto" font-size="14px" text-anchor="middle" width="300" height="300"><use xlink:href="#iSW_p9Tkq8kbdZIArU6vh9.sym" x="0.5" y="0"></use><defs><style type="text/css"></style><linearGradient id="sym_iSW_p9Tkq8kbdZIArU6vh9_L5005010004387FD1004683EA.grad" x1="50%" y1="0%" x2="50%" y2="100%"><stop offset="0%" stop-color="#4387FD"></stop><stop offset="100%" stop-color="#4683EA"></stop></linearGradient></defs><symbol id="iSW_p9Tkq8kbdZIArU6vh9.sym" v:tags="gcs, google cloud platform, cloud vision api, google cloud vision api"><title>Cloud Vision API</title><desc></desc><g id="j4nudkzffn" class="Group.cls" transform="translate(0 0)" v:size="81,71,0.5,0.5"><g id="j4nudkzhfo" transform="translate(0 0)"><path d="M 79.25 37.5 Q 80.75 35 79.25 32.5 L 61.5 2 Q 60 0 57.5 0 L 22.5 0 Q 20 0 18.5 2 L 0.75 32.5 Q -0.75 35 0.75 37.5 L 18.5 68 Q 20 70 22.5 70 L 57.5 70 Q 60 70 61.5 68 Z" fill="url(#sym_iSW_p9Tkq8kbdZIArU6vh9_L5005010004387FD1004683EA.grad)" stroke="none"></path></g><g id="j4nudkzifp" transform="translate(21.25 25)"><path d="M 51.3782 23.8782 L 37.5 10 L 18.75 0 L 0 10 L 35 45 L 36.25 45 Q 38.75 45 40.25 43 Z" fill="#000000" fill-opacity="0.07" stroke="none"></path></g><g id="j4nudkzifq" transform="translate(36.5 31.5)"><ellipse cx="3.5" cy="3.5" rx="3.5" ry="3.5" stroke="none"></ellipse></g><g id="j4nudkzjfr" transform="translate(21.25 21)"><path d="M 18.75 0 L 0 14 L 18.75 28 L 37.5 14 Z M 7.25 14 L 18.75 6 L 30.25 14 L 18.75 22 Z" stroke="none"></path></g></g></symbol></svg>