<svg viewBox="0 0 102 102" xmlns="http://www.w3.org/2000/svg"><g fill="none" fill-rule="evenodd"><rect fill="#E3E3E3" x="9" width="84" height="10" rx="5"/><rect fill="#B1B1B1" x="9" y="92" width="84" height="10" rx="5"/><path d="M.152 13.563s-.64-7.205 7.65-8.114c8.291-.909 86.84 0 86.84 0s7.816.869 6.727 7.05c-1.09 6.182-5.443 38.532-5.443 38.532L6.026 51 .153 13.563z" fill="#1491D4"/><path d="M.012 88.551s-.642 7.205 7.65 8.114c8.29.91 86.84 0 86.84 0s7.815-.868 6.726-7.05c-1.09-6.182-5.443-38.532-5.443-38.532l-89.9.031L.013 88.551z" fill="#0AA3E8"/><circle fill="#EFEFEF" cx="51" cy="36" r="9"/><path d="M30.163 74.985V66.87s1.817-10.245 20.99-10.245c19.174 0 20.761 10.81 20.761 10.81v7.616H30.163" fill="#EFEFEF"/></g></svg>