<svg xmlns="http://www.w3.org/2000/svg" xmlns:v="http://vecta.io" xmlns:xlink="http://www.w3.org/1999/xlink" viewBox="0 0 59 81" stroke="#000" stroke-linecap="round" stroke-linejoin="round" fill="#fff" fill-rule="evenodd" font-family="Roboto" font-size="14px" text-anchor="middle" width="300" height="300"><defs><style type="text/css"></style></defs><g><title>Google Sheets</title><use xlink:href="#fkRlnxsHtjWPA2yLp8nio0.sym" x="0.5" y="0.5"></use></g><symbol id="fkRlnxsHtjWPA2yLp8nio0.sym" v:tags="sheets, google sheets"><title>Google Sheets</title><g id="jitr4zq133xq" class="Group.cls" transform="translate(0 0)" v:size="59,81,0.5,0.5"><g id="jitr4so033vv" transform="translate(0 0)" class=""><path fill="#28B446" d="M 36 0 L 58 22 L 58 75 C 58 77.77 55.77 80 53 80 L 5 80 C 2.23 80 0 77.77 0 75 L 0 5 C 0 2.23 2.23 0 5 0 Z" stroke="none" stroke-linejoin="miter"></path></g><g id="jitr4so133vw" transform="translate(36 0)" class=""><path fill="#6ACE7C" d="M 0 0 L 22 22 L 5 22 C 2.23 22 0 19.52 0 16.75 Z" stroke="none" stroke-linejoin="miter"></path></g><g id="jitr4so233vx" transform="translate(40.75 22)" class=""><path fill="#219B38" d="M 0 0 L 17.25 7.125 L 17.25 0 Z" stroke="none" stroke-linejoin="miter" class=""></path></g><g id="jitr4so333vy" transform="translate(15 40)" class=""><path d="M 0 2 C 0 0.892 0.892 0 2 0 L 26 0 C 27.108 0 28 0.892 28 2 L 28 23 C 28 24.108 27.108 25 26 25 L 2 25 C 0.892 25 0 24.108 0 23 Z M 3 4 L 12 4 L 12 7 L 3 7 Z M 3 11 L 12 11 L 12 14 L 3 14 Z M 3 18 L 12 18 L 12 21 L 3 21 Z M 16 4 L 25 4 L 25 7 L 16 7 Z M 16 11 L 25 11 L 25 14 L 16 14 Z M 16 18 L 25 18 L 25 21 L 16 21 Z" stroke-linejoin="miter" stroke="none"></path></g></g></symbol></svg>