<svg xmlns="http://www.w3.org/2000/svg" viewBox="0 0 300 300"><defs><linearGradient id="a" x1="211.44" y1="286.6" x2="135.11" y2="145.79" gradientUnits="userSpaceOnUse"><stop offset="0" stop-color="#3462cf" stop-opacity="0"/><stop offset=".15" stop-color="#3462cf" stop-opacity=".12"/><stop offset=".48" stop-color="#3462cf" stop-opacity=".44"/><stop offset=".95" stop-color="#3462cf" stop-opacity=".94"/><stop offset="1" stop-color="#3462cf"/></linearGradient><linearGradient id="b" x1="149.66" y1="69.76" x2="149.66" y2="173.44" gradientUnits="userSpaceOnUse"><stop offset="0" stop-color="#3462cf" stop-opacity="0"/><stop offset=".37" stop-color="#3c5ba4" stop-opacity=".33"/><stop offset="1" stop-color="#4d4d4d"/></linearGradient></defs><rect fill="#c5c5c5" x="15.23" y="3.94" width="269.55" height="269.55" rx="9" ry="9"/><circle fill="#fff" cx="76.68" cy="28.24" r="11.37"/><circle fill="#fff" cx="222.01" cy="28.24" r="11.37"/><path fill="#3462cf" d="M264.78 295.68H35.22A25.79 25.79 0 0 1 9.51 270l5.37-97.13L.94 74.7A25.79 25.79 0 0 1 26.65 49h246.7a25.79 25.79 0 0 1 25.71 25.7l-14 98.14 5.43 97.16a25.79 25.79 0 0 1-25.71 25.68z"/><path fill="#4688f4" d="M14.76 173l-5.37 97.46A25.64 25.64 0 0 0 35.1 296h229.55a25.64 25.64 0 0 0 25.71-25.54L285 173H14.76z"/><path opacity=".5" fill="url('#a')" d="M14.76 173l119.86 123h130a25.64 25.64 0 0 0 25.71-25.54L285 173H14.76z"/><path fill="#fff" d="M220.22 107.91v128.36h-14.88V130H205l-34.36 8.55v-14.6m-20.46 66.98a30.09 30.09 0 0 0-5.14-9.48 29.07 29.07 0 0 0-7.69-7 38.66 38.66 0 0 0-10.35-3.9v-.35a31 31 0 0 0 15.13-10.89 28.66 28.66 0 0 0 5.75-17.8 31.93 31.93 0 0 0-3.1-14.26 29.57 29.57 0 0 0-8.19-10.18 36.66 36.66 0 0 0-12-6.2 47.81 47.81 0 0 0-14.27-2.12 45.29 45.29 0 0 0-21.88 5.31C81.91 117.6 76.08 124.38 74 130a41.88 41.88 0 0 0-2 12.42l16-.24c.47-9.89 5.65-14.77 9.55-17.14a26.12 26.12 0 0 1 13.81-3.54q9.56 0 15.5 5.58t5.93 15.14q0 7.08-2.75 11.42a19.07 19.07 0 0 1-6.91 6.64 26.43 26.43 0 0 1-9.21 3 69.19 69.19 0 0 1-9.65.7H98v12h6.31a54.36 54.36 0 0 1 11.51 1.62 33.41 33.41 0 0 1 10.18 4.2 21.23 21.23 0 0 1 7.26 7.53A22.87 22.87 0 0 1 136 201a24.16 24.16 0 0 1-2 10 24.5 24.5 0 0 1-5.49 7.8 24.15 24.15 0 0 1-8.06 5.06 27.42 27.42 0 0 1-9.92 1.77c-7 0-12.26-1.57-16.3-4.21-5.15-3.37-8.79-7.11-10.39-18.06l-15.35.27s1.08 7.52 2.74 11.44c3.31 7.81 8 13.53 14.32 17.22 7.08 4.13 15.41 6.15 25 6.15a54 54 0 0 0 15.85-2.33 38.52 38.52 0 0 0 13.2-6.92 34 34 0 0 0 9-11.34 37.51 37.51 0 0 0 1.58-26.92z"/><path opacity=".15" fill="url('#b')" d="M285 173l13.55-97.72A25.42 25.42 0 0 0 272.79 50H26.1C12 50 .82 60.64.82 74.78L14.76 173H285z"/></svg>