<svg xmlns="http://www.w3.org/2000/svg" xmlns:v="http://vecta.io" xmlns:xlink="http://www.w3.org/1999/xlink" viewBox="0 0 111.5625 85" stroke="#000" stroke-linecap="round" stroke-linejoin="round" fill="#fff" fill-rule="evenodd" font-family="Roboto" font-size="14px" text-anchor="middle" width="300" height="300"><defs><style type="text/css"></style></defs><use xlink:href="#rJ7977b0z_fIOEpnkZk86z.sym" x="3.2813" y="2.5"></use><symbol id="rJ7977b0z_fIOEpnkZk86z.sym" v:tags="email, gmail, google email"><title>Gmail</title><desc></desc><g id="j4i68f8112m" class="Group.cls" transform="translate(0 0)" v:size="111.5625,85,3.2813,2.5"><g id="j4i64a9dff" transform="translate(0 0.000035753811232552835)"><path d="M 6.3 0 L 98.7 0 C 102.1902 0 105 2.8168 105 6.3158 L 105 73.6842 C 105 77.1832 102.1902 80 98.7 80 L 6.3 80 C 2.8098 80 0 77.1832 0 73.6842 L 0 6.3158 C 0 2.8168 2.8098 0 6.3 0 Z" stroke-width="1px" stroke="none" fill="#e3e3e3"></path></g><g id="j4i64a9dfg" transform="translate(0 0.000035753811232552835)"><path d="M 12.6 6.3158 C 12.6 2.8168 9.7902 0 6.3 0 C 2.8098 0 0 2.8168 0 6.3158 L 0 73.6842 C 0 77.1832 2.8098 80 6.3 80 L 12.6 80 Z" fill="#d72b27" stroke="none" stroke-width="1px"></path></g><g id="j4i64a9dfh" transform="translate(0.8400000000000034 0.8421357538112488)"><path d="M 0 5.4737 L 0 72.8421 C 0 75.8745 2.4352 78.3158 5.46 78.3158 L 10.92 78.3158 L 10.92 5.4737 C 10.92 2.4413 8.4848 0 5.46 0 C 2.4352 0 0 2.4413 0 5.4737 Z" fill="#d54b3d" stroke="none" stroke-width="1px"></path></g><g id="j4i64a9efi" transform="translate(92.39999999999998 0.000035753811232552835)"><path d="M 0 6.3158 C 0 2.8168 2.8098 0 6.3 0 C 9.7902 0 12.6 2.8168 12.6 6.3158 L 12.6 73.6842 C 12.6 77.1832 9.7902 80 6.3 80 L 0 80 Z" fill="#d72b27" stroke="none"></path></g><g id="j4i64a9efj" transform="translate(93.23999999999998 0.8421357538112488)"><path d="M 10.92 5.4737 L 10.92 72.8421 C 10.92 75.8745 8.4848 78.3158 5.46 78.3158 L 0 78.3158 L 0 5.4737 C 0 2.4413 2.4352 0 5.46 0 C 8.4848 0 10.92 2.4413 10.92 5.4737 Z" fill="#d54b3d" stroke="none"></path></g><g id="j4i64a9efk" transform="translate(12.600000000000009 18.73683575381125)"><path fill="#231f20" d="M 0 61.2632 L 39.9 29.0526 L 0 0 L 0 61.2632" stroke="none" fill-opacity="0.1"></path></g><g id="j4i64a9efl" transform="translate(4.514999999999986 6.3158357538112)"><path d="M 87.885 73.6842 L 94.185 73.6842 C 97.6752 73.6842 100.485 70.8674 100.485 67.3684 L 100.485 0 L 47.985 41.4737 L 0 6.5263 L 65.835 73.6842 L 82.005 73.6842 Z" fill="#000000" stroke="none" fill-opacity="0.15" stroke-width="1px"></path></g><g id="j4i64a9efm" transform="translate(1.0501051406208717e-7 -0.000009497459188878565)"><path d="M 41.7818 39.9678 L 52.5 47.7745 L 63.2182 39.9677 L 102.3974 11.4311 C 105.221 9.3745 105.8426 5.4399 103.7911 2.6091 C 101.7396 -0.2215 97.8149 -0.8447 94.9913 1.2119 L 52.5 32.161 L 10.0087 1.2119 C 7.1851 -0.8447 3.2604 -0.2215 1.2089 2.6092 C -0.8426 5.4399 -0.221 9.3745 2.6027 11.4311 Z" fill="#d72b27" stroke="none"></path></g><g id="j4i64a9efn" transform="translate(0.8350346171051797 0.8372803942293103)"><path d="M 60.954 39.1291 L 101.0743 9.907 C 103.5214 8.1245 104.0602 4.7146 102.2822 2.2613 C 100.5042 -0.192 97.1028 -0.7321 94.6556 1.0503 L 51.665 32.3632 L 8.6743 1.0503 C 6.2271 -0.7321 2.8257 -0.192 1.0477 2.2613 C -0.7303 4.7146 -0.1915 8.1245 2.2556 9.907 L 42.3759 39.1291 L 51.665 45.8949 Z" fill="#d54b3d" stroke="none"></path></g></g></symbol></svg>