<svg xmlns="http://www.w3.org/2000/svg" viewBox=" -24   0   191   184 " preserveAspectRatio="xMidYMid"><defs><clipPath id="a"><path d="M138.05 37.577L79.27 3.657a12.3 12.3 0 0 0-12.33 0L8.15 37.577A12.37 12.37 0 0 0 2 48.267v67.89a12.33 12.33 0 0 0 6.15 10.66l29.41 17v34.66a3.7 3.7 0 0 0 5.55 3.19l95-54.82a12.3 12.3 0 0 0 6.15-10.66v-67.93a12.4 12.4 0 0 0-6.21-10.68z" fill="none"/></clipPath></defs><g clip-path="url(#a)"><path d="M144.2 41.157l-71.08 41.05L2 41.157v82.1l35.56 20.51v41.06l106.64-61.57z" fill="#ef6c00"/><g fill="#ff9800"><path d="M73.12 82.207L2 41.157 73.12.107l71.08 41.05z"/><path d="M71.86 80.957L2.45 40.887l-.45.27 71.12 41.05 71.08-41.05-1.67-.99z"/><path d="M73.12 82.717v-.51L2.45 41.397l-.45.27z"/></g></g></svg>