<svg viewBox="0 0 60 43" xmlns="http://www.w3.org/2000/svg"><g fill="none" fill-rule="evenodd"><path d="M47.065 5.752c-1.8-.001-3.582.378-5.226 1.112-1.843-3.286-5.298-5.486-9.259-5.486a10.509 10.509 0 0 0-7.607 3.26A11.65 11.65 0 0 0 5.015 16.325 10.13 10.13 0 0 0 .01 25.087c0 5.591 4.483 10.12 10.017 10.126.692 0 1.382-.071 2.059-.214a10.785 10.785 0 0 0 20.045.487 9.453 9.453 0 0 0 12.387-3.89c.839.17 1.692.255 2.548.255C54.215 31.851 60 26.01 60 18.801c0-7.207-5.792-13.049-12.934-13.049z" fill="#1BA1DE"/><path d="M53.826 19.972a.102.102 0 0 1-.1.092h-3.477c.02.527.156.912.404 1.155.247.244.651.404 1.19.404.489.021.978-.065 1.43-.253h.01a.1.1 0 0 1 .125.065l.229.636c.046.107.01.145-.03.167-.215.12-.745.347-1.749.347a3.52 3.52 0 0 1-1.262-.203 2.226 2.226 0 0 1-1.387-1.457 3.718 3.718 0 0 1-.157-1.11 3.901 3.901 0 0 1 .152-1.109 2.52 2.52 0 0 1 .47-.902c.221-.262.497-.47.808-.611a2.723 2.723 0 0 1 1.148-.223c.342-.001.681.067.996.201.253.12.478.292.661.503.204.235.356.51.444.808.133.486.165.995.095 1.494v-.004zm-2.285-2.092a1.107 1.107 0 0 0-.994.506c-.152.25-.248.53-.282.82h2.481a1.715 1.715 0 0 0-.231-.821 1.076 1.076 0 0 0-.974-.505zm-2.864 4.433c-.466.174-.96.263-1.457.264-.89 0-1.573-.261-2.028-.764-.454-.504-.683-1.192-.683-2.044a3.527 3.527 0 0 1 .168-1.106 2.53 2.53 0 0 1 .5-.892c.229-.26.513-.467.832-.605a2.8 2.8 0 0 1 1.145-.22c.258-.003.515.014.77.05.234.038.463.096.685.174h.008c.049.017.074.07.057.118-.096.27-.161.452-.253.703a.089.089 0 0 1-.118.07 3.448 3.448 0 0 0-1.086-.155c-.507 0-.887.167-1.14.502-.251.333-.394.77-.394 1.345 0 .639.158 1.112.442 1.404.284.292.672.44 1.175.44a3.53 3.53 0 0 0 .563-.04c.163-.028.323-.073.477-.135h.012a.098.098 0 0 1 .123.066l.246.695a.094.094 0 0 1-.044.134v-.004zm-4.594-4.34a.12.12 0 0 1-.135.094 1.917 1.917 0 0 0-.382-.047c-.158 0-.314.022-.466.066-.162.05-.31.139-.43.258-.14.145-.244.32-.304.512a3.038 3.038 0 0 0-.116.912v2.59a.105.105 0 0 1-.105.106h-.915a.105.105 0 0 1-.104-.105v-5.193a.1.1 0 0 1 .1-.102h.894a.1.1 0 0 1 .097.105v.423c.158-.188.36-.337.586-.433.281-.127.59-.177.897-.144.197.015.392.048.583.1a.094.094 0 0 1 .05.124h.008c-.03.103-.2.58-.258.734zm-4.046 2.902c-.093.326-.251.63-.467.892a2.21 2.21 0 0 1-.79.594 2.923 2.923 0 0 1-2.2 0 2.202 2.202 0 0 1-.79-.594 2.473 2.473 0 0 1-.467-.892 4.094 4.094 0 0 1 0-2.208 2.46 2.46 0 0 1 .467-.892c.215-.256.484-.46.788-.6a2.85 2.85 0 0 1 2.203 0c.304.139.574.344.79.6.215.262.373.566.466.892a4.094 4.094 0 0 1 0 2.212v-.004zM37.682 17.9c-.46 0-.782.155-.997.483-.215.329-.324.808-.324 1.391 0 .584.111 1.069.325 1.397.214.328.538.488.996.488.457 0 .781-.157 1-.488.217-.331.329-.807.329-1.397 0-.589-.113-1.065-.33-1.39-.216-.326-.54-.484-1-.484zm-2.601-.734l-.134.722a.117.117 0 0 1-.117.101h-1.145l-.783 4.433a6.665 6.665 0 0 1-.306 1.168 2.315 2.315 0 0 1-.452.779c-.174.2-.395.353-.643.448a2.541 2.541 0 0 1-.853.134 2.092 2.092 0 0 1-.51-.048 2.63 2.63 0 0 1-.317-.093.104.104 0 0 1-.054-.135c.024-.07.229-.633.257-.707a.097.097 0 0 1 .127-.054c.06.028.123.048.188.06.092.019.185.03.278.031a1.31 1.31 0 0 0 .404-.057.647.647 0 0 0 .324-.244c.107-.151.188-.318.242-.495a5.43 5.43 0 0 0 .209-.857l.78-4.352h-.773c-.093 0-.123-.043-.113-.112l.134-.722a.117.117 0 0 1 .117-.101h.79l.042-.235c.118-.699.352-1.226.7-1.577.346-.351.843-.529 1.47-.529a2.648 2.648 0 0 1 .818.119h.006c.049.017.074.07.057.118l-.27.73c-.015.053-.037.088-.15.053-.028-.008-.07-.02-.178-.043a1.49 1.49 0 0 0-.285-.028 1.226 1.226 0 0 0-.372.052.726.726 0 0 0-.291.182c-.108.104-.192.23-.245.371a4.656 4.656 0 0 0-.183.784h1.111a.091.091 0 0 1 .12.104z" fill="#FFF"/><path d="M28.874 22.598a3.58 3.58 0 0 1-2.136-.626.1.1 0 0 1-.026-.134l.242-.673a.104.104 0 0 1 .162-.055c.068.049.117.084.203.135a2.906 2.906 0 0 0 1.587.46c.538 0 .868-.284.868-.665v-.021c0-.416-.513-.573-1.104-.755l-.135-.04c-.807-.232-1.68-.567-1.68-1.593v-.02c0-.976.785-1.656 1.913-1.656h.122a3.49 3.49 0 0 1 1.764.473c.05.024.076.081.06.135l-.25.672a.105.105 0 0 1-.163.04 3.542 3.542 0 0 0-1.563-.404c-.476 0-.784.253-.784.597v.02c0 .404.526.573 1.137.771l.106.034c.807.255 1.672.61 1.672 1.585v.02c0 1.046-.764 1.7-1.995 1.7zm-2.895-2.622a.102.102 0 0 1-.101.092h-3.476c.02.527.156.912.403 1.155.248.244.652.404 1.19.404.49.02.978-.068 1.431-.257h.01a.1.1 0 0 1 .125.065l.228.636c.046.107.01.145-.03.167-.215.12-.745.347-1.748.347-.43.01-.858-.059-1.262-.203a2.226 2.226 0 0 1-1.386-1.457 3.718 3.718 0 0 1-.157-1.11 3.901 3.901 0 0 1 .152-1.109 2.52 2.52 0 0 1 .47-.902c.22-.262.497-.47.808-.611a2.726 2.726 0 0 1 1.149-.223c.342-.001.68.068.995.201.253.12.478.292.66.503.205.235.356.51.445.808.132.486.164.995.094 1.494zm-2.287-2.096a1.11 1.11 0 0 0-.994.506c-.151.25-.246.53-.28.82h2.48a1.726 1.726 0 0 0-.23-.821 1.076 1.076 0 0 0-.976-.505zm-3.466-2.938v7.42a.1.1 0 0 1-.095.107h-.927a.1.1 0 0 1-.1-.102v-7.425a.1.1 0 0 1 .095-.105h.928a.1.1 0 0 1 .1.1v.005zm-2.252 7.195a.109.109 0 0 1-.079.114s-.126.035-.243.062a22.17 22.17 0 0 1-.876.17 6.358 6.358 0 0 1-1.056.088 4.153 4.153 0 0 1-.922-.094 1.906 1.906 0 0 1-.707-.307 1.43 1.43 0 0 1-.454-.538 1.805 1.805 0 0 1-.16-.793 1.626 1.626 0 0 1 .69-1.375c.22-.155.466-.269.725-.337.28-.074.568-.111.857-.11.214 0 .404 0 .538.016.135.016.27.024.574.067v-.145c0-.464-.096-.682-.286-.829a1.41 1.41 0 0 0-.86-.224 3.546 3.546 0 0 0-1.572.382.089.089 0 0 1-.112-.058l-.247-.656a.109.109 0 0 1 .032-.135c.318-.246 1.076-.393 1.076-.393a5.75 5.75 0 0 1 .933-.086c.695 0 1.232.155 1.598.48.366.326.551.838.551 1.537v3.168-.004zm-3.061-1.986a.761.761 0 0 0-.311.673.827.827 0 0 0 .105.452c.05.082.12.152.2.206 0 0 .312.246 1.02.203.316-.02.63-.062.942-.124v-1.58a7.037 7.037 0 0 0-.942-.081c-.714-.01-1.014.251-1.014.251zm-2.059.74c0 1.053-.764 1.707-1.995 1.707a3.578 3.578 0 0 1-2.136-.626.1.1 0 0 1-.026-.134l.248-.673a.098.098 0 0 1 .163-.055c.068.047.117.084.203.135a2.904 2.904 0 0 0 1.586.453c.538 0 .866-.284.866-.664v-.022c0-.416-.511-.573-1.103-.755l-.134-.04c-.808-.231-1.68-.566-1.68-1.593v-.02c0-.975.785-1.656 1.912-1.656h.119a3.498 3.498 0 0 1 1.763.474c.05.024.076.08.06.134-.02.06-.225.61-.25.673a.105.105 0 0 1-.162.039 3.542 3.542 0 0 0-1.563-.404c-.477 0-.785.253-.785.597v.02c0 .404.526.574 1.137.771l.106.034c.808.256 1.673.61 1.673 1.585v.02h-.002z" fill="#FFF"/></g></svg>