<?xml version="1.0" encoding="utf-8"?>
<!-- Generator: Adobe Illustrator 24.0.1, SVG Export Plug-In . SVG Version: 6.00 Build 0)  -->
<svg version="1.1" xmlns="http://www.w3.org/2000/svg" xmlns:xlink="http://www.w3.org/1999/xlink" x="0px" y="0px"
	 viewBox="0 0 492 492" style="enable-background:new 0 0 492 492;" xml:space="preserve">
<style type="text/css">
	.st0{opacity:0.497;fill:url(#Path_1628_1_);enable-background:new    ;}
	.st1{clip-path:url(#SVGID_2_);}
	.st2{display:none;}
	.st3{display:inline;}
	.st4{fill:#0E106A;}
	.st5{display:inline;fill:#0E106A;}
	.st6{fill:none;stroke:#0E106A;stroke-width:17;stroke-miterlimit:10;}
	.st7{fill:#FFFFFF;}
	.st8{fill:none;stroke:#0E106A;stroke-width:5;stroke-miterlimit:10;}
	.st9{fill:none;stroke:#0E106A;stroke-width:7;stroke-miterlimit:10;}
	.st10{fill:none;stroke:#0E106A;stroke-width:6;stroke-miterlimit:10;}
	.st11{fill:none;stroke:#0E106A;stroke-width:3;stroke-miterlimit:10;}
</style>
<g id="Layer_2">
	<g id="Group_1862" transform="translate(741.808 2919.427) rotate(180)">
		
			<linearGradient id="Path_1628_1_" gradientUnits="userSpaceOnUse" x1="260.851" y1="2192.3486" x2="254.9053" y2="2184.3252" gradientTransform="matrix(48 0 0 48 -11988.1934 -102561.5625)">
			<stop  offset="0" style="stop-color:#FFFFFF"/>
			<stop  offset="1" style="stop-color:#FFA600"/>
		</linearGradient>
		<path id="Path_1628" class="st0" d="M268.8,2624.5l396.1,270.9l49.2-445.2L268.8,2624.5z"/>
		<g id="Group_1782" transform="translate(184.807 279.427)">
			<g>
				<g>
					<defs>
						<polygon id="SVGID_1_" points="84.1,2345.4 480.1,2616.2 529.3,2171 						"/>
					</defs>
					<clipPath id="SVGID_2_">
						<use xlink:href="#SVGID_1_"  style="overflow:visible;"/>
					</clipPath>
					<g id="Group_1781" transform="translate(0 0)" class="st1">
						
							<image style="overflow:visible;" width="258" height="431" xlink:href="../../icon/DE219773.png"  transform="matrix(1.6594 0 0 1.6594 181.8547 2036.0613)">
						</image>
					</g>
				</g>
			</g>
		</g>
	</g>
</g>
<g id="Layer_1" class="st2">
	<g id="Layer_1_1_" class="st3">
		<path class="st4" d="M356,179.5c0-8.7-6.6-15.9-15.1-16.7c-8.7-0.9-16.5,5-18.2,13.4c-1.7,8.6,3.3,16.9,11.6,19.4v11.4
			c-1.7-0.5-3.5-0.7-5.4-0.9c-5-9.8-15-16-26-16h-9.4v-6.5c0-4.8-3.9-8.7-8.7-8.7H268v-6.2c0-2.7-2.2-4.9-4.9-4.9s-4.9,2.2-4.9,4.9
			v6.2h-16.5c-4.8,0-8.7,3.9-8.7,8.7v6.5h-9.4c-16.1,0-29.2,13.1-29.2,29.2v48c0,16.1,13.1,29.2,29.2,29.2h79
			c16.1,0,29.2-13.1,29.2-29.2v-4c11.5-2,20.6-10.6,23.2-21.9c2.6-11.4-1.8-23.1-11.2-29.8v-15.9C351.1,193.4,356,186.8,356,179.5z
			 M243,184.6h40.8v5.4H243L243,184.6L243,184.6z M322.3,267.2c0,10.8-8.7,19.4-19.4,19.4h-79c-10.8,0-19.4-8.7-19.4-19.4v-47.9
			c0-10.8,8.7-19.4,19.4-19.4h79c10.8,0,19.4,8.7,19.4,19.4V267.2z M332.1,253.2v-36.9c8.4,2.2,14.2,9.8,14.2,18.4
			C346.2,243.5,340.4,251,332.1,253.2L332.1,253.2z M332.1,179.5c0-3.9,3.2-7.1,7.1-7.1c3.9,0,7.1,3.2,7.1,7.1s-3.2,7.1-7.1,7.1
			C335.2,186.5,332.1,183.4,332.1,179.5L332.1,179.5z"/>
		<path class="st4" d="M229.3,218.5h-0.6c-6.7,0-12.1,5.5-12.2,12.2v6.6c0,2.7,2.2,4.9,4.9,4.9h15.1c2.7,0,4.9-2.2,4.9-4.9v-6.6
			C241.4,224,236,218.5,229.3,218.5z M231.8,232.5h-5.4v-1.7c0-1.3,1.1-2.4,2.4-2.4h0.6c1.3,0,2.4,1.1,2.4,2.4v1.7H231.8z"/>
		<path class="st4" d="M298,218.5h-0.6c-6.7,0-12.1,5.5-12.2,12.2v6.6c0,2.7,2.2,4.9,4.9,4.9h15.1c2.7,0,4.9-2.2,4.9-4.9v-6.6
			C310.2,224,304.7,218.5,298,218.5z M300.4,232.5H295v-1.7c0-1.3,1.1-2.4,2.4-2.4h0.6c1.3,0,2.4,1.1,2.4,2.4v1.7H300.4z"/>
		<path class="st4" d="M278.5,253h-30.3c-2.7,0-4.9,2.2-4.9,4.9v0.6c0,10.8,8.7,19.4,19.4,19.4h1.1c10.8,0,19.4-8.7,19.4-19.4v-0.6
			C283.3,255.2,281.2,253,278.5,253z M263.9,268.1h-1.1c-3.7,0-7.1-2.1-8.7-5.4h18.6C271,266.1,267.7,268.1,263.9,268.1z"/>
	</g>
</g>
<g id="Layer_3" class="st2">
	<path class="st5" d="M754.1,24.1c-0.6,0-1.1,0-1.7,0c0,0,0,0,0,0h0c-35.7-0.4-65.5,27.4-67.4,63.1c-0.1,1.1-0.1,9.7-0.1,12.7
		L672.9,131c-0.8,2-0.5,4.2,0.7,5.9c1.2,1.7,3.2,2.8,5.3,2.8h15v17.1c0,4.8,1.9,9.4,5.4,12.7c3.4,3.3,8.1,5.1,12.8,5
		c0.4,0,3.4,0,18.4-0.1h0c2.4,0,4.5,1.5,5.2,3.8v21.7c0,2,1.6,3.6,3.6,3.6h56.4c1,0,1.9-0.4,2.6-1.1c0.7-0.7,1-1.7,1-2.7
		c0-0.4-2.2-38.7,0-62.1c0.5-5.3,5.2-17.9,7.1-22.6c9.9-19,9.3-41.8-1.5-60.3C794.4,36.4,775.1,24.8,754.1,24.1z M797.7,56.8h-23.9
		c-9.9,0-17.9-8-17.9-17.9v-7.5C773.1,32.7,788.7,42.1,797.7,56.8z M721.1,39.6v7.7c0,8-6.5,14.5-14.5,14.5h-7.1
		C704.6,52.6,712.1,45,721.1,39.6z M692.3,84.4h9.5c4.2,0,7.6,3.4,7.6,7.6c0,4.2-3.4,7.6-7.6,7.6H692c0-5.5,0-11.4,0.1-12.1
		C692.1,86.5,692.2,85.5,692.3,84.4z M711.9,167.3c-2.8,0.1-5.6-1-7.6-2.9c-2-2-3.2-4.7-3.2-7.5v-20.7c0-2-1.6-3.6-3.6-3.6H680
		l9.8-25.5h12.1c8.2,0,14.9-6.7,14.9-14.9s-6.7-14.9-14.9-14.9h-8.3c0.6-2.8,1.5-5.5,2.5-8.2h10.5c12,0,21.7-9.7,21.7-21.7V35.9
		c6.5-2.7,13.4-4.3,20.4-4.6v7.6c0,13.9,11.2,25.1,25.1,25.1h27.7c3,6.7,4.5,14,4.7,21.4L780,91.9c-10.9-10.4-27.1-12.6-40.4-5.5
		c-13.3,7.1-20.5,21.8-18,36.6c2.5,14.8,14.2,26.3,29.1,28.6c-2.4,9.1-10.7,15.5-20.1,15.6h-0.1
		C718.9,167.2,712.7,167.2,711.9,167.3z M774.3,137.7l-7.9-11.6c4.5-5.2,4.4-13-0.2-18.1c-4.6-5.1-12.3-6.1-18-2.2
		s-7.7,11.4-4.6,17.6c3.1,6.2,10.3,9.1,16.8,6.9l7.9,11.6c-13,6.6-28.9,1.9-36.3-10.7c-7.4-12.6-3.8-28.7,8.3-36.9
		c12.1-8.2,28.4-5.6,37.4,5.9C786.7,111.5,785.2,128,774.3,137.7z M762,119.6l-3.1-4.5c-1.1-1.6-3.4-2.1-5-1c-1.6,1.1-2.1,3.4-1,5
		l3.1,4.5c0,0-0.1,0-0.1,0c-2.9,0-5.4-1.9-6.3-4.7c-0.8-2.8,0.2-5.8,2.6-7.4c2.4-1.6,5.6-1.5,7.8,0.4
		C762.3,113.9,763.1,117,762,119.6L762,119.6z M754.6,179.1c0-1.4,1.1-2.5,2.5-2.5c1.4,0,2.5,1.1,2.5,2.5c0,1.4-1.1,2.5-2.5,2.5
		C755.7,181.6,754.6,180.5,754.6,179.1L754.6,179.1z M799.7,112.1c-0.7,1.8-7,17.4-7.7,24.8c-1.8,19.8-0.7,49-0.2,59.4h-31.1v-8.1
		c4.3-1.7,6.8-6.3,6-10.9s-4.9-7.9-9.6-7.9c-4.7,0-8.7,3.3-9.6,7.9s1.6,9.2,6,10.9v8.1h-10.6v-18.6c0-0.3,0-0.6-0.1-0.9
		c-0.4-1.6-1.1-3-2-4.3c8.8-3.5,15.3-11.2,17.2-20.5c5-0.3,10-1.7,14.4-4.1l4.3,6.3v8.2c-4.3,1.7-6.9,6.3-6,10.9
		c0.9,4.6,4.9,7.9,9.6,7.9c4.7,0,8.7-3.3,9.6-7.9c0.9-4.6-1.6-9.2-5.9-10.9V153c0-0.7-0.2-1.4-0.6-2l-4.9-7.2
		c13.5-11.3,16.4-30.9,6.7-45.7l20.7-5.1c-0.8,6.6-2.8,12.9-5.9,18.8C799.8,111.9,799.8,112,799.7,112.1z M780.3,168.8
		c1.4,0,2.5,1.1,2.5,2.5c0,1.4-1.1,2.5-2.5,2.5c-1.4,0-2.5-1.1-2.5-2.5C777.7,169.9,778.9,168.8,780.3,168.8L780.3,168.8z"/>
	<path class="st5" d="M743.4,138.6c3.8,2.2,8.1,3.4,12.5,3.4c0.3,0,0.6,0,1,0c2-0.1,3.5-1.8,3.5-3.8c-0.1-2-1.8-3.5-3.7-3.5
		c-3.4,0.1-6.7-0.7-9.6-2.4c-1.1-0.7-2.5-0.7-3.6,0c-1.1,0.6-1.8,1.8-1.8,3.1S742.3,137.9,743.4,138.6L743.4,138.6z"/>
	<path class="st5" d="M778.3,106.4c-0.6-1.2-1.2-2.3-2-3.4c-0.9-1.2-1.8-2.4-2.9-3.5c-0.9-0.9-2.3-1.3-3.5-0.9
		c-1.2,0.3-2.2,1.3-2.5,2.6c-0.3,1.3,0,2.6,1,3.5c0.8,0.8,1.5,1.6,2.1,2.5c0.5,0.8,1,1.6,1.4,2.4c1.5,3,2,6.4,1.6,9.7
		c-0.2,2,1.2,3.8,3.2,4c0.1,0,0.3,0,0.4,0c1.8,0,3.4-1.4,3.6-3.2c0.1-1,0.2-2,0.2-3C780.8,113.4,779.9,109.7,778.3,106.4z"/>
	<path class="st5" d="M741.2,97.1c-3.8,2.8-6.7,6.6-8.4,11c-0.5,1.2-0.3,2.6,0.5,3.6c0.8,1,2.1,1.5,3.4,1.3c1.3-0.2,2.4-1.1,2.8-2.3
		c1.2-3.1,3.3-5.8,6-7.8c1.6-1.2,1.9-3.4,0.8-5C745.1,96.3,742.8,96,741.2,97.1L741.2,97.1z"/>
	<path class="st5" d="M645.9,99.8c0-3,0-11.6-0.1-12.7c-2-35.7-31.7-63.6-67.5-63.1c-0.6,0-1.1,0-1.7,0
		c-21.1,0.7-40.3,12.3-50.8,30.6c-10.8,18.5-11.4,41.3-1.5,60.3c1.9,4.6,6.6,17.3,7.1,22.6c2.2,23.4,0,61.7,0,62.1
		c-0.1,1,0.3,2,1,2.7c0.7,0.7,1.6,1.1,2.6,1.1h56.4c2,0,3.6-1.6,3.6-3.6v-21.7c0.7-2.2,2.8-3.8,5.2-3.8h0c15,0.1,18,0.1,18.4,0.1
		c4.8,0.1,9.4-1.7,12.8-5c3.4-3.3,5.4-7.9,5.4-12.7v-17.1h15c2.1,0,4.1-1,5.3-2.8c1.2-1.7,1.5-4,0.7-5.9L645.9,99.8z M633.2,132.5
		c-2,0-3.6,1.6-3.6,3.6v20.7c0,2.8-1.1,5.5-3.2,7.5c-2,2-4.8,3-7.6,2.9c-0.8,0-7.1-0.1-18.6-0.1h-0.1c-10.8,0-19.8-8.3-20.7-19.1
		c-0.2-2-1.9-3.5-3.9-3.3c-2,0.2-3.5,1.9-3.3,3.9c0.9,10.6,7.8,19.8,17.7,23.8c-0.9,1.3-1.6,2.8-2,4.3c-0.1,0.3-0.1,0.6-0.1,0.9
		v18.6h-49c0.5-10.4,1.6-39.6-0.2-59.4c-0.7-7.4-7-23-7.7-24.8c0-0.1-0.1-0.2-0.1-0.3c-8.8-16.8-8.4-37.1,1.3-53.5
		c9.3-16.1,26.2-26.4,44.8-27c0.5,0,1,0,1.5,0c31.9-0.4,58.5,24.4,60.2,56.3c0,0.7,0.1,7.2,0.1,12.9c0,0.4,0.1,0.9,0.2,1.3
		l11.7,30.7H633.2z"/>
</g>
<g id="Layer_4" class="st2">
	<path class="st5" d="M227.2,134.7c-7.6,0-13.8,6.2-13.8,13.8v27.7c0,2.9,0.9,5.7,2.6,8.1l-8.6,5.8h-3.2c-12.7,0-23,10.3-23,23v0.8
		c-5.5,1.9-9.2,7.1-9.2,13h9.2c0-2.5,2.1-4.6,4.6-4.6s4.6,2.1,4.6,4.6h9.2c0-5.8-3.7-11-9.2-13V213c0-7.6,6.2-13.8,13.8-13.8v32.3
		c0,0.7,0.2,1.4,0.5,2.1l9.2,18.4c0.8,1.6,2.4,2.5,4.1,2.5h64.5c1.8,0,3.4-1,4.1-2.5l9.2-18.4c0.3-0.6,0.5-1.3,0.5-2.1v-32.3
		c7.6,0,13.8,6.2,13.8,13.8v0.8c-5.5,1.9-9.2,7.1-9.2,13h9.2c0-2.5,2.1-4.6,4.6-4.6c2.5,0,4.6,2.1,4.6,4.6h9.2c0-5.8-3.7-11-9.2-13
		V213c0-12.7-10.3-23-23-23h-3.2l-8.6-5.8c1.7-2.3,2.6-5.2,2.7-8.1v-27.7c0-7.6-6.2-13.8-13.8-13.8h-18.4v-10.1
		c7.2-2.5,11-10.4,8.4-17.6c-2.5-7.2-10.4-11-17.6-8.4c-7.2,2.5-11,10.4-8.4,17.6c1.4,3.9,4.5,7,8.4,8.4v10.1L227.2,134.7z
		 M250.3,107c2.5,0,4.6,2.1,4.6,4.6c0,2.5-2.1,4.6-4.6,4.6s-4.6-2.1-4.6-4.6C245.7,109.1,247.7,107,250.3,107z M279.7,245.3h-58.8
		l-4.6-9.2h68L279.7,245.3z M232.5,226.8c2.5-9.8,12.5-15.8,22.3-13.3c6.5,1.7,11.6,6.7,13.3,13.3H232.5z M287.2,226.8h-9.6
		c-2.5-15-16.8-25.2-31.8-22.7c-11.6,2-20.7,11-22.7,22.7h-9.6v-29.8L224,190h52.5l10.6,7.1V226.8z M259.5,180.8h-18.4v-4.6h18.4
		V180.8z M277.9,148.5v27.7c0,2.5-2.1,4.6-4.6,4.6h-4.6v-9.2c0-2.5-2.1-4.6-4.6-4.6h-27.7c-2.5,0-4.6,2.1-4.6,4.6v9.2h-4.6
		c-2.5,0-4.6-2.1-4.6-4.6v-27.7c0-2.5,2.1-4.6,4.6-4.6h46.1C275.9,143.9,277.9,146,277.9,148.5z"/>
	<path class="st5" d="M231.9,153.1h9.2v9.2h-9.2V153.1z"/>
	<path class="st5" d="M259.5,153.1h9.2v9.2h-9.2V153.1z"/>
	<path class="st5" d="M356.3,125.5h-4.6v9.2h4.6c7.6,0,13.8,6.2,13.8,13.8v124.4H130.5V148.5c0-7.6,6.2-13.8,13.8-13.8h4.6v-9.2
		h-4.6c-12.7,0-23,10.3-23,23V296c0,12.7,10.3,23,23,23h68.5l-3.5,27.7h-9.8c-7.6,0-13.8,6.2-13.8,13.8c0,7.6,6.2,13.8,13.8,13.8
		H301c7.6,0,13.8-6.2,13.8-13.8c0-7.6-6.2-13.8-13.8-13.8h-9.8l-3.5-27.7h68.5c12.7,0,23-10.3,23-23V148.5
		C379.3,135.8,369,125.5,356.3,125.5z M305.6,360.5c0,2.5-2.1,4.6-4.6,4.6H199.6c-2.5,0-4.6-2.1-4.6-4.6c0-2.5,2.1-4.6,4.6-4.6H301
		C303.5,355.9,305.6,358,305.6,360.5z M281.9,346.7h-63.3l3.5-27.7h56.4L281.9,346.7z M356.3,309.8h-212c-7.6,0-13.8-6.2-13.8-13.8
		v-13.8h239.7V296C370.1,303.6,363.9,309.8,356.3,309.8z"/>
	<path class="st5" d="M282.5,125.5h32.3v9.2h-32.3V125.5z"/>
	<path class="st5" d="M185.8,125.5H218v9.2h-32.3V125.5z"/>
	<path class="st5" d="M342.5,291.4h9.2v9.2h-9.2V291.4z"/>
	<path class="st5" d="M324,125.5h18.4c2.5,0,4.6-2.1,4.6-4.6v-18.4c0-2.5-2.1-4.6-4.6-4.6H324c-2.5,0-4.6,2.1-4.6,4.6v18.4
		C319.4,123.4,321.5,125.5,324,125.5z M328.6,107h9.2v9.2h-9.2V107z"/>
	<path class="st5" d="M327.3,156.4l9.2-9.2c0.9-0.9,1.4-2,1.4-3.3v-9.2h-9.2v7.3l-6.5,6.5h-25.7v9.2H324
		C325.2,157.7,326.4,157.2,327.3,156.4z"/>
	<path class="st5" d="M342.5,226.8h18.4v9.2h-18.4V226.8z"/>
	<path class="st5" d="M342.5,245.3h18.4v9.2h-18.4V245.3z"/>
	<path class="st5" d="M347.1,166.9c-7.6,0-13.8,6.2-13.8,13.8c0,7.6,6.2,13.8,13.8,13.8c7.6,0,13.8-6.2,13.8-13.8
		C360.9,173.1,354.7,166.9,347.1,166.9z M347.1,185.4c-2.5,0-4.6-2.1-4.6-4.6c0-2.5,2.1-4.6,4.6-4.6c2.5,0,4.6,2.1,4.6,4.6
		C351.7,183.3,349.6,185.4,347.1,185.4z"/>
	<path class="st5" d="M308.9,237.4l-6.5,6.5l9.2,9.2c0.9,0.9,2,1.4,3.3,1.4h18.4v-9.2h-16.5L308.9,237.4z"/>
	<path class="st5" d="M305.6,176.2H324v9.2h-18.4V176.2z"/>
	<path class="st5" d="M158.1,125.5h18.4c2.5,0,4.6-2.1,4.6-4.6v-18.4c0-2.5-2.1-4.6-4.6-4.6h-18.4c-2.5,0-4.6,2.1-4.6,4.6v18.4
		C153.5,123.4,155.6,125.5,158.1,125.5z M162.7,107h9.2v9.2h-9.2V107z"/>
	<path class="st5" d="M162.7,134.7v9.2c0,1.2,0.5,2.4,1.4,3.3l9.2,9.2c0.9,0.9,2,1.4,3.3,1.4h27.7v-9.2h-25.7l-6.5-6.5v-7.3H162.7z"
		/>
	<path class="st5" d="M139.7,226.8h18.4v9.2h-18.4V226.8z"/>
	<path class="st5" d="M139.7,245.3h18.4v9.2h-18.4V245.3z"/>
	<path class="st5" d="M139.7,180.8c0,7.6,6.2,13.8,13.8,13.8c7.6,0,13.8-6.2,13.8-13.8c0-7.6-6.2-13.8-13.8-13.8
		C145.9,166.9,139.7,173.1,139.7,180.8z M153.5,176.2c2.5,0,4.6,2.1,4.6,4.6c0,2.5-2.1,4.6-4.6,4.6c-2.5,0-4.6-2.1-4.6-4.6
		C148.9,178.2,151,176.2,153.5,176.2z"/>
	<path class="st5" d="M167.3,245.3v9.2h18.4c1.2,0,2.4-0.5,3.3-1.4l9.2-9.2l-6.5-6.5l-7.9,7.9H167.3z"/>
	<path class="st5" d="M176.5,176.2H195v9.2h-18.4V176.2z"/>
</g>
<g id="Layer_5" class="st2">
	<g class="st3">
		<path class="st6" d="M247.2,189.5c-1.7,1.4-2.8,3.3-3,5.5c-0.2,2.2,0.4,4.3,1.7,6l23.1,29l-22,17.6l-23.1-29
			c-2.8-3.5-8-4.1-11.5-1.3l-10,8c-1.7,1.4-2.8,3.3-3,5.5s0.4,4.3,1.7,6l23.1,29l-16.5,13.1c-1.7,1.4-2.8,3.3-3,5.5s0.4,4.3,1.7,6
			l11.6,14.5c2.8,3.5,8,4.1,11.5,1.3l3.4-2.7c0.7,1.4,1.6,2.7,2.6,4l33.6,42.1c4.2,5.3,10.2,8.6,17,9.3c6.7,0.8,13.3-1.1,18.6-5.3
			l16.2-12.9l23.3,29.2c4.9,6.2,13.9,7.2,20.1,2.3c3.1-2.5,4.9-5.9,5.3-9.6s-0.6-7.4-3-10.5l-23.3-29.2l16.3-13
			c5.3-4.2,8.6-10.2,9.3-17c0.8-6.7-1.1-13.3-5.3-18.6L329.9,232c-1-1.3-2.1-2.4-3.3-3.4l3.4-2.7c1.7-1.4,2.8-3.3,3-5.5
			c0.2-2.2-0.4-4.3-1.7-6l-11.6-14.5c-1.4-1.7-3.3-2.8-5.5-3s-4.3,0.4-6,1.7l-16.5,13.1l-23.1-29c-2.8-3.5-8-4.1-11.5-1.3
			L247.2,189.5z"/>
		<path class="st6" d="M109.9,53.3c-6.2,4.9-7.2,13.9-2.3,20.1l23.5,29.5L115,115.8c-5.3,4.2-8.6,10.2-9.3,17
			c-0.8,6.7,1.1,13.3,5.3,18.6l33.6,42.1c1,1.3,2.1,2.4,3.3,3.4l-3.4,2.7c-1.7,1.4-2.8,3.3-3,5.5s0.4,4.3,1.7,6l11.6,14.5
			c1.4,1.7,3.3,2.8,5.5,3c2.2,0.2,4.3-0.4,6-1.7l100.6-80.3c1.7-1.4,2.8-3.3,3-5.5c0.2-2.2-0.4-4.3-1.7-6l-11.6-14.5
			c-2.8-3.5-8-4.1-11.5-1.3l-3.4,2.7c-0.7-1.4-1.6-2.7-2.6-4L205.4,76c-4.2-5.3-10.2-8.6-17-9.3c-6.7-0.8-13.3,1.1-18.6,5.3
			l-16.3,13L130,55.6C125.1,49.4,116.1,48.4,109.9,53.3z"/>
	</g>
</g>
<g id="Layer_6" class="st2">
	<g class="st3">
		<g>
			<path class="st4" d="M356,136.5h-5.4c-4.9-38.6-38.1-68.4-77.7-68.4c-21,0-41.5,8.8-56.2,23.9c-42-16.1-76.7,15.6-79.7,44.5
				c-22.5,2-40.1,21-40.1,44c0,24.4,19.5,44,44,44h19.5v-9.8h-19.5c-19.1,0-34.2-15.2-34.2-34.2s15.2-34.2,34.7-34.2h4.4
				c-0.5-29.3,32.3-63,73.3-42.5c0,0,19.5-25.9,53.8-25.9c47.9,0,69.9,44.5,68.4,68.4H356c19.1,0,34.2,15.2,34.2,34.2
				S375,214.7,356,214.7h-19.5v9.8H356c24.4,0,44-19.5,44-44C399.9,156.1,380.4,136.5,356,136.5z"/>
		</g>
	</g>
	<g class="st3">
		<g>
			<path class="st4" d="M269.9,146.3H165.4v224.8h166.2V207.9L269.9,146.3z M272.9,162.9l42,42h-42V162.9z M321.7,361.3H175.1V156.1
				h88v58.6h58.6V361.3z"/>
		</g>
	</g>
	<g class="st3">
		<g>
			<path class="st4" d="M189.8,170.8v78.2h58.6v-78.2H189.8z M238.7,239.2h-39.1v-58.6h39.1L238.7,239.2L238.7,239.2z"/>
		</g>
	</g>
	<g class="st3">
		<g>
			<rect x="263.1" y="239.2" class="st4" width="48.9" height="9.8"/>
		</g>
	</g>
	<g class="st3">
		<g>
			<rect x="189.8" y="263.6" class="st4" width="122.2" height="9.8"/>
		</g>
	</g>
	<g class="st3">
		<g>
			<rect x="189.8" y="288" class="st4" width="122.2" height="9.8"/>
		</g>
	</g>
	<g class="st3">
		<g>
			<rect x="302.2" y="307.6" class="st4" width="9.8" height="44"/>
		</g>
	</g>
	<g class="st3">
		<g>
			<rect x="282.7" y="317.4" class="st4" width="9.8" height="34.2"/>
		</g>
	</g>
	<g class="st3">
		<g>
			<rect x="263.1" y="327.1" class="st4" width="9.8" height="24.4"/>
		</g>
	</g>
	<g class="st3">
		<g>
			<rect x="243.6" y="336.9" class="st4" width="9.8" height="14.7"/>
		</g>
	</g>
	<g class="st3">
		<g>
			<path class="st4" d="M272.9,87.7v9.8c26.9,0,48.9,22,48.9,48.9h9.8C331.5,114.1,305.1,87.7,272.9,87.7z"/>
		</g>
	</g>
</g>
<g id="Layer_7" class="st2">
	<g class="st3">
		<path class="st4" d="M397.5,189.3c-4.9-14.9-18.7-25-34.3-25c-3.8,0-7.5,0.6-11.2,1.8c-9.2,3-16.6,9.4-21,18
			c-2.8,5.6-4.2,11.7-3.9,17.8l-27.1,8.8c-8.7-16.7-24.9-28.9-44.1-32.1v-28.4c15.1-4.3,26.3-18.2,26.3-34.7
			c0-19.9-16.2-36.1-36.1-36.1s-36.1,16.2-36.1,36.1c0,16.5,11.1,30.4,26.3,34.7v28.4c-19.2,3.1-35.4,15.3-44.1,32.1l-27.1-8.8
			c0.2-6.1-1.1-12.2-3.9-17.8c-4.4-8.6-11.8-15-21-18c-3.6-1.2-7.4-1.8-11.2-1.8c-15.7,0-29.5,10-34.3,25c-3,9.2-2.2,19,2.2,27.6
			c4.4,8.6,11.8,15,21,18c3.6,1.2,7.4,1.8,11.2,1.8c12.3,0,23.4-6.2,30-16l27,8.8c-0.5,3-0.7,6-0.7,9.2c0,16.6,6.7,31.7,17.6,42.7
			l-16.7,23c-4-1.5-8.1-2.2-12.4-2.2c-11.5,0-22.5,5.6-29.2,14.9c-5.7,7.8-8,17.4-6.5,26.9c1.5,9.5,6.6,17.9,14.4,23.6
			c6.2,4.5,13.5,6.9,21.2,6.9c11.5,0,22.5-5.6,29.2-14.9c9.7-13.3,8.9-31.2-0.8-43.5l16.7-23c8.2,4.1,17.5,6.5,27.3,6.5
			c9.8,0,19.1-2.3,27.3-6.5l16.7,23c-9.7,12.4-10.5,30.2-0.8,43.5c6.8,9.3,17.7,14.9,29.2,14.9c7.7,0,15-2.4,21.2-6.9
			c7.8-5.7,12.9-14,14.4-23.6c1.5-9.5-0.8-19.1-6.5-26.9c-6.8-9.3-17.7-14.9-29.2-14.9c-4.3,0-8.5,0.8-12.4,2.2l-16.7-23
			c10.9-11,17.6-26.1,17.6-42.7c0-3.1-0.2-6.2-0.7-9.2l27-8.8c6.6,9.9,17.7,16,30,16c3.8,0,7.5-0.6,11.2-1.8c9.2-3,16.6-9.4,21-18
			C399.7,208.3,400.4,198.5,397.5,189.3z M144.5,205.6c-2.2,6.8-8.5,11.4-15.6,11.4c-1.7,0-3.4-0.3-5.1-0.8
			c-4.2-1.4-7.6-4.3-9.6-8.2c-2-3.9-2.3-8.4-1-12.5c2.2-6.8,8.5-11.4,15.6-11.4c1.7,0,3.4,0.3,5.1,0.8c4.2,1.4,7.6,4.3,9.6,8.2
			C145.5,197,145.9,201.4,144.5,205.6z M229.6,115.4c0-9.1,7.4-16.4,16.4-16.4s16.4,7.4,16.4,16.4s-7.4,16.4-16.4,16.4
			S229.6,124.5,229.6,115.4z M186.9,347.8c-3.1,4.2-8.1,6.8-13.3,6.8c-3.5,0-6.8-1.1-9.6-3.1c-3.5-2.6-5.9-6.4-6.6-10.7
			c-0.7-4.3,0.4-8.7,2.9-12.2c3.1-4.2,8.1-6.8,13.3-6.8c3.5,0,6.8,1.1,9.6,3.1C190.6,330.2,192.2,340.5,186.9,347.8z M205,238.6
			c0-22.6,18.4-41,41-41s41,18.4,41,41s-18.4,41-41,41S205,261.2,205,238.6z M331.7,328.5c2.6,3.5,3.6,7.9,2.9,12.2
			c-0.7,4.3-3,8.1-6.6,10.7c-2.8,2.1-6.2,3.1-9.6,3.1c-5.3,0-10.2-2.5-13.3-6.8c-5.3-7.3-3.7-17.6,3.6-22.9c2.8-2.1,6.2-3.1,9.6-3.1
			C323.6,321.8,328.6,324.3,331.7,328.5z M377.7,208c-2,3.9-5.4,6.8-9.6,8.2c-1.7,0.5-3.4,0.8-5.1,0.8c-7.1,0-13.4-4.6-15.6-11.4
			c-1.4-4.2-1-8.6,1-12.5c2-3.9,5.4-6.8,9.6-8.2c1.7-0.5,3.4-0.8,5.1-0.8c7.1,0,13.4,4.6,15.6,11.4C380.1,199.6,379.7,204,377.7,208
			z"/>
	</g>
</g>
<g id="Layer_8" class="st2">
	<g class="st3">
		<path class="st7" d="M313.1,305H207c-2.9,0-5.3,2.4-5.3,5.3v42.4c0,2.9,2.4,5.3,5.3,5.3h106.1c2.9,0,5.3-2.4,5.3-5.3v-42.4
			C318.4,307.4,316,305,313.1,305z M233.5,342.1c-5.9,0-10.6-4.7-10.6-10.6c0-5.9,4.7-10.6,10.6-10.6s10.6,4.7,10.6,10.6
			C244.1,337.4,239.4,342.1,233.5,342.1z"/>
		<path class="st7" d="M313.1,198.9H207c-2.9,0-5.3,2.4-5.3,5.3v42.4c0,2.9,2.4,5.3,5.3,5.3h106.1c2.9,0,5.3-2.4,5.3-5.3v-42.4
			C318.4,201.3,316,198.9,313.1,198.9z M233.5,236c-5.9,0-10.6-4.7-10.6-10.6s4.7-10.6,10.6-10.6s10.6,4.7,10.6,10.6
			C244.1,231.3,239.4,236,233.5,236z"/>
		<path class="st7" d="M313.1,252H207c-2.9,0-5.3,2.4-5.3,5.3v42.4c0,2.9,2.4,5.3,5.3,5.3h106.1c2.9,0,5.3-2.4,5.3-5.3v-42.4
			C318.4,254.3,316,252,313.1,252z M233.5,289.1c-5.9,0-10.6-4.7-10.6-10.6c0-5.9,4.7-10.6,10.6-10.6s10.6,4.7,10.6,10.6
			C244.1,284.3,239.4,289.1,233.5,289.1z"/>
	</g>
	<g class="st3">
		<path class="st4" d="M369.2,150.1c-10.8-48-58.4-78.1-106.4-67.3c-24.3,5.5-45.2,20.8-57.6,42.4h-0.8
			c-34.9,0.1-64.8,25.1-71.2,59.4c-31.8,11.6-48.1,46.8-36.5,78.6c8.8,24.1,31.8,40.2,57.5,40.2h27.8v-11.1h-27.8
			c-27.7,0-50.1-22.4-50.1-50.1c0-22.1,14.5-41.6,35.6-48c2.1-0.6,3.6-2.4,3.9-4.6c4.1-30.4,30-53.2,60.7-53.2
			c0.9,0,1.7,0.1,2.6,0.1l1.1,0.1c2.2,0.1,4.2-1,5.3-3c20-38.1,67-52.8,105.2-32.9c21.2,11.1,36.2,31.4,40.5,55
			c0.4,2.2,2.1,4,4.3,4.5c36.1,7.9,58.9,43.5,51,79.5c-6.7,30.6-33.8,52.5-65.2,52.6H338v11.1h11.1c43.1,0,77.9-34.9,77.9-78
			C427,190.1,403.3,159.2,369.2,150.1z"/>
		<path class="st4" d="M315.7,192H204.4c-6.2,0-11.1,5-11.1,11.1v44.5c0,2,0.5,3.9,1.5,5.6c-1,1.7-1.5,3.6-1.5,5.6v44.5
			c0,2,0.5,3.9,1.5,5.6c-1,1.7-1.5,3.6-1.5,5.6v44.5c0,6.2,5,11.1,11.1,11.1h111.4c6.2,0,11.1-5,11.1-11.1v-44.5
			c0-2-0.5-3.9-1.5-5.6c1-1.7,1.5-3.6,1.5-5.6v-44.5c0-2-0.5-3.9-1.5-5.6c1-1.7,1.5-3.6,1.5-5.6v-44.5
			C326.9,197,321.9,192,315.7,192z M204.4,203.2h111.4v44.5H204.4V203.2z M315.7,303.4H204.4v-44.5h111.4V303.4z M315.7,359.1H204.4
			v-44.5h111.4V359.1z"/>
		<path class="st4" d="M232.2,208.7c-9.2,0-16.7,7.5-16.7,16.7c0,9.2,7.5,16.7,16.7,16.7c9.2,0,16.7-7.5,16.7-16.7
			C248.9,216.2,241.4,208.7,232.2,208.7z M232.2,231c-3.1,0-5.6-2.5-5.6-5.6s2.5-5.6,5.6-5.6c3.1,0,5.6,2.5,5.6,5.6
			S235.3,231,232.2,231z"/>
		<path class="st4" d="M260.1,208.7h11.1v11.1h-11.1V208.7z"/>
		<path class="st4" d="M282.3,208.7h22.3v11.1h-22.3V208.7z"/>
		<path class="st4" d="M232.2,297.8c9.2,0,16.7-7.5,16.7-16.7c0-9.2-7.5-16.7-16.7-16.7c-9.2,0-16.7,7.5-16.7,16.7
			C215.5,290.3,223,297.8,232.2,297.8z M232.2,275.5c3.1,0,5.6,2.5,5.6,5.6c0,3.1-2.5,5.6-5.6,5.6c-3.1,0-5.6-2.5-5.6-5.6
			C226.6,278,229.1,275.5,232.2,275.5z"/>
		<path class="st4" d="M260.1,264.4h11.1v11.1h-11.1V264.4z"/>
		<path class="st4" d="M282.3,264.4h22.3v11.1h-22.3V264.4z"/>
		<path class="st4" d="M232.2,353.5c9.2,0,16.7-7.5,16.7-16.7c0-9.2-7.5-16.7-16.7-16.7c-9.2,0-16.7,7.5-16.7,16.7
			C215.5,346,223,353.5,232.2,353.5z M232.2,331.2c3.1,0,5.6,2.5,5.6,5.6c0,3.1-2.5,5.6-5.6,5.6c-3.1,0-5.6-2.5-5.6-5.6
			C226.6,333.7,229.1,331.2,232.2,331.2z"/>
		<path class="st4" d="M260.1,320.1h11.1v11.1h-11.1V320.1z"/>
		<path class="st4" d="M282.3,320.1h22.3v11.1h-22.3V320.1z"/>
	</g>
</g>
<g id="Layer_10">
	<path class="st4" d="M224.6,181.7v13.2v1.1v27.4h51.6V196v-1.1v-13.2H224.6z"/>
	<path class="st4" d="M378,220.7l0,23.3h-34.4v21.8H378h21.4h0.4l0-45.1L378,220.7z"/>
	<path class="st8" d="M405,162.8l-5.9,13.5l-2.3,5.2c2.5,2.2,4.1,5.4,4.1,9c0,6.6-5.4,12-12,12c-6.6,0-12-5.4-12-12
		c0-3.6,1.6-6.8,4.1-9l-2.3-5.2l-5.9-13.5c-9.6,5.6-16.1,15.9-16.1,27.8c0,17.7,14.4,32.1,32.1,32.1c17.7,0,32.1-14.4,32.1-32.1
		C421,178.7,414.6,168.4,405,162.8z"/>
	<path class="st4" d="M126.3,295.9l0-24.7h34.4v-21.8h-34.4h-21.4h-0.4l0,46.5H126.3z"/>
	<g>
		<circle class="st4" cx="115.4" cy="260.2" r="16"/>
		<circle class="st4" cx="388.9" cy="253.9" r="16"/>
		<path class="st8" d="M99.4,352.4l5.9-13.5l2.3-5.2c-2.5-2.2-4.1-5.4-4.1-9c0-6.6,5.4-12,12-12c6.6,0,12,5.4,12,12
			c0,3.6-1.6,6.8-4.1,9l2.3,5.2l5.9,13.5c9.6-5.6,16.1-15.9,16.1-27.8c0-17.7-14.4-32.1-32.1-32.1s-32.1,14.4-32.1,32.1
			C83.3,336.5,89.8,346.8,99.4,352.4L99.4,352.4z"/>
		<path class="st9" d="M320.5,198.1H183c-14.2,0-25.8-11.5-25.8-25.8v-51.6c0-14.2,11.5-25.8,25.8-25.8h137.5
			c14.2,0,25.8,11.5,25.8,25.8v51.6C346.3,186.6,334.8,198.1,320.5,198.1z"/>
	</g>
	<path class="st10" d="M320.5,336H183c-14.2,0-25.8-11.5-25.8-25.8V250c0-14.2,11.5-25.8,25.8-25.8h137.5
		c14.2,0,25.8,11.5,25.8,25.8v60.2C346.3,324.4,334.8,336,320.5,336z"/>
	<path class="st7" d="M208.8,180.9c-19,0-34.4-15.4-34.4-34.4s15.4-34.4,34.4-34.4s34.4,15.4,34.4,34.4S227.7,180.9,208.8,180.9z
		 M208.8,133.6c-7.1,0-12.9,5.8-12.9,12.9s5.8,12.9,12.9,12.9s12.9-5.8,12.9-12.9S215.9,133.6,208.8,133.6z"/>
	<circle class="st4" cx="298.9" cy="146.4" r="16.4"/>
	<circle class="st4" cx="208.8" cy="147.1" r="16"/>
</g>
<g id="Layer_9">
	<path class="st11" d="M201.9,240.8l6.6,11.6c0.2,0.4,0.6,0.7,1,0.8l6.2,1.6l21.3,21.3l2.4-2.4l-21.6-21.6c-0.2-0.2-0.5-0.4-0.8-0.4
		l-6-1.5l-5.7-9.9l4.9-4.9l9.9,5.7l1.5,6c0.1,0.3,0.2,0.6,0.4,0.8l21.6,21.6l2.4-2.4l-21.3-21.3l-1.6-6.2c-0.1-0.4-0.4-0.8-0.8-1
		l-11.6-6.6c-0.6-0.4-1.5-0.3-2,0.3l-6.6,6.6C201.6,239.4,201.5,240.2,201.9,240.8z"/>
	<path class="st11" d="M271,264.5L234.4,301l-2.4-2.4l36.6-36.6L271,264.5z"/>
	<path class="st11" d="M228,302.3c-0.3-0.5-0.8-0.8-1.4-0.8h-10c-0.6,0-1.1,0.3-1.4,0.8l-5,8.3c-0.3,0.5-0.3,1.2,0,1.7l5,8.3
		c0.3,0.5,0.8,0.8,1.4,0.8h10c0.6,0,1.1-0.3,1.4-0.8l5-8.3c0.3-0.5,0.3-1.2,0-1.7L228,302.3z M225.6,318.1h-8.1l-4-6.6l4-6.6h8.1
		l4,6.6L225.6,318.1z"/>
	<path class="st11" d="M281.4,271.6c11,0,19.9-8.8,19.9-19.8c0-1.7-0.2-3.3-0.6-5c-0.2-0.9-1.1-1.4-2-1.2c-0.3,0.1-0.6,0.2-0.8,0.4
		l-10.3,10.3l-8.2-2.7l-2.7-8.2l10.3-10.3c0.6-0.6,0.6-1.7,0-2.4c-0.2-0.2-0.5-0.4-0.8-0.4c-10.6-2.7-21.5,3.7-24.2,14.4
		c-0.4,1.6-0.6,3.3-0.6,4.9c0,1.3,0.1,2.6,0.4,3.9l-36.4,36.4c-1.3-0.3-2.6-0.4-3.9-0.4c-11,0-19.9,8.9-19.9,19.9
		c0,11,8.9,19.9,19.9,19.9c11,0,19.9-8.9,19.9-19.9c0-1.3-0.1-2.6-0.4-3.9l8.7-8.7l3.8,3.8c0.6,0.6,1.7,0.6,2.4,0l0.8-0.8
		c0.7-0.7,1.9-0.7,2.6,0c0.7,0.7,0.7,1.9,0,2.6c0,0,0,0,0,0l-0.8,0.8c-0.6,0.6-0.6,1.7,0,2.4l19.8,19.8c5.2,5.3,13.7,5.3,19,0.1
		c5.3-5.2,5.3-13.7,0.1-19c0,0-0.1-0.1-0.1-0.1l-19.8-19.8c-0.6-0.6-1.7-0.6-2.4,0l-0.8,0.8c-0.7,0.7-1.9,0.7-2.6,0
		c-0.7-0.7-0.7-1.9,0-2.6c0,0,0,0,0,0l0.8-0.8c0.6-0.6,0.6-1.7,0-2.4l-3.8-3.8l8.7-8.7C278.8,271.4,280.1,271.6,281.4,271.6z
		 M288,328.1c-1.2,0-2.4-0.2-3.5-0.6l13-13c2,5.2-0.7,11-5.9,13C290.4,327.9,289.2,328.1,288,328.1z M269.1,284.9
		c-1.8,2.2-1.6,5.5,0.6,7.3c1.9,1.6,4.7,1.6,6.7,0l18.7,18.7c0.2,0.2,0.4,0.4,0.6,0.6l-14.2,14.2c-0.2-0.2-0.4-0.4-0.6-0.6
		l-18.7-18.7c1.8-2.2,1.6-5.5-0.6-7.3c-1.9-1.6-4.7-1.6-6.7,0l-2.7-2.7l14.3-14.3L269.1,284.9z M275.8,268.2l-37.7,37.7
		c-0.4,0.4-0.6,1-0.4,1.6c2.3,9-3.1,18.1-12.1,20.3c-9,2.3-18.1-3.1-20.3-12.1c-2.3-9,3.1-18.1,12.1-20.3c2.7-0.7,5.5-0.7,8.3,0
		c0.6,0.1,1.2,0,1.6-0.4l37.7-37.7c0.4-0.4,0.6-1,0.4-1.6c-2.3-8.9,3.1-17.9,11.9-20.1c1.7-0.4,3.4-0.6,5.1-0.5l-8.8,8.8
		c-0.4,0.4-0.6,1.1-0.4,1.7l3.3,10c0.2,0.5,0.6,0.9,1.1,1.1l10,3.3c0.6,0.2,1.3,0,1.7-0.4l8.8-8.8c0,0.3,0,0.6,0,0.9
		c0,9.1-7.3,16.6-16.5,16.6c-1.4,0-2.8-0.2-4.2-0.5C276.8,267.6,276.2,267.8,275.8,268.2L275.8,268.2L275.8,268.2z"/>
	<path class="st11" d="M287.6,315.3l-2.4,2.4L268.6,301l2.4-2.4L287.6,315.3z"/>
</g>
</svg>
