<?xml version="1.0" encoding="utf-8"?>
<!-- Generator: Adobe Illustrator 24.0.0, SVG Export Plug-In . SVG Version: 6.00 Build 0)  -->
<svg version="1.1" xmlns="http://www.w3.org/2000/svg" xmlns:xlink="http://www.w3.org/1999/xlink" x="0px" y="0px"
	 viewBox="0 0 466 466" style="enable-background:new 0 0 466 466;" xml:space="preserve">
<style type="text/css">
	.st0{opacity:0.497;fill:url(#Path_1628_1_);enable-background:new    ;}
	.st1{clip-path:url(#SVGID_2_);}
	.st2{fill:#0E106A;}
</style>
<g id="Layer_2">
	<g id="Group_1862" transform="translate(741.808 2919.427) rotate(180)">
		
			<linearGradient id="Path_1628_1_" gradientUnits="userSpaceOnUse" x1="1200.3859" y1="2296.4314" x2="1194.2964" y2="2288.2139" gradientTransform="matrix(-48 0 0 48 58301.5898 -107447.0703)">
			<stop  offset="0" style="stop-color:#FFFFFF"/>
			<stop  offset="1" style="stop-color:#FFA600"/>
		</linearGradient>
		<path id="Path_1628" class="st0" d="M281.2,2636.1l405.6,277.8l50.3-456L281.2,2636.1z"/>
		<g id="Group_1782" transform="translate(184.807 279.427)">
			<g>
				<defs>
					<polygon id="SVGID_1_" points="96.4,2356.7 502,2634.5 552.4,2178.5 					"/>
				</defs>
				<clipPath id="SVGID_2_">
					<use xlink:href="#SVGID_1_"  style="overflow:visible;"/>
				</clipPath>
				<g id="Group_1781" transform="translate(0 0)" class="st1">
					
						<image style="overflow:visible;enable-background:new    ;" width="258" height="431" id="Rectangle_1871" xlink:href="2D290D7F.png"  transform="matrix(1.6992 0 0 1.6992 196.5541 2040.3246)">
					</image>
				</g>
			</g>
		</g>
	</g>
</g>
<g id="Layer_1">
	<path class="st2" d="M296.7,262.7h-1.3c-3.6,0-6.5-2.9-6.5-6.5v-2.9c0-3.6,2.9-6.5,6.5-6.5h35.3c1.4,0,2.7-0.5,3.6-1.5
		c1-1,1.5-2.3,1.4-3.6v-45.8c0-2.6,1.6-5,4-6c9-3.7,14.7-12.4,14.7-22.5c0-10.1-5.8-18.8-14.7-22.5c-2.4-1-4-3.4-4-6v-28.9
		c0-1.4-0.5-2.7-1.4-3.6c-1-1-2.3-1.5-3.6-1.4h-76.2c-3.6,0-6.5-2.9-6.5-6.5v0c0-2.6,1.5-4.9,3.9-5.9c8-3.6,13.1-12,12.2-21
		c-1-10.4-9.6-18.5-20.1-18.9c-10.5-0.3-19.6,7.2-21.3,17.5c-1.5,9.1,3.2,17.9,11.1,21.9c2.2,1.1,3.5,3.3,3.5,5.7v0.6
		c0,3.6-2.9,6.5-6.5,6.5h-74.9c-1.4,0-2.7,0.5-3.6,1.4c-1,1-1.5,2.3-1.4,3.6V139c0,2.6-1.6,5-4,6c-9,3.7-14.8,12.4-14.8,22.5
		c0,10.1,5.8,18.8,14.8,22.5c2.4,1,4,3.4,4,6v45.8c0,1.4,0.5,2.7,1.4,3.6c1,1,2.3,1.5,3.6,1.5h35.3c3.6,0,6.5,2.9,6.5,6.5v2.9
		c0,3.6-2.9,6.5-6.5,6.5h-1.2c-33.5,0-61,27.4-61,61v25.1c0,6.4,5.2,11.6,11.6,11.6h204.7c6.6,0,12-5.4,12-12v-24.8
		C357.6,290.1,330.2,262.7,296.7,262.7z M233.1,73.6c0-5.7,4.6-10.3,10.3-10.3c5.7,0,10.3,4.6,10.3,10.3c0,5.7-4.6,10.3-10.3,10.3
		C237.7,83.9,233.1,79.3,233.1,73.6z M344,167.5c0,5.6-2.9,10.5-8.2,12.6v-25.3C341.1,157,344,161.8,344,167.5z M142.8,167.5
		c0-5.6,2.9-10.5,8.2-12.6v25.3C145.7,177.9,142.8,173.1,142.8,167.5z M166.1,115.5h154.5c2.5,0,4.6,2,4.6,4.6v111.6
		c0,2.5-2,4.6-4.6,4.6H166.1c-2.5,0-4.6-2-4.6-4.6V120.1C161.6,117.6,163.6,115.5,166.1,115.5z M213.6,246.9h59.6
		c2.9,0,5.2,2.3,5.2,5.2v5.5c0,2.9-2.3,5.2-5.2,5.2h-59.6c-2.9,0-5.2-2.3-5.2-5.2V252C208.4,249.2,210.7,246.9,213.6,246.9z
		 M293.5,349.8H193.2v-37h100.3V349.8z M347,349.8h-42.9v-42.3c0-2.9-2.7-5.2-5.6-5.2H188.3c-2.9,0-5.6,2.3-5.6,5.2v42.3h-42.9
		v-32.7c0-24.1,19.8-43.9,43.9-43.9h119.3c24.1,0,44,19.8,44,43.9V349.8z"/>
	<path class="st2" d="M291.6,189.8c0-4.6-3.7-8.2-8.2-8.2h-80.5c-4.6,0-8.2,3.7-8.2,8.2v26.4c0,4.6,3.7,8.2,8.2,8.2h80.5
		c4.6,0,8.2-3.7,8.2-8.2V189.8z M281.7,195.1L281.7,195.1c0,1.6-1.3,3-3,3h-70.6c-1.6,0-3-1.3-3-3l0,0c0-1.6,1.3-3,3-3h70.6
		C280.3,192.1,281.7,193.4,281.7,195.1z M205.1,211.6L205.1,211.6c0-1.6,1.3-3,3-3h70.6c1.6,0,3,1.3,3,3v0c0,1.6-1.3,3-3,3h-70.6
		C206.4,214.5,205.1,213.2,205.1,211.6z"/>
	<path class="st2" d="M225.6,138c0-2.9-2.4-5.3-5.3-5.3h-24.4c-2.9,0-5.3,2.4-5.3,5.3v24.4c0,2.9,2.4,5.3,5.3,5.3h24.4
		c2.9,0,5.3-2.4,5.3-5.3V138z M201.2,143.3h14.5v13.9h-14.5V143.3z"/>
	<path class="st2" d="M295.5,138c0-2.9-2.4-5.3-5.3-5.3h-24.4c-2.9,0-5.3,2.4-5.3,5.3v24.4c0,2.9,2.4,5.3,5.3,5.3h24.4
		c2.9,0,5.3-2.4,5.3-5.3V138z M271.1,143.3h14.5v13.9h-14.5V143.3z"/>
</g>
</svg>
