<svg xmlns="http://www.w3.org/2000/svg" width="60.03" height="20" viewBox="0 0 60.03 20"><defs><style>.a{fill:#bfbdc1;}</style></defs><g transform="translate(-10.034 -10.262)"><path class="a" d="M316.722,12.565H321.1v2.79h-4.376Z" transform="translate(-288.349 -2.165)"/><path class="a" d="M21.916,16.815h4.769a8.442,8.442,0,0,0-7.9-6.55,8.613,8.613,0,0,0-8.309,5.878,8.424,8.424,0,0,0,8.014,11.083A7.957,7.957,0,0,0,24.735,24.4s1.8-2.082,1.932-3.819H21.98a3.919,3.919,0,0,1-4.128,2.131,3.764,3.764,0,0,1-3.31-3.343,4.187,4.187,0,0,1,2.51-4.383s3.258-1.084,4.865,1.83" transform="translate(0 0)"/><path class="a" d="M316.612,80.6h4.364V93.077h-4.371Z" transform="translate(-288.239 -66.134)"/><path class="a" d="M430.272,85.743a2.541,2.541,0,0,0,2.592,1.035c.206-.05.388-.168.594-.217a2.437,2.437,0,0,0-.03-4.343,2.471,2.471,0,0,0-1.934-.15,2.719,2.719,0,0,0-1.225.941,2.557,2.557,0,0,0,0,2.735m-.407-6.4a5.858,5.858,0,0,1,1.6-1.106,4.949,4.949,0,0,1,3.38.086,6.5,6.5,0,0,1,3.2,2.409,6.4,6.4,0,0,1,1.131,3.945,6.376,6.376,0,0,1-6.182,6.035,3.743,3.743,0,0,1-3.122-1.352v4.573h-4.4V78.151h4.4v1.143" transform="translate(-390.59 -63.675)"/><path class="a" d="M682.613,11.886h4.4V28.47h-4.4Z" transform="translate(-632.362 -1.526)"/><path class="a" d="M787.412,85.906a2.6,2.6,0,0,0,1.714,2.107,2.465,2.465,0,0,0,3.07-3.225,2.5,2.5,0,0,0-2.257-1.57,2.612,2.612,0,0,0-2.1,1.048,2.707,2.707,0,0,0-.431,1.639m4.941-6.514h4.523V91.868h-4.523V90.716A4.239,4.239,0,0,1,789.371,92a6.226,6.226,0,0,1-5.408-3.114,6.347,6.347,0,0,1-.066-6.309,6.063,6.063,0,0,1,4.261-3.114,4.321,4.321,0,0,1,4.2,1.146Z" transform="translate(-726.812 -64.924)"/></g></svg>