<svg xmlns="http://www.w3.org/2000/svg" width="30.787" height="34" viewBox="0 0 30.787 34"><defs><style>.a{fill:#bfbdc1;}</style></defs><g transform="translate(-92 -68)"><path class="a" d="M113.3,74.754a6.8,6.8,0,1,0-6.8,6.749,6.775,6.775,0,0,0,6.8-6.749" transform="translate(0.121 0)"/><path class="a" d="M122.468,89.015a5.072,5.072,0,1,0-5.072,5.035,5.054,5.054,0,0,0,5.072-5.035" transform="translate(0.319 0.251)"/><path class="a" d="M117.891,96.646v-.007c-2.9-.858-7.1-3.171-10.124-9.372-5.08-10.414-17.817-5.889-15.484,3.5,2.114,8.519,14.231,14.75,25.745,8.462.02-.009.041-.02.063-.033a1.413,1.413,0,0,0-.2-2.55" transform="translate(0 0.209)"/></g></svg>