<svg xmlns="http://www.w3.org/2000/svg" width="150.984" height="127.62" viewBox="0 0 150.984 127.62"><defs><style>.a{fill:#31aa73;}.b{fill:#fff;}.c{fill:#02202e;}.d{fill:#a8dde9;}.e{fill:#fc9635;}.f{fill:#ed5448;}</style></defs><g transform="matrix(0.899, -0.438, 0.438, 0.899, 0, 56.791)"><g transform="translate(0 0)"><rect class="a" width="129.55" height="78.804"/></g><g transform="translate(11.8 14.893)"><ellipse class="b" cx="24.509" cy="24.509" rx="24.509" ry="24.509"/></g><g transform="translate(36.309 39.402)"><path class="c" d="M1700.344,404.631l17.238,3.777a17.648,17.648,0,0,1-13.675,13.506Z" transform="translate(-1700.344 -404.631)"/></g><g transform="translate(18.662 21.755)"><path class="a" d="M1716.965,378l5.165,16.875a17.647,17.647,0,1,1,10.959-9.7Z" transform="translate(-1699.318 -360.351)"/></g><g transform="translate(18.662 22.532)"><path class="d" d="M1761.245,379.171l-12.555,12.4a17.647,17.647,0,0,1,7.376-29.271Z" transform="translate(-1743.598 -362.301)"/></g><g transform="translate(25.045 21.755)"><path class="e" d="M1722.93,378l-11.264-13.584a17.647,17.647,0,0,1,23.99,1.358Z" transform="translate(-1711.666 -360.351)"/></g><g transform="translate(18.662 39.402)"><path class="f" d="M1761.245,404.631l-9.836,14.652a17.648,17.648,0,0,1-7.811-14.652Z" transform="translate(-1743.598 -404.631)"/></g><g transform="translate(70.541 16.42)"><g transform="translate(0)"><rect class="b" width="47.028" height="0.797"/></g><g transform="translate(0 7.639)"><rect class="b" width="47.028" height="0.797"/></g><g transform="translate(0 15.277)"><rect class="b" width="47.028" height="0.797"/></g><g transform="translate(0 29.89)"><rect class="b" width="47.028" height="0.797"/></g><g transform="translate(0 37.529)"><rect class="b" width="47.028" height="0.797"/></g><g transform="translate(0 45.168)"><rect class="b" width="47.028" height="0.797"/></g></g><g transform="translate(25.738 28.831)"><ellipse class="b" cx="10.572" cy="10.572" rx="10.572" ry="10.572"/></g></g></svg>