<svg xmlns="http://www.w3.org/2000/svg" width="403.312" height="213.251" viewBox="0 0 403.312 213.251"><defs><style>.a{fill:none;stroke:#8691a6;stroke-miterlimit:10;stroke-width:2px;}.b{fill:#8691a6;}.c{fill:#26b8d3;}</style></defs><g transform="translate(-1125.656 -567.325)"><g transform="translate(1126.42 567.325)"><g transform="translate(0 3.872)"><path class="a" d="M1126.42,573.688c21.393,25.329,51.5,46.5,84.636,45.515,45.255-1.338,83.759-42.983,128.766-38.065,30.4,3.322,54.624,27.3,84.127,35.355,26.472,7.232,56.367.269,76.979-17.828" transform="translate(-1126.42 -573.688)"/><g transform="translate(364.36 23.785)"><path class="b" d="M1732.713,623.777a.609.609,0,0,1-.4-.761l2.732-8.9-9.222,1.288a.609.609,0,0,1-.169-1.206l10.168-1.42a.609.609,0,0,1,.666.782l-3.013,9.815a.609.609,0,0,1-.761.4Z" transform="translate(-1725.128 -612.771)"/></g></g><g transform="translate(361.164)"><path class="b" d="M1765.825,601.541h13.421v-1.217h-13.421A7.341,7.341,0,0,1,1765.825,601.541Z" transform="translate(-1737.863 -580.242)"/><path class="b" d="M1764.092,586.925l9.49-9.49-.861-.861-9.49,9.49A7.5,7.5,0,0,1,1764.092,586.925Z" transform="translate(-1736.847 -570.946)"/><path class="b" d="M1762.072,609.519c-.145.145-.3.278-.452.409l9.489,9.489.861-.861-9.49-9.489C1762.35,609.221,1762.218,609.374,1762.072,609.519Z" transform="translate(-1736.217 -583.664)"/><path class="b" d="M1752.878,613.271v13.422h1.217V613.271A7.393,7.393,0,0,1,1752.878,613.271Z" transform="translate(-1732.795 -585.309)"/><path class="b" d="M1733.3,600.325h-13.421v1.217H1733.3A7.333,7.333,0,0,1,1733.3,600.325Z" transform="translate(-1719.878 -580.242)"/><path class="b" d="M1739.027,586.473c.145-.146.3-.278.452-.408l-9.49-9.49-.86.861,9.489,9.489C1738.749,586.771,1738.881,586.618,1739.027,586.473Z" transform="translate(-1723.499 -570.946)"/><path class="b" d="M1754.095,580.745v-13.42h-1.217v13.42A7.366,7.366,0,0,1,1754.095,580.745Z" transform="translate(-1732.795 -567.325)"/></g></g><g transform="translate(1366.356 725.953) rotate(-41)"><path class="c" d="M1603.857,775.866l69.445,69.445H1533.246l70.611-69.445m.007-1.714-73.591,72.376H1676.24l-72.376-72.376Z" transform="translate(-1530.273 -774.152)"/></g></g></svg>