<svg xmlns="http://www.w3.org/2000/svg" width="120.361" height="20" viewBox="0 0 120.361 20"><defs><style>.a{fill:#bfbdc1;}</style></defs><g transform="translate(-19 -544)"><g transform="translate(19 544)"><g transform="translate(20.06 0)"><path class="a" d="M395.484,325.9H394.2v1.785h1.284a2.072,2.072,0,0,0,1.2-.241.876.876,0,0,0,.02-1.3A2.106,2.106,0,0,0,395.484,325.9Z" transform="translate(-339.335 -315.128)"/><path class="a" d="M447.1,315.95h1.986l-1-3.45Z" transform="translate(-381.624 -304.416)"/><path class="a" d="M396.387,310.544a.781.781,0,0,0,.281-.6.832.832,0,0,0-.16-.5.987.987,0,0,0-.441-.281,3.828,3.828,0,0,0-.863-.06h-1v1.665h1.184A1.613,1.613,0,0,0,396.387,310.544Z" transform="translate(-339.335 -301.698)"/><path class="a" d="M225.308,310.8a1.116,1.116,0,0,0-.5-.421,3.418,3.418,0,0,0-1.284-.181H222.7v4.734h.782a2.885,2.885,0,0,0,1.324-.241,1.522,1.522,0,0,0,.682-.8,3.427,3.427,0,0,0,.241-1.384,3.733,3.733,0,0,0-.1-.963A2.3,2.3,0,0,0,225.308,310.8Z" transform="translate(-202.239 -302.577)"/><path class="a" d="M120.7,272.2v20H221v-20Zm15.547,14.724h-3.129v-3.671h-2.929v3.671h-3.109v-9.468h3.109v3.21h2.929v-3.21h3.129ZM147.019,284a4.947,4.947,0,0,1-.682,1.384,3.113,3.113,0,0,1-.863.843,4.688,4.688,0,0,1-1.224.5,6.91,6.91,0,0,1-1.846.2h-4.233v-9.468h4.333a6.391,6.391,0,0,1,2.528.461,3.443,3.443,0,0,1,1.665,1.545,5.383,5.383,0,0,1,.6,2.648A6.106,6.106,0,0,1,147.019,284Zm9.087-4.193h-4.313v1.5h3.45v2.287h-3.45v3.33H148.7v-9.468h7.4Zm10.191,4.935a3.754,3.754,0,0,1-.863,1.2,3.969,3.969,0,0,1-1.424.923,5.169,5.169,0,0,1-1.926.321,5.846,5.846,0,0,1-2.006-.321,4.489,4.489,0,0,1-1.545-.9,4.387,4.387,0,0,1-.983-1.364,5.324,5.324,0,0,1-.5-2.367,5.7,5.7,0,0,1,.361-2.046,4.8,4.8,0,0,1,.983-1.6,4.39,4.39,0,0,1,1.4-.963,5.35,5.35,0,0,1,2.167-.4,6.267,6.267,0,0,1,1.946.3,3.566,3.566,0,0,1,1.484.9,4.491,4.491,0,0,1,.9,1.364,6.09,6.09,0,0,1,.281,1.3h-2.949a1.69,1.69,0,0,0-.522-1.1,1.522,1.522,0,0,0-1.083-.381,1.672,1.672,0,0,0-1.344.642,3.32,3.32,0,0,0-.522,2.066,4.1,4.1,0,0,0,.221,1.5,1.591,1.591,0,0,0,.622.762,1.9,1.9,0,0,0,1,.241,1.534,1.534,0,0,0,1.143-.4,1.7,1.7,0,0,0,.5-1.163h3.009A4.879,4.879,0,0,1,166.3,284.738Zm14.8.461a2.4,2.4,0,0,1-.562.822,3.026,3.026,0,0,1-.7.481,4.606,4.606,0,0,1-.923.321,8.894,8.894,0,0,1-1.565.1h-4.774v-9.468h4.714a5.128,5.128,0,0,1,2.588.5,2.125,2.125,0,0,1,1.083,1.926,2.32,2.32,0,0,1-1.244,2.006,2.161,2.161,0,0,1,1.163.782,2.35,2.35,0,0,1,.421,1.424A2.773,2.773,0,0,1,181.1,285.2Zm7.964,1.725-.361-1.244h-3.109l-.361,1.244h-3.049l3.41-9.468h3.17l3.41,9.468Zm13.6,0H199.7l-3.21-4.935v4.935h-3.009v-9.468h2.909l3.29,5.075v-5.075h2.989Zm8.2,0-2.267-3.771-.843.822v2.949h-3.009v-9.468h3.009v3.129l2.828-3.129h3.671l-3.49,3.571,3.852,5.9Z" transform="translate(-120.7 -272.2)"/></g><g transform="translate(0 0)"><path class="a" d="M24.211,332.5V327H20.7v9.007h9.027V332.5Z" transform="translate(-20.7 -316.007)"/><path class="a" d="M24.211,275.69h5.517V272.2H20.7v8.987h3.511Z" transform="translate(-20.7 -272.2)"/><path class="a" d="M81.217,332.5H75.7v3.51h9.027V327H81.217Z" transform="translate(-64.667 -316.007)"/><path class="a" d="M75.7,272.2v3.49h5.517v5.5h3.511V272.2Z" transform="translate(-64.667 -272.2)"/></g><rect class="a" width="6.018" height="5.998" transform="translate(7.021 7.001)"/></g></g></svg>