<?xml version="1.0" encoding="utf-8"?>
<!-- Generator: Adobe Illustrator 24.0.1, SVG Export Plug-In . SVG Version: 6.00 Build 0)  -->
<svg version="1.1" xmlns="http://www.w3.org/2000/svg" xmlns:xlink="http://www.w3.org/1999/xlink" x="0px" y="0px"
	 viewBox="0 0 492 492" style="enable-background:new 0 0 492 492;" xml:space="preserve">
<style type="text/css">
	.st0{opacity:0.497;fill:url(#Path_1628_1_);enable-background:new    ;}
	.st1{clip-path:url(#SVGID_2_);}
	.st2{display:none;}
	.st3{display:inline;}
	.st4{fill:#0E106A;}
	.st5{display:inline;fill:#0E106A;}
</style>
<g id="Layer_2">
	<g id="Group_1862" transform="translate(741.808 2919.427) rotate(180)">
		
			<linearGradient id="Path_1628_1_" gradientUnits="userSpaceOnUse" x1="260.851" y1="2192.3486" x2="254.9053" y2="2184.3252" gradientTransform="matrix(48 0 0 48 -11988.1934 -102561.5625)">
			<stop  offset="0" style="stop-color:#FFFFFF"/>
			<stop  offset="1" style="stop-color:#FFA600"/>
		</linearGradient>
		<path id="Path_1628" class="st0" d="M268.8,2624.5l396.1,270.9l49.2-445.2L268.8,2624.5z"/>
		<g id="Group_1782" transform="translate(184.807 279.427)">
			<g>
				<g>
					<defs>
						<polygon id="SVGID_1_" points="84.1,2345.4 480.1,2616.2 529.3,2171 						"/>
					</defs>
					<clipPath id="SVGID_2_">
						<use xlink:href="#SVGID_1_"  style="overflow:visible;"/>
					</clipPath>
					<g id="Group_1781" transform="translate(0 0)" class="st1">
						
							<image style="overflow:visible;" width="258" height="431" xlink:href="../icon/DE219773.png"  transform="matrix(1.6594 0 0 1.6594 181.8547 2036.0613)">
						</image>
					</g>
				</g>
			</g>
		</g>
	</g>
</g>
<g id="Layer_1" class="st2">
	<g id="Layer_1_1_" class="st3">
		<path class="st4" d="M356,179.5c0-8.7-6.6-15.9-15.1-16.7c-8.7-0.9-16.5,5-18.2,13.4c-1.7,8.6,3.3,16.9,11.6,19.4v11.4
			c-1.7-0.5-3.5-0.7-5.4-0.9c-5-9.8-15-16-26-16h-9.4v-6.5c0-4.8-3.9-8.7-8.7-8.7H268v-6.2c0-2.7-2.2-4.9-4.9-4.9s-4.9,2.2-4.9,4.9
			v6.2h-16.5c-4.8,0-8.7,3.9-8.7,8.7v6.5h-9.4c-16.1,0-29.2,13.1-29.2,29.2v48c0,16.1,13.1,29.2,29.2,29.2h79
			c16.1,0,29.2-13.1,29.2-29.2v-4c11.5-2,20.6-10.6,23.2-21.9c2.6-11.4-1.8-23.1-11.2-29.8v-15.9C351.1,193.4,356,186.8,356,179.5z
			 M243,184.6h40.8v5.4H243L243,184.6L243,184.6z M322.3,267.2c0,10.8-8.7,19.4-19.4,19.4h-79c-10.8,0-19.4-8.7-19.4-19.4v-47.9
			c0-10.8,8.7-19.4,19.4-19.4h79c10.8,0,19.4,8.7,19.4,19.4V267.2z M332.1,253.2v-36.9c8.4,2.2,14.2,9.8,14.2,18.4
			C346.2,243.5,340.4,251,332.1,253.2L332.1,253.2z M332.1,179.5c0-3.9,3.2-7.1,7.1-7.1c3.9,0,7.1,3.2,7.1,7.1s-3.2,7.1-7.1,7.1
			C335.2,186.5,332.1,183.4,332.1,179.5L332.1,179.5z"/>
		<path class="st4" d="M229.3,218.5h-0.6c-6.7,0-12.1,5.5-12.2,12.2v6.6c0,2.7,2.2,4.9,4.9,4.9h15.1c2.7,0,4.9-2.2,4.9-4.9v-6.6
			C241.4,224,236,218.5,229.3,218.5z M231.8,232.5h-5.4v-1.7c0-1.3,1.1-2.4,2.4-2.4h0.6c1.3,0,2.4,1.1,2.4,2.4v1.7H231.8z"/>
		<path class="st4" d="M298,218.5h-0.6c-6.7,0-12.1,5.5-12.2,12.2v6.6c0,2.7,2.2,4.9,4.9,4.9h15.1c2.7,0,4.9-2.2,4.9-4.9v-6.6
			C310.2,224,304.7,218.5,298,218.5z M300.4,232.5H295v-1.7c0-1.3,1.1-2.4,2.4-2.4h0.6c1.3,0,2.4,1.1,2.4,2.4v1.7H300.4z"/>
		<path class="st4" d="M278.5,253h-30.3c-2.7,0-4.9,2.2-4.9,4.9v0.6c0,10.8,8.7,19.4,19.4,19.4h1.1c10.8,0,19.4-8.7,19.4-19.4v-0.6
			C283.3,255.2,281.2,253,278.5,253z M263.9,268.1h-1.1c-3.7,0-7.1-2.1-8.7-5.4h18.6C271,266.1,267.7,268.1,263.9,268.1z"/>
	</g>
</g>
<g id="Layer_3">
	<path class="st4" d="M349,147.7c-0.6,0-1.1,0-1.7,0c0,0,0,0,0,0h0c-35.7-0.4-65.5,27.4-67.4,63.1c-0.1,1.1-0.1,9.7-0.1,12.7
		l-11.9,31.2c-0.8,2-0.5,4.2,0.7,5.9c1.2,1.7,3.2,2.8,5.3,2.8h15v17.1c0,4.8,1.9,9.4,5.4,12.7c3.4,3.3,8.1,5.1,12.8,5
		c0.4,0,3.4,0,18.4-0.1h0c2.4,0,4.5,1.5,5.2,3.8v21.7c0,2,1.6,3.6,3.6,3.6h56.4c1,0,1.9-0.4,2.6-1.1s1-1.7,1-2.7
		c0-0.4-2.2-38.7,0-62.1c0.5-5.3,5.2-17.9,7.1-22.6c9.9-19,9.3-41.8-1.5-60.3C389.3,160,370.1,148.4,349,147.7z M392.7,180.4h-23.9
		c-9.9,0-17.9-8-17.9-17.9V155C368,156.3,383.6,165.7,392.7,180.4z M316,163.2v7.7c0,8-6.5,14.5-14.5,14.5h-7.1
		C299.5,176.2,307,168.6,316,163.2z M287.3,208h9.5c4.2,0,7.6,3.4,7.6,7.6c0,4.2-3.4,7.6-7.6,7.6h-9.9c0-5.5,0-11.4,0.1-12.1
		C287.1,210.1,287.1,209.1,287.3,208z M306.8,290.9c-2.8,0.1-5.6-1-7.6-2.9c-2-2-3.2-4.7-3.2-7.5v-20.7c0-2-1.6-3.6-3.6-3.6H275
		l9.8-25.5h12.1c8.2,0,14.9-6.7,14.9-14.9c0-8.2-6.7-14.9-14.9-14.9h-8.3c0.6-2.8,1.5-5.5,2.5-8.2h10.5c12,0,21.7-9.7,21.7-21.7
		v-11.4c6.5-2.7,13.4-4.3,20.4-4.6v7.6c0,13.9,11.2,25.1,25.1,25.1h27.7c3,6.7,4.5,14,4.7,21.4l-26.2,6.5
		c-10.9-10.4-27.1-12.6-40.4-5.5c-13.3,7.1-20.5,21.8-18,36.6c2.5,14.8,14.2,26.3,29.1,28.6c-2.4,9.1-10.7,15.5-20.1,15.6h-0.1
		C313.8,290.8,307.6,290.9,306.8,290.9z M369.2,261.4l-7.9-11.6c4.5-5.2,4.4-13-0.2-18.1c-4.6-5.1-12.3-6.1-18-2.2
		s-7.7,11.4-4.6,17.6c3.1,6.2,10.3,9.1,16.8,6.9l7.9,11.6c-13,6.6-28.9,1.9-36.3-10.7c-7.4-12.6-3.8-28.7,8.3-36.9
		c12.1-8.2,28.4-5.6,37.4,5.9C381.6,235.2,380.1,251.7,369.2,261.4z M356.9,243.3l-3.1-4.5c-1.1-1.6-3.4-2.1-5-1
		c-1.6,1.1-2.1,3.4-1,5l3.1,4.5c0,0-0.1,0-0.1,0c-2.9,0-5.4-1.9-6.3-4.7c-0.8-2.8,0.2-5.8,2.6-7.4c2.4-1.6,5.6-1.5,7.8,0.4
		C357.2,237.5,358,240.6,356.9,243.3L356.9,243.3z M349.5,302.7c0-1.4,1.1-2.5,2.5-2.5c1.4,0,2.5,1.1,2.5,2.5c0,1.4-1.1,2.5-2.5,2.5
		C350.6,305.2,349.5,304.1,349.5,302.7L349.5,302.7z M394.7,235.7c-0.7,1.8-7,17.4-7.7,24.8c-1.8,19.8-0.7,49-0.2,59.4h-31.1v-8.1
		c4.3-1.7,6.8-6.3,6-10.9c-0.9-4.6-4.9-7.9-9.6-7.9c-4.7,0-8.7,3.3-9.6,7.9c-0.9,4.6,1.6,9.2,6,10.9v8.1h-10.6v-18.6
		c0-0.3,0-0.6-0.1-0.9c-0.4-1.6-1.1-3-2-4.3c8.8-3.5,15.3-11.2,17.2-20.5c5-0.3,10-1.7,14.4-4.1l4.3,6.3v8.2
		c-4.3,1.7-6.9,6.3-6,10.9c0.9,4.6,4.9,7.9,9.6,7.9c4.7,0,8.7-3.3,9.6-7.9c0.9-4.6-1.6-9.2-5.9-10.9v-9.3c0-0.7-0.2-1.4-0.6-2
		l-4.9-7.2c13.5-11.3,16.4-30.9,6.7-45.7l20.7-5.1c-0.8,6.6-2.8,12.9-5.9,18.8C394.8,235.5,394.7,235.6,394.7,235.7z M375.2,292.4
		c1.4,0,2.5,1.1,2.5,2.5c0,1.4-1.1,2.5-2.5,2.5c-1.4,0-2.5-1.1-2.5-2.5C372.7,293.6,373.8,292.4,375.2,292.4L375.2,292.4z"/>
	<path class="st4" d="M338.4,262.2c3.8,2.2,8.1,3.4,12.5,3.4c0.3,0,0.6,0,1,0c2-0.1,3.5-1.8,3.5-3.8c-0.1-2-1.8-3.5-3.7-3.5
		c-3.4,0.1-6.7-0.7-9.6-2.4c-1.1-0.7-2.5-0.7-3.6,0c-1.1,0.6-1.8,1.8-1.8,3.1C336.5,260.4,337.2,261.6,338.4,262.2L338.4,262.2z"/>
	<path class="st4" d="M373.2,230c-0.6-1.2-1.2-2.3-2-3.4c-0.9-1.2-1.8-2.4-2.9-3.5c-0.9-0.9-2.3-1.3-3.5-0.9
		c-1.2,0.3-2.2,1.3-2.5,2.6c-0.3,1.3,0,2.6,1,3.5c0.8,0.8,1.5,1.6,2.1,2.5c0.5,0.8,1,1.6,1.4,2.4c1.5,3,2,6.4,1.6,9.7
		c-0.2,2,1.2,3.8,3.2,4c0.1,0,0.3,0,0.4,0c1.8,0,3.4-1.4,3.6-3.2c0.1-1,0.2-2,0.2-3C375.7,237,374.8,233.3,373.2,230z"/>
	<path class="st4" d="M336.1,220.8c-3.8,2.8-6.7,6.6-8.4,11c-0.5,1.2-0.3,2.6,0.5,3.6c0.8,1,2.1,1.5,3.4,1.3
		c1.3-0.2,2.4-1.1,2.8-2.3c1.2-3.1,3.3-5.8,6-7.8c1.6-1.2,1.9-3.4,0.8-5C340,219.9,337.8,219.6,336.1,220.8L336.1,220.8z"/>
	<path class="st4" d="M240.9,223.5c0-3,0-11.6-0.1-12.7c-2-35.7-31.7-63.6-67.5-63.1c-0.6,0-1.1,0-1.7,0
		c-21.1,0.7-40.3,12.3-50.8,30.6c-10.8,18.5-11.4,41.3-1.5,60.3c1.9,4.6,6.6,17.3,7.1,22.6c2.2,23.4,0,61.7,0,62.1
		c-0.1,1,0.3,2,1,2.7c0.7,0.7,1.6,1.1,2.6,1.1h56.4c2,0,3.6-1.6,3.6-3.6v-21.7c0.7-2.2,2.8-3.8,5.2-3.8h0c15,0.1,18,0.1,18.4,0.1
		c4.8,0.1,9.4-1.7,12.8-5c3.4-3.3,5.4-7.9,5.4-12.7v-17.1h15c2.1,0,4.1-1,5.3-2.8c1.2-1.7,1.5-4,0.7-5.9L240.9,223.5z M228.1,256.1
		c-2,0-3.6,1.6-3.6,3.6v20.7c0,2.8-1.1,5.5-3.2,7.5c-2,2-4.8,3-7.6,2.9c-0.8,0-7.1-0.1-18.6-0.1h-0.1c-10.8,0-19.8-8.3-20.7-19.1
		c-0.2-2-1.9-3.5-3.9-3.3c-2,0.2-3.5,1.9-3.3,3.9c0.9,10.6,7.8,19.8,17.7,23.8c-0.9,1.3-1.6,2.8-2,4.3c-0.1,0.3-0.1,0.6-0.1,0.9
		v18.6h-49c0.5-10.4,1.6-39.6-0.2-59.4c-0.7-7.4-7-23-7.7-24.8c0-0.1-0.1-0.2-0.1-0.3c-8.8-16.8-8.4-37.1,1.3-53.5
		c9.3-16.1,26.2-26.4,44.8-27c0.5,0,1,0,1.5,0c31.9-0.4,58.5,24.4,60.2,56.3c0,0.7,0.1,7.2,0.1,12.9c0,0.4,0.1,0.9,0.2,1.3
		l11.7,30.7H228.1z"/>
</g>
<g id="Layer_4" class="st2">
	<path class="st5" d="M227.2,134.7c-7.6,0-13.8,6.2-13.8,13.8v27.7c0,2.9,0.9,5.7,2.6,8.1l-8.6,5.8h-3.2c-12.7,0-23,10.3-23,23v0.8
		c-5.5,1.9-9.2,7.1-9.2,13h9.2c0-2.5,2.1-4.6,4.6-4.6s4.6,2.1,4.6,4.6h9.2c0-5.8-3.7-11-9.2-13V213c0-7.6,6.2-13.8,13.8-13.8v32.3
		c0,0.7,0.2,1.4,0.5,2.1l9.2,18.4c0.8,1.6,2.4,2.5,4.1,2.5h64.5c1.8,0,3.4-1,4.1-2.5l9.2-18.4c0.3-0.6,0.5-1.3,0.5-2.1v-32.3
		c7.6,0,13.8,6.2,13.8,13.8v0.8c-5.5,1.9-9.2,7.1-9.2,13h9.2c0-2.5,2.1-4.6,4.6-4.6c2.5,0,4.6,2.1,4.6,4.6h9.2c0-5.8-3.7-11-9.2-13
		V213c0-12.7-10.3-23-23-23h-3.2l-8.6-5.8c1.7-2.3,2.6-5.2,2.7-8.1v-27.7c0-7.6-6.2-13.8-13.8-13.8h-18.4v-10.1
		c7.2-2.5,11-10.4,8.4-17.6c-2.5-7.2-10.4-11-17.6-8.4c-7.2,2.5-11,10.4-8.4,17.6c1.4,3.9,4.5,7,8.4,8.4v10.1L227.2,134.7z
		 M250.3,107c2.5,0,4.6,2.1,4.6,4.6c0,2.5-2.1,4.6-4.6,4.6s-4.6-2.1-4.6-4.6C245.7,109.1,247.7,107,250.3,107z M279.7,245.3h-58.8
		l-4.6-9.2h68L279.7,245.3z M232.5,226.8c2.5-9.8,12.5-15.8,22.3-13.3c6.5,1.7,11.6,6.7,13.3,13.3H232.5z M287.2,226.8h-9.6
		c-2.5-15-16.8-25.2-31.8-22.7c-11.6,2-20.7,11-22.7,22.7h-9.6v-29.8L224,190h52.5l10.6,7.1V226.8z M259.5,180.8h-18.4v-4.6h18.4
		V180.8z M277.9,148.5v27.7c0,2.5-2.1,4.6-4.6,4.6h-4.6v-9.2c0-2.5-2.1-4.6-4.6-4.6h-27.7c-2.5,0-4.6,2.1-4.6,4.6v9.2h-4.6
		c-2.5,0-4.6-2.1-4.6-4.6v-27.7c0-2.5,2.1-4.6,4.6-4.6h46.1C275.9,143.9,277.9,146,277.9,148.5z"/>
	<path class="st5" d="M231.9,153.1h9.2v9.2h-9.2V153.1z"/>
	<path class="st5" d="M259.5,153.1h9.2v9.2h-9.2V153.1z"/>
	<path class="st5" d="M356.3,125.5h-4.6v9.2h4.6c7.6,0,13.8,6.2,13.8,13.8v124.4H130.5V148.5c0-7.6,6.2-13.8,13.8-13.8h4.6v-9.2
		h-4.6c-12.7,0-23,10.3-23,23V296c0,12.7,10.3,23,23,23h68.5l-3.5,27.7h-9.8c-7.6,0-13.8,6.2-13.8,13.8c0,7.6,6.2,13.8,13.8,13.8
		H301c7.6,0,13.8-6.2,13.8-13.8c0-7.6-6.2-13.8-13.8-13.8h-9.8l-3.5-27.7h68.5c12.7,0,23-10.3,23-23V148.5
		C379.3,135.8,369,125.5,356.3,125.5z M305.6,360.5c0,2.5-2.1,4.6-4.6,4.6H199.6c-2.5,0-4.6-2.1-4.6-4.6c0-2.5,2.1-4.6,4.6-4.6H301
		C303.5,355.9,305.6,358,305.6,360.5z M281.9,346.7h-63.3l3.5-27.7h56.4L281.9,346.7z M356.3,309.8h-212c-7.6,0-13.8-6.2-13.8-13.8
		v-13.8h239.7V296C370.1,303.6,363.9,309.8,356.3,309.8z"/>
	<path class="st5" d="M282.5,125.5h32.3v9.2h-32.3V125.5z"/>
	<path class="st5" d="M185.8,125.5H218v9.2h-32.3V125.5z"/>
	<path class="st5" d="M342.5,291.4h9.2v9.2h-9.2V291.4z"/>
	<path class="st5" d="M324,125.5h18.4c2.5,0,4.6-2.1,4.6-4.6v-18.4c0-2.5-2.1-4.6-4.6-4.6H324c-2.5,0-4.6,2.1-4.6,4.6v18.4
		C319.4,123.4,321.5,125.5,324,125.5z M328.6,107h9.2v9.2h-9.2V107z"/>
	<path class="st5" d="M327.3,156.4l9.2-9.2c0.9-0.9,1.4-2,1.4-3.3v-9.2h-9.2v7.3l-6.5,6.5h-25.7v9.2H324
		C325.2,157.7,326.4,157.2,327.3,156.4z"/>
	<path class="st5" d="M342.5,226.8h18.4v9.2h-18.4V226.8z"/>
	<path class="st5" d="M342.5,245.3h18.4v9.2h-18.4V245.3z"/>
	<path class="st5" d="M347.1,166.9c-7.6,0-13.8,6.2-13.8,13.8c0,7.6,6.2,13.8,13.8,13.8c7.6,0,13.8-6.2,13.8-13.8
		C360.9,173.1,354.7,166.9,347.1,166.9z M347.1,185.4c-2.5,0-4.6-2.1-4.6-4.6c0-2.5,2.1-4.6,4.6-4.6c2.5,0,4.6,2.1,4.6,4.6
		C351.7,183.3,349.6,185.4,347.1,185.4z"/>
	<path class="st5" d="M308.9,237.4l-6.5,6.5l9.2,9.2c0.9,0.9,2,1.4,3.3,1.4h18.4v-9.2h-16.5L308.9,237.4z"/>
	<path class="st5" d="M305.6,176.2H324v9.2h-18.4V176.2z"/>
	<path class="st5" d="M158.1,125.5h18.4c2.5,0,4.6-2.1,4.6-4.6v-18.4c0-2.5-2.1-4.6-4.6-4.6h-18.4c-2.5,0-4.6,2.1-4.6,4.6v18.4
		C153.5,123.4,155.6,125.5,158.1,125.5z M162.7,107h9.2v9.2h-9.2V107z"/>
	<path class="st5" d="M162.7,134.7v9.2c0,1.2,0.5,2.4,1.4,3.3l9.2,9.2c0.9,0.9,2,1.4,3.3,1.4h27.7v-9.2h-25.7l-6.5-6.5v-7.3H162.7z"
		/>
	<path class="st5" d="M139.7,226.8h18.4v9.2h-18.4V226.8z"/>
	<path class="st5" d="M139.7,245.3h18.4v9.2h-18.4V245.3z"/>
	<path class="st5" d="M139.7,180.8c0,7.6,6.2,13.8,13.8,13.8c7.6,0,13.8-6.2,13.8-13.8c0-7.6-6.2-13.8-13.8-13.8
		C145.9,166.9,139.7,173.1,139.7,180.8z M153.5,176.2c2.5,0,4.6,2.1,4.6,4.6c0,2.5-2.1,4.6-4.6,4.6c-2.5,0-4.6-2.1-4.6-4.6
		C148.9,178.2,151,176.2,153.5,176.2z"/>
	<path class="st5" d="M167.3,245.3v9.2h18.4c1.2,0,2.4-0.5,3.3-1.4l9.2-9.2l-6.5-6.5l-7.9,7.9H167.3z"/>
	<path class="st5" d="M176.5,176.2H195v9.2h-18.4V176.2z"/>
</g>
</svg>
