<?xml version="1.0" encoding="utf-8"?>
<!-- Generator: Adobe Illustrator 24.0.0, SVG Export Plug-In . SVG Version: 6.00 Build 0)  -->
<svg version="1.1" xmlns="http://www.w3.org/2000/svg" xmlns:xlink="http://www.w3.org/1999/xlink" x="0px" y="0px"
	 viewBox="0 0 569 569" style="enable-background:new 0 0 569 569;" xml:space="preserve">
<style type="text/css">
	.st0{opacity:0.497;fill:url(#Path_1628_1_);enable-background:new    ;}
	.st1{clip-path:url(#SVGID_2_);}
	.st2{fill:#0E106A;}
</style>
<g id="Layer_2">
	<g id="Group_1862" transform="translate(741.808 2919.427) rotate(180)">
		
			<linearGradient id="Path_1628_1_" gradientUnits="userSpaceOnUse" x1="1150.2644" y1="2245.4314" x2="1144.175" y2="2237.2139" gradientTransform="matrix(-48 0 0 48 55802.5898 -105050.0703)">
			<stop  offset="0" style="stop-color:#FFFFFF"/>
			<stop  offset="1" style="stop-color:#FFA600"/>
		</linearGradient>
		<path id="Path_1628" class="st0" d="M188,2585.1l405.6,277.8l50.3-456L188,2585.1z"/>
		<g id="Group_1782" transform="translate(184.807 279.427)">
			<g>
				<defs>
					<polygon id="SVGID_1_" points="3.2,2305.7 408.9,2583.5 459.2,2127.5 					"/>
				</defs>
				<clipPath id="SVGID_2_">
					<use xlink:href="#SVGID_1_"  style="overflow:visible;"/>
				</clipPath>
				<g id="Group_1781" transform="translate(0 0)" class="st1">
					
						<image style="overflow:visible;enable-background:new    ;" width="258" height="431" id="Rectangle_1871" xlink:href="EE163432.png"  transform="matrix(1.6992 0 0 1.6992 103.3808 1989.3246)">
					</image>
				</g>
			</g>
		</g>
	</g>
</g>
<g id="Layer_1">
	<path class="st2" d="M195,169.5l17.8,31.1c0.6,1.1,1.6,1.8,2.8,2.1l16.6,4.1l56.8,56.8l6.3-6.3l-57.7-57.7c-0.6-0.6-1.3-1-2.1-1.2
		l-15.9-4L204.4,168l13-13l26.5,15.1l4,15.9c0.2,0.8,0.6,1.5,1.2,2.1l57.7,57.7l6.3-6.3l-56.8-56.8l-4.1-16.6
		c-0.3-1.2-1.1-2.2-2.1-2.8l-31.1-17.8c-1.7-1-3.9-0.7-5.3,0.7l-17.8,17.8C194.3,165.6,194,167.7,195,169.5z"/>
	<path class="st2" d="M379.6,232.6l-97.7,97.7l-6.3-6.3l97.7-97.7L379.6,232.6z"/>
	<path class="st2" d="M264.8,333.7c-0.8-1.3-2.2-2.2-3.8-2.2h-26.6c-1.6,0-3,0.8-3.8,2.2l-13.3,22.2c-0.8,1.4-0.8,3.2,0,4.6
		l13.3,22.2c0.8,1.3,2.2,2.2,3.8,2.2H261c1.6,0,3-0.8,3.8-2.2l13.3-22.2c0.8-1.4,0.8-3.2,0-4.6L264.8,333.7z M258.5,375.9h-21.6
		l-10.7-17.8l10.7-17.8h21.6l10.7,17.8L258.5,375.9z"/>
	<path class="st2" d="M407.5,251.6c29.3,0.1,53.2-23.6,53.3-52.9c0-4.5-0.5-8.9-1.6-13.2c-0.6-2.4-3-3.8-5.4-3.2
		c-0.8,0.2-1.5,0.6-2.1,1.2L424.1,211l-21.9-7.3l-7.3-21.9l27.6-27.6c1.7-1.7,1.7-4.5,0-6.3c-0.6-0.6-1.3-1-2.1-1.2
		c-28.4-7.2-57.3,10-64.5,38.4c-1.1,4.3-1.6,8.7-1.6,13.2c0,3.5,0.4,7,1.1,10.4L258.1,306c-3.4-0.7-6.9-1.1-10.4-1.1
		c-29.4,0-53.3,23.9-53.3,53.3c0,29.4,23.9,53.3,53.3,53.3c29.4,0,53.3-23.9,53.3-53.3c0-3.5-0.4-7-1.1-10.4l23.3-23.3l10.2,10.2
		c1.7,1.7,4.5,1.7,6.3,0l2.2-2.2c1.9-1.9,5.1-1.9,7,0c1.9,1.9,1.9,5.1,0,7c0,0,0,0,0,0l-2.2,2.2c-1.7,1.7-1.7,4.5,0,6.3l53,53
		c13.9,14.1,36.6,14.2,50.7,0.2c14.1-13.9,14.2-36.6,0.2-50.7c-0.1-0.1-0.2-0.2-0.2-0.2l-53-53c-1.7-1.7-4.5-1.7-6.3,0l-2.2,2.2
		c-1.9,1.9-5.1,1.9-7,0c-1.9-1.9-1.9-5.1,0-7c0,0,0,0,0,0l2.2-2.2c1.7-1.7,1.7-4.5,0-6.3l-10.2-10.2l23.3-23.3
		C400.6,251.3,404.1,251.6,407.5,251.6z M425,402.6c-3.2,0-6.4-0.6-9.4-1.7l34.7-34.7c5.2,13.9-1.8,29.4-15.7,34.7
		C431.5,402,428.2,402.6,425,402.6z M374.7,287.2c-4.9,5.9-4.1,14.6,1.7,19.5c5.2,4.3,12.7,4.3,17.8,0l49.8,49.9
		c0.5,0.5,1,1.1,1.5,1.7l-38,38c-0.6-0.5-1.2-1-1.7-1.5l-49.9-49.9c4.9-5.9,4.1-14.6-1.7-19.5c-5.2-4.3-12.7-4.3-17.8,0l-7.1-7.1
		l38.2-38.1L374.7,287.2z M392.6,242.5L291.9,343.2c-1.1,1.1-1.5,2.7-1.2,4.2c6.1,23.9-8.4,48.3-32.3,54.3
		c-23.9,6.1-48.3-8.4-54.3-32.3c-6.1-23.9,8.4-48.3,32.3-54.3c7.2-1.8,14.8-1.8,22.1,0c1.5,0.4,3.1-0.1,4.2-1.2l100.7-100.7
		c1.1-1.1,1.5-2.7,1.2-4.2c-6-23.6,8.2-47.7,31.9-53.8c4.5-1.1,9.1-1.6,13.7-1.3l-23.4,23.4c-1.2,1.2-1.6,2.9-1.1,4.5l8.9,26.6
		c0.4,1.3,1.5,2.4,2.8,2.8l26.6,8.9c1.6,0.5,3.4,0.1,4.5-1.1l23.4-23.4c0.1,0.8,0.1,1.7,0.1,2.5c0.1,24.4-19.6,44.3-43.9,44.4
		c-3.8,0-7.5-0.4-11.2-1.4C395.3,241,393.7,241.4,392.6,242.5L392.6,242.5L392.6,242.5z"/>
	<path class="st2" d="M424,368.4l-6.3,6.3l-44.4-44.4l6.3-6.3L424,368.4z"/>
</g>
</svg>
