<svg xmlns="http://www.w3.org/2000/svg" width="41.435" height="50" viewBox="0 0 41.435 50"><defs><style>.a,.b,.c{fill:#bfbdc1;}.b{fill-rule:evenodd;}.c{stroke:#494d59;stroke-miterlimit:2.613;stroke-width:0.564px;}</style></defs><g transform="translate(-1.207 -1.505)"><path class="a" d="M35.019,1.977H12.488V39.25H35.019ZM12.253,1.5H35.491V39.721H12.017V1.5" transform="translate(-2.361)"/><g transform="translate(19.505 27.394)"><path class="b" d="M26.68,39.721h-.212L25.209,37.63a3.325,3.325,0,0,1-.592-1.589,1.229,1.229,0,0,1,.506-1.035,2.254,2.254,0,0,1,1.384-.379A2.505,2.505,0,0,1,27.956,35a1.163,1.163,0,0,1,.535,1.008,2.14,2.14,0,0,1-.229.893c-.152.327-.677,1.266-1.583,2.818" transform="translate(-24.617 -34.627)"/></g><g transform="translate(19.505 33.52)"><path class="b" d="M26.68,42.465h-.212l-1.258,2.091a3.323,3.323,0,0,0-.592,1.588,1.229,1.229,0,0,0,.506,1.035,2.249,2.249,0,0,0,1.384.379,2.505,2.505,0,0,0,1.448-.374,1.164,1.164,0,0,0,.535-1.008,2.137,2.137,0,0,0-.229-.893c-.152-.327-.677-1.266-1.583-2.818" transform="translate(-24.617 -42.465)"/></g><g transform="translate(21.634 33.139)"><path class="b" d="M27.447,42l-.106.183c.777.909,1.838,2.7,2.791,3.284a1.094,1.094,0,0,0,1.079.066,2.01,2.01,0,0,0,.965-.915,2.677,2.677,0,0,0,.432-1.43,1.091,1.091,0,0,0-.535-.952A1.865,1.865,0,0,0,31.249,42c-.337-.027-2.111-.03-3.8,0" transform="translate(-27.341 -41.978)"/></g><g transform="translate(21.634 29.172)"><path class="b" d="M27.447,40.547l-.106-.183c.777-.91,1.838-2.7,2.791-3.284a1.092,1.092,0,0,1,1.079-.066,2.006,2.006,0,0,1,.965.915,2.677,2.677,0,0,1,.432,1.43,1.09,1.09,0,0,1-.535.951,1.854,1.854,0,0,1-.825.237c-.337.027-2.111.029-3.8,0" transform="translate(-27.341 -36.902)"/></g><g transform="translate(15.952 33.139)"><path class="b" d="M25.234,42l.106.183c-.776.909-1.838,2.7-2.791,3.284a1.092,1.092,0,0,1-1.078.066,2.021,2.021,0,0,1-.966-.915,2.669,2.669,0,0,1-.431-1.43,1.092,1.092,0,0,1,.534-.952A1.865,1.865,0,0,1,21.434,42c.337-.027,2.11-.03,3.8,0" transform="translate(-20.072 -41.978)"/></g><g transform="translate(15.952 29.172)"><path class="b" d="M25.234,40.547l.106-.183c-.776-.91-1.838-2.7-2.791-3.284a1.09,1.09,0,0,0-1.078-.066,2.017,2.017,0,0,0-.966.915,2.669,2.669,0,0,0-.431,1.43,1.091,1.091,0,0,0,.534.951,1.855,1.855,0,0,0,.826.237c.337.027,2.11.029,3.8,0" transform="translate(-20.072 -36.902)"/></g><g transform="translate(27.317 23.02)"><path class="b" d="M35.9,32.2h-.132l-.782-1.3a2.068,2.068,0,0,1-.369-.987.767.767,0,0,1,.315-.644,1.406,1.406,0,0,1,.861-.235,1.558,1.558,0,0,1,.9.233.726.726,0,0,1,.333.627,1.341,1.341,0,0,1-.141.556c-.1.2-.422.786-.985,1.751" transform="translate(-34.612 -29.031)"/></g><g transform="translate(27.317 26.829)"><path class="b" d="M35.9,33.9h-.132l-.782,1.3a2.068,2.068,0,0,0-.369.987.767.767,0,0,0,.315.644,1.406,1.406,0,0,0,.861.235,1.552,1.552,0,0,0,.9-.233.726.726,0,0,0,.333-.627,1.344,1.344,0,0,0-.141-.556c-.1-.2-.422-.786-.985-1.751" transform="translate(-34.612 -33.904)"/></g><g transform="translate(28.641 26.591)"><path class="b" d="M36.372,33.612l-.066.113a11.149,11.149,0,0,0,1.735,2.042.684.684,0,0,0,.671.041,1.257,1.257,0,0,0,.6-.57,1.649,1.649,0,0,0,.268-.888.68.68,0,0,0-.331-.592,1.172,1.172,0,0,0-.514-.147c-.209-.016-1.312-.017-2.363,0" transform="translate(-36.306 -33.6)"/></g><g transform="translate(28.641 24.126)"><path class="b" d="M36.372,32.711l-.066-.113a11.123,11.123,0,0,1,1.735-2.042.684.684,0,0,1,.671-.041,1.259,1.259,0,0,1,.6.569,1.65,1.65,0,0,1,.268.889.68.68,0,0,1-.331.592,1.172,1.172,0,0,1-.514.147c-.209.016-1.312.017-2.363,0" transform="translate(-36.306 -30.446)"/></g><g transform="translate(25.11 26.591)"><path class="b" d="M35,33.612l.065.113a11.088,11.088,0,0,1-1.735,2.042.682.682,0,0,1-.67.041,1.255,1.255,0,0,1-.6-.57,1.654,1.654,0,0,1-.267-.888.679.679,0,0,1,.331-.592,1.176,1.176,0,0,1,.514-.147c.21-.016,1.311-.017,2.364,0" transform="translate(-31.788 -33.6)"/></g><g transform="translate(25.11 24.126)"><path class="b" d="M35,32.711l.065-.113a11.063,11.063,0,0,0-1.735-2.042.682.682,0,0,0-.67-.041,1.257,1.257,0,0,0-.6.569,1.655,1.655,0,0,0-.267.889.679.679,0,0,0,.331.592,1.176,1.176,0,0,0,.514.147c.21.016,1.311.017,2.364,0" transform="translate(-31.788 -30.446)"/></g><g transform="translate(13.161 23.02)"><path class="b" d="M17.784,32.2h-.131l-.783-1.3a2.065,2.065,0,0,1-.368-.987.767.767,0,0,1,.315-.644,1.4,1.4,0,0,1,.861-.235,1.555,1.555,0,0,1,.9.233.725.725,0,0,1,.334.627,1.343,1.343,0,0,1-.142.556q-.142.3-.985,1.751" transform="translate(-16.501 -29.031)"/></g><g transform="translate(13.161 26.829)"><path class="b" d="M17.784,33.9h-.131l-.783,1.3a2.065,2.065,0,0,0-.368.987.767.767,0,0,0,.315.644,1.4,1.4,0,0,0,.861.235,1.549,1.549,0,0,0,.9-.233.725.725,0,0,0,.334-.627,1.346,1.346,0,0,0-.142-.556q-.142-.3-.985-1.751" transform="translate(-16.501 -33.904)"/></g><g transform="translate(14.485 26.591)"><path class="b" d="M18.261,33.612l-.066.113a11.088,11.088,0,0,0,1.735,2.042.683.683,0,0,0,.67.041,1.255,1.255,0,0,0,.6-.57,1.656,1.656,0,0,0,.268-.888.68.68,0,0,0-.331-.592,1.172,1.172,0,0,0-.514-.147c-.209-.016-1.311-.017-2.362,0" transform="translate(-18.195 -33.6)"/></g><g transform="translate(14.485 24.126)"><path class="b" d="M18.261,32.711l-.066-.113a11.062,11.062,0,0,1,1.735-2.042.683.683,0,0,1,.67-.041,1.257,1.257,0,0,1,.6.569,1.657,1.657,0,0,1,.268.889.68.68,0,0,1-.331.592,1.173,1.173,0,0,1-.514.147c-.209.016-1.311.017-2.362,0" transform="translate(-18.195 -30.446)"/></g><g transform="translate(10.954 26.591)"><path class="b" d="M16.886,33.612l.066.113a11.088,11.088,0,0,1-1.735,2.042.683.683,0,0,1-.67.041,1.255,1.255,0,0,1-.6-.57,1.654,1.654,0,0,1-.267-.888.679.679,0,0,1,.331-.592,1.176,1.176,0,0,1,.514-.147c.209-.016,1.311-.017,2.362,0" transform="translate(-13.678 -33.6)"/></g><g transform="translate(10.954 24.126)"><path class="b" d="M16.886,32.711l.066-.113a11.062,11.062,0,0,0-1.735-2.042.683.683,0,0,0-.67-.041,1.257,1.257,0,0,0-.6.569,1.655,1.655,0,0,0-.267.889.679.679,0,0,0,.331.592,1.176,1.176,0,0,0,.514.147c.209.016,1.311.017,2.362,0" transform="translate(-13.678 -30.446)"/></g><g transform="translate(18.056 19.153)"><path class="b" d="M26.121,26.649a1.022,1.022,0,0,0-.553.254c-.532.646-1.545,1.192-2.245.743a1.168,1.168,0,0,1-.4-.391A.794.794,0,0,1,23,26.323c.125-.168.191-.253.19-.258a4.874,4.874,0,0,0-.32-.467l-.088-.2c-.166-.85,1.047-1.543,1.736-1.189a3.106,3.106,0,0,1,.6.345c.379.32.659.718,1.106.75.407.027.931-.86,1.562-1.131.744-.318,1.87.286,1.721,1.189l-.089.2a4.946,4.946,0,0,0-.319.467s.064.09.19.258a.8.8,0,0,1,.071.931,1.191,1.191,0,0,1-.4.391,1.876,1.876,0,0,1-2.282-.69.649.649,0,0,0-.555-.271" transform="translate(-22.764 -24.084)"/></g><g transform="translate(18.056 15.069)"><path class="b" d="M26.121,21.424a1.022,1.022,0,0,0-.553.254c-.532.646-1.545,1.193-2.245.743a1.168,1.168,0,0,1-.4-.391A.794.794,0,0,1,23,21.1c.125-.168.191-.253.19-.258a4.873,4.873,0,0,0-.32-.467l-.088-.2c-.166-.849,1.047-1.542,1.736-1.188a3.106,3.106,0,0,1,.6.345c.379.32.659.718,1.106.75.407.027.931-.86,1.562-1.131.744-.318,1.87.286,1.721,1.189l-.089.2a4.946,4.946,0,0,0-.319.467s.064.09.19.258a.8.8,0,0,1,.071.931,1.191,1.191,0,0,1-.4.391,1.876,1.876,0,0,1-2.282-.69.649.649,0,0,0-.555-.271" transform="translate(-22.764 -18.859)"/></g><g transform="translate(18.056 10.883)"><path class="b" d="M26.121,16.067a1.022,1.022,0,0,0-.553.254c-.532.646-1.545,1.192-2.245.743a1.175,1.175,0,0,1-.4-.391A.8.8,0,0,1,23,15.741c.125-.168.191-.252.19-.258a4.926,4.926,0,0,0-.32-.466l-.088-.2c-.166-.85,1.047-1.542,1.736-1.19a3.155,3.155,0,0,1,.6.347c.379.32.659.718,1.106.749.407.027.931-.859,1.562-1.131.744-.317,1.87.287,1.721,1.19l-.089.2a5,5,0,0,0-.319.466c0,.005.064.09.19.258a.8.8,0,0,1,.071.932,1.2,1.2,0,0,1-.4.391,1.877,1.877,0,0,1-2.282-.69.648.648,0,0,0-.555-.271" transform="translate(-22.764 -13.503)"/></g><g transform="translate(18.056 6.747)"><path class="b" d="M26.121,10.776a1.022,1.022,0,0,0-.553.254c-.532.646-1.545,1.192-2.245.743a1.161,1.161,0,0,1-.4-.391.793.793,0,0,1,.071-.93c.125-.169.191-.254.19-.259a4.925,4.925,0,0,0-.32-.466l-.088-.206c-.166-.849,1.047-1.541,1.736-1.188a3.07,3.07,0,0,1,.6.346c.379.32.659.718,1.106.748.407.027.931-.858,1.562-1.13.744-.317,1.87.286,1.721,1.189l-.089.206a5,5,0,0,0-.319.466s.064.09.19.258a.8.8,0,0,1,.071.931,1.184,1.184,0,0,1-.4.391,1.878,1.878,0,0,1-2.282-.689.65.65,0,0,0-.555-.272" transform="translate(-22.764 -8.212)"/></g><g transform="translate(18.972 3.679)"><path class="b" d="M26.382,6.155a.732.732,0,0,0-.4.186c-.388.47-1.127.868-1.638.541a.86.86,0,0,1-.288-.285.578.578,0,0,1,.052-.678c.091-.123.138-.186.138-.188,0-.023-.092-.137-.232-.34l-.064-.15c-.121-.618.762-1.123,1.264-.865a2.273,2.273,0,0,1,.437.252c.276.233.48.523.805.546.3.02.679-.625,1.14-.824.54-.231,1.361.209,1.252.867l-.064.149a3.95,3.95,0,0,0-.233.339s.047.066.138.188a.58.58,0,0,1,.052.679.863.863,0,0,1-.29.285,1.368,1.368,0,0,1-1.663-.5.472.472,0,0,0-.4-.2" transform="translate(-23.936 -4.286)"/></g><g transform="translate(18.056 23.34)"><path class="b" d="M26.121,32a1.022,1.022,0,0,0-.553.254c-.532.646-1.545,1.192-2.245.743a1.161,1.161,0,0,1-.4-.391A.794.794,0,0,1,23,31.679c.125-.168.191-.253.19-.258a4.926,4.926,0,0,0-.32-.466l-.088-.206c-.166-.849,1.047-1.541,1.736-1.189a3.114,3.114,0,0,1,.6.347c.379.32.659.718,1.106.748.407.027.931-.859,1.562-1.13.744-.317,1.87.286,1.721,1.189l-.089.206a5,5,0,0,0-.319.466s.064.09.19.258a.8.8,0,0,1,.071.931,1.184,1.184,0,0,1-.4.391,1.877,1.877,0,0,1-2.282-.689A.648.648,0,0,0,26.121,32" transform="translate(-22.764 -29.441)"/></g><g transform="translate(21.438 2.867)"><path class="c" d="M27.09,3.247l.073,24.51" transform="translate(-27.09 -3.247)" style="&#10;    stroke: #bfbdc1;&#10;"/></g><g transform="translate(33.545 41.953)"><path class="b" d="M42.58,62.647V53.254H45.8l2.9,4.205V53.254h2.984v9.393l-2.945-.039L46.064,58.89l-.078,3.756" transform="translate(-42.58 -53.254)"/></g><path class="a" d="M36.62,62.647H39.8V53.254H36.62Z" transform="translate(-7.734 -11.301)"/><g transform="translate(8.923 41.954)"><path class="b" d="M11.079,53.255h3.4v4.671c0,.558-.318,2.2,1,2.235.985.03.892-1.541.892-2.235V53.255h3.362v5.31a4.329,4.329,0,0,1-1.049,3.219,4.622,4.622,0,0,1-3.319,1.022A4.494,4.494,0,0,1,12.093,61.8a4.417,4.417,0,0,1-1.014-3.233" transform="translate(-11.079 -53.255)"/></g><g transform="translate(1.207 41.954)"><path class="b" d="M8.456,60.232v2.427H1.207v-9.4h3.34v6.977" transform="translate(-1.207 -53.255)"/></g><g transform="translate(19.288 41.954)"><path class="b" d="M27.6,55.785v1.377h.983c.72,0,.914-.435.914-.668a.668.668,0,0,0-.714-.709ZM24.34,62.646V53.255h4.669a3.726,3.726,0,0,1,2.482.678,3.192,3.192,0,0,1,.288,4.834,2.619,2.619,0,0,1-1.856.829H27.588v3.051" transform="translate(-24.34 -53.255)"/></g></g></svg>