<?xml version="1.0" encoding="utf-8"?>
<!-- Generator: Adobe Illustrator 24.0.0, SVG Export Plug-In . SVG Version: 6.00 Build 0)  -->
<svg version="1.1" xmlns="http://www.w3.org/2000/svg" xmlns:xlink="http://www.w3.org/1999/xlink" x="0px" y="0px"
	 viewBox="0 0 475.4 475.4" style="enable-background:new 0 0 475.4 475.4;" xml:space="preserve">
<style type="text/css">
	.st0{opacity:0.497;fill:url(#Path_1628_1_);enable-background:new    ;}
	.st1{clip-path:url(#SVGID_2_);}
	.st2{fill:#0E106A;}
</style>
<g id="Layer_2">
	<g id="Group_1862" transform="translate(741.808 2919.427) rotate(180)">
		
			<linearGradient id="Path_1628_1_" gradientUnits="userSpaceOnUse" x1="1195.4207" y1="2291.4314" x2="1189.3313" y2="2283.2139" gradientTransform="matrix(-48 0 0 48 58056.5898 -107212.0703)">
			<stop  offset="0" style="stop-color:#FFFFFF"/>
			<stop  offset="1" style="stop-color:#FFA600"/>
		</linearGradient>
		<path id="Path_1628" class="st0" d="M274.5,2631.1l405.6,277.8l50.3-456L274.5,2631.1z"/>
		<g id="Group_1782" transform="translate(184.807 279.427)">
			<g>
				<defs>
					<polygon id="SVGID_1_" points="89.7,2351.7 495.4,2629.5 545.7,2173.5 					"/>
				</defs>
				<clipPath id="SVGID_2_">
					<use xlink:href="#SVGID_1_"  style="overflow:visible;"/>
				</clipPath>
				<g id="Group_1781" transform="translate(0 0)" class="st1">
					
						<image style="overflow:visible;enable-background:new    ;" width="258" height="431" id="Rectangle_1871" xlink:href="835820C5.png"  transform="matrix(1.6992 0 0 1.6992 189.8808 2035.3246)">
					</image>
				</g>
			</g>
		</g>
	</g>
</g>
<g id="Capa_1">
	<g>
		<path class="st2" d="M450.4,245.6c0,33.3-27.1,60.4-60.4,60.4h-82.4v-12.7H390c26.3,0,47.6-21.4,47.6-47.6
			c0-26.3-21.4-47.6-47.6-47.6c-2.5,0-5.1,0.2-8,0.7l-4.1,0.7l-2.3-3.4c-8.9-13.3-23.7-21.3-39.7-21.3c-1.6,0-3.2,0.1-4.8,0.2
			l-5.4,0.6l-1.4-5.2c-5.6-20.7-24.5-35.1-45.9-35.1c-26.3,0-47.6,21.4-47.6,47.6c0,3.3,0.4,6.6,1.1,9.9l0.7,3.1h-25.1
			c3.4-2.3,7.1-4.4,11.1-6c-0.3-2.4-0.4-4.7-0.4-7.1c0-33.3,27.1-60.4,60.4-60.4c25.4,0,48,16,56.6,39.6
			c19.3-0.2,37.2,8.5,48.8,23.6c2.1-0.2,4.1-0.3,6.1-0.3C423.3,185.2,450.4,212.3,450.4,245.6z M119.8,202.9h175.4v120.8H119.8
			V202.9z M143.5,214.6l64,46.9l64-46.9H143.5z M131.5,312h152v-91.7l-76,55.7l-76-55.7V312z"/>
	</g>
</g>
</svg>
