<?xml version="1.0" encoding="utf-8"?>
<!-- Generator: Adobe Illustrator 24.0.0, SVG Export Plug-In . SVG Version: 6.00 Build 0)  -->
<svg version="1.1" xmlns="http://www.w3.org/2000/svg" xmlns:xlink="http://www.w3.org/1999/xlink" x="0px" y="0px"
	 viewBox="0 0 512 512" style="enable-background:new 0 0 512 512;" xml:space="preserve">
<style type="text/css">
	.st0{opacity:0.497;fill:url(#Path_1628_1_);enable-background:new    ;}
	.st1{clip-path:url(#SVGID_2_);}
	.st2{fill:#0E106A;}
</style>
<g id="Layer_2">
	<g id="Group_1862" transform="translate(741.808 2919.427) rotate(180)">
		
			<linearGradient id="Path_1628_1_" gradientUnits="userSpaceOnUse" x1="1177.8108" y1="2273.4314" x2="1171.7214" y2="2265.2139" gradientTransform="matrix(-48 0 0 48 57174.5898 -106366.0703)">
			<stop  offset="0" style="stop-color:#FFFFFF"/>
			<stop  offset="1" style="stop-color:#FFA600"/>
		</linearGradient>
		<path id="Path_1628" class="st0" d="M237.8,2613.1l405.6,277.8l50.3-456L237.8,2613.1z"/>
		<g id="Group_1782" transform="translate(184.807 279.427)">
			<g>
				<defs>
					<polygon id="SVGID_1_" points="53,2333.7 458.6,2611.5 509,2155.5 					"/>
				</defs>
				<clipPath id="SVGID_2_">
					<use xlink:href="#SVGID_1_"  style="overflow:visible;"/>
				</clipPath>
				<g id="Group_1781" transform="translate(0 0)" class="st1">
					
						<image style="overflow:visible;enable-background:new    ;" width="258" height="431" id="Rectangle_1871" xlink:href="7023CFD5.png"  transform="matrix(1.6992 0 0 1.6992 153.1558 2017.3239)">
					</image>
				</g>
			</g>
		</g>
	</g>
</g>
<g id="Layer_1">
	<path class="st2" d="M404.1,292.3v-57.4c12.6-4.7,21.6-16.9,21.6-31.1c0-18.3-14.9-33.2-33.2-33.2c-9,0-17.2,3.6-23.2,9.4
		l-46.7-22.6c0.1-0.8,0.1-1.6,0.1-2.4c0-18.3-14.9-33.2-33.2-33.2s-33.2,14.9-33.2,33.2c0,0.9,0,1.7,0.1,2.6l-46.9,22.2
		c-6-5.7-14.1-9.3-23-9.3c-18.3,0-33.2,14.9-33.2,33.2c0,14.2,9,26.4,21.6,31.1v57.4c-12.6,4.7-21.6,16.9-21.6,31.1
		c0,18.3,14.9,33.2,33.2,33.2c9.1,0,17.3-3.6,23.3-9.5l46.6,22.3c-0.1,0.9-0.1,1.8-0.1,2.7c0,18.3,14.9,33.2,33.2,33.2
		s33.2-14.9,33.2-33.2c0-1-0.1-2-0.1-3l46.8-21.9c6,5.8,14.1,9.4,23.1,9.4c18.3,0,33.2-14.9,33.2-33.2
		C425.7,309.2,416.7,297,404.1,292.3z M392.5,192.7c6.1,0,11.1,5,11.1,11.1c0,6.1-5,11.1-11.1,11.1s-11.1-5-11.1-11.1
		C381.4,197.7,386.4,192.7,392.5,192.7z M289.5,144c6.1,0,11.1,5,11.1,11.1c0,6.1-5,11.1-11.1,11.1s-11.1-5-11.1-11.1
		C278.4,149,283.4,144,289.5,144z M186.5,192.7c6.1,0,11.1,5,11.1,11.1c0,6.1-5,11.1-11.1,11.1s-11.1-5-11.1-11.1
		C175.4,197.7,180.4,192.7,186.5,192.7z M186.5,334.5c-6.1,0-11.1-5-11.1-11.1s5-11.1,11.1-11.1s11.1,5,11.1,11.1
		S192.6,334.5,186.5,334.5z M289.5,383.2c-6.1,0-11.1-5-11.1-11.1s5-11.1,11.1-11.1s11.1,5,11.1,11.1S295.6,383.2,289.5,383.2z
		 M289.5,338.9c-9.4,0-17.9,4-24,10.3l-46-22c0.1-1.2,0.2-2.5,0.2-3.8c0-14.6-9.5-27.1-22.7-31.5v-56.6
		c13.2-4.4,22.7-16.9,22.7-31.5c0-1.4-0.1-2.8-0.3-4.2l45.9-21.7c6.1,6.4,14.6,10.4,24.1,10.4c9.6,0,18.2-4.1,24.3-10.6l45.7,22.1
		c-0.2,1.3-0.2,2.6-0.2,3.9c0,14.6,9.5,27.1,22.7,31.5v56.6c-13.2,4.4-22.7,16.9-22.7,31.5c0,1.4,0.1,2.7,0.3,4L313.3,349
		C307.3,342.8,298.8,338.9,289.5,338.9z M392.5,334.5c-6.1,0-11.1-5-11.1-11.1s5-11.1,11.1-11.1s11.1,5,11.1,11.1
		S398.6,334.5,392.5,334.5z M322.1,232.6c0-18-14.9-32.7-33.2-32.7v15.9c6.1,0,19.2,2.5,19.9,16.7v8.9h-40.5v-8.9
		c0.9-15.5,14.5-16.7,20.6-16.7v-15.9c-18.3,0-33.2,14.7-33.2,32.7v8.9H238v79.7h101.9v-79.7h-17.7V232.6z M326.8,307.3h-75.6v-50.5
		h75.6V307.3z"/>
</g>
</svg>
