<?xml version="1.0" encoding="utf-8"?>
<!-- Generator: Adobe Illustrator 24.0.0, SVG Export Plug-In . SVG Version: 6.00 Build 0)  -->
<svg version="1.1" xmlns="http://www.w3.org/2000/svg" xmlns:xlink="http://www.w3.org/1999/xlink" x="0px" y="0px"
	 viewBox="0 0 419 419" style="enable-background:new 0 0 419 419;" xml:space="preserve">
<style type="text/css">
	.st0{opacity:0.497;fill:url(#Path_1628_1_);enable-background:new    ;}
	.st1{clip-path:url(#SVGID_2_);}
	.st2{fill:#0E106A;stroke:#000000;stroke-miterlimit:10;}
</style>
<g id="Layer_2">
	<g id="Group_1862" transform="translate(741.808 2919.427) rotate(180)">
		
			<linearGradient id="Path_1628_1_" gradientUnits="userSpaceOnUse" x1="1225.2308" y1="2320.1121" x2="1220.1162" y2="2313.2102" gradientTransform="matrix(-48 0 0 48 59477.5898 -108575.0703)">
			<stop  offset="0" style="stop-color:#FFFFFF"/>
			<stop  offset="1" style="stop-color:#FFA600"/>
		</linearGradient>
		<path id="Path_1628" class="st0" d="M329,2668.1l340.7,233.4l42.3-383L329,2668.1z"/>
		<g id="Group_1782" transform="translate(184.807 279.427)">
			<g>
				<defs>
					<polygon id="SVGID_1_" points="144.2,2388.6 484.9,2622 527.2,2239 					"/>
				</defs>
				<clipPath id="SVGID_2_">
					<use xlink:href="#SVGID_1_"  style="overflow:visible;"/>
				</clipPath>
				<g id="Group_1781" transform="translate(0 0)" class="st1">
					
						<image style="overflow:visible;enable-background:new    ;" width="258" height="431" id="Rectangle_1871" xlink:href="E9E4B5BB.png"  transform="matrix(1.4272 0 0 1.4272 228.2979 2122.9431)">
					</image>
				</g>
			</g>
		</g>
	</g>
</g>
<g id="Layer_1">
	<path class="st2" d="M338,188.4c0-65.4-53.2-118.6-118.6-118.6S100.8,123,100.8,188.4S154,307,219.4,307c13.7,0,27.4-2.4,40.3-7.1
		l65.9,11.5c1.2,0.2,2.5-0.3,3.3-1.3c0.8-1,1-2.3,0.5-3.5L311,263.5C328.5,242.4,338.1,215.8,338,188.4z M304.4,260.7
		c-0.8,1-1.1,2.4-0.5,3.6l16.7,39.2l-60.6-10.6c-0.2,0-0.4-0.1-0.6-0.1c-0.4,0-0.8,0.1-1.2,0.2c-12.4,4.6-25.5,7-38.8,7
		c-61.6,0-111.7-50.1-111.7-111.7S157.8,76.7,219.4,76.7s111.7,50.1,111.7,111.7C331.1,214.9,321.7,240.6,304.4,260.7z"/>
	<path class="st2" d="M304.2,145.9c0-8.6-6.6-15.7-15.1-16.3s-16.1,5.5-17.3,13.9c-1.2,8.5,4.3,16.4,12.7,18.2v15.9
		c-2-0.7-4.1-1.2-6.2-1.4c-1.7-10-10.3-17.3-20.4-17.3h-20.7v-8.7c0-4.2-3.4-7.5-7.5-7.5h-19.8v-8.5c0-1.9-1.5-3.5-3.5-3.5
		c-1.9,0-3.5,1.5-3.5,3.5v8.5h-19.4c-4.2,0-7.5,3.4-7.5,7.5v8.7h-20.7c-11.4,0-20.7,9.3-20.7,20.7v51.1c0,11.4,9.3,20.7,20.7,20.7
		h102.5c10.1,0,18.8-7.3,20.4-17.3c12.2-1.3,22.2-10.1,25.1-22c2.9-11.9-1.9-24.3-12-31.2v-19.4
		C298.9,160.2,304.2,153.6,304.2,145.9z M182.9,150.4c0-0.2,0.1-0.3,0.2-0.4c0.1-0.1,0.3-0.2,0.4-0.2h46.1c0.3,0,0.6,0.3,0.6,0.6
		v8.7h-47.3V150.4z M257.8,244.7H155.3c-7.6,0-13.8-6.2-13.8-13.8v-51.1c0-7.6,6.2-13.8,13.8-13.8h102.5c7.6,0,13.8,6.2,13.8,13.8
		v51.1C271.6,238.6,265.4,244.7,257.8,244.7z M297.3,205.4c0,10.9-8,20.3-18.8,22v-43.9C289.3,185.1,297.3,194.4,297.3,205.4z
		 M278.5,145.9c0-5.2,4.2-9.4,9.4-9.4c5.2,0,9.4,4.2,9.4,9.4s-4.2,9.4-9.4,9.4C282.7,155.3,278.5,151.1,278.5,145.9z"/>
	<path class="st2" d="M169.7,189.7h-0.2c-6.4,0-11.5,5.2-11.5,11.5v6.9c0,1.9,1.5,3.5,3.5,3.5h16.3c1.9,0,3.5-1.5,3.5-3.5v-6.9
		C181.2,194.9,176.1,189.7,169.7,189.7z M174.3,204.6H165v-3.4c0-2.5,2.1-4.6,4.6-4.6h0.2c2.5,0,4.6,2.1,4.6,4.6V204.6z"/>
	<path class="st2" d="M243.5,189.7h-0.2c-6.4,0-11.5,5.2-11.5,11.5v6.9c0,1.9,1.5,3.5,3.5,3.5h16.3c1.9,0,3.5-1.5,3.5-3.5v-6.9
		C255,194.9,249.9,189.7,243.5,189.7z M248.1,204.6h-9.4v-3.4c0-2.5,2.1-4.6,4.6-4.6h0.2c2.5,0,4.6,2.1,4.6,4.6V204.6z"/>
	<path class="st2" d="M222.8,217.6h-32.5c-1.9,0-3.5,1.5-3.5,3.5v0.2c0,10.8,8.8,19.6,19.6,19.6h0.3c10.8,0,19.6-8.8,19.6-19.6v-0.2
		C226.3,219.2,224.7,217.6,222.8,217.6z M206.7,233.9h-0.3c-5.7,0-10.7-3.8-12.2-9.4h24.8C217.4,230.1,212.4,233.9,206.7,233.9z"/>
</g>
</svg>
