<?xml version="1.0" encoding="utf-8"?>
<!-- Generator: Adobe Illustrator 24.0.0, SVG Export Plug-In . SVG Version: 6.00 Build 0)  -->
<svg version="1.1" xmlns="http://www.w3.org/2000/svg" xmlns:xlink="http://www.w3.org/1999/xlink" x="0px" y="0px"
	 viewBox="0 0 492 492" style="enable-background:new 0 0 492 492;" xml:space="preserve">
<style type="text/css">
	.st0{opacity:0.497;fill:url(#Path_1628_1_);enable-background:new    ;}
	.st1{clip-path:url(#SVGID_2_);}
	.st2{fill:#0E106A;}
</style>
<g id="Layer_2">
	<g id="Group_1862" transform="translate(741.808 2919.427) rotate(180)">
		
			<linearGradient id="Path_1628_1_" gradientUnits="userSpaceOnUse" x1="1187.5869" y1="2283.5967" x2="1181.4976" y2="2275.3794" gradientTransform="matrix(-48 0 0 48 57664.5898 -106836.0703)">
			<stop  offset="0" style="stop-color:#FFFFFF"/>
			<stop  offset="1" style="stop-color:#FFA600"/>
		</linearGradient>
		<path id="Path_1628" class="st0" d="M258.6,2631l405.6,277.8l50.3-456L258.6,2631z"/>
		<g id="Group_1782" transform="translate(184.807 279.427)">
			<g>
				<defs>
					<polygon id="SVGID_1_" points="73.7,2351.6 479.4,2629.4 529.7,2173.5 					"/>
				</defs>
				<clipPath id="SVGID_2_">
					<use xlink:href="#SVGID_1_"  style="overflow:visible;"/>
				</clipPath>
				<g id="Group_1781" transform="translate(0 0)" class="st1">
					
						<image style="overflow:visible;enable-background:new    ;" width="258" height="431" id="Rectangle_1871" xlink:href="ED95D67.png"  transform="matrix(1.6992 0 0 1.6992 173.8999 2035.2667)">
					</image>
				</g>
			</g>
		</g>
	</g>
</g>
<g id="Layer_1">
	<path class="st2" d="M276,341.7h-30.6c-2.2,0-4,1.8-4,4c0,2.2,1.8,4,4,4H276c2.2,0,4-1.8,4-4C279.9,343.5,278.2,341.7,276,341.7z"
		/>
	<path class="st2" d="M326.7,176.4c0-7.1-5.4-13-12.4-13.7c-7.1-0.7-13.5,4.1-14.9,11c-1.4,7,2.7,13.8,9.5,15.9v9.3
		c-1.4-0.4-2.9-0.6-4.4-0.7c-4.1-8-12.3-13.1-21.3-13.1h-7.7v-5.3c0-3.9-3.2-7.1-7.1-7.1h-13.7v-5.1c0-2.2-1.8-4-4-4
		c-2.2,0-4,1.8-4,4v5.1h-13.5c-3.9,0-7.1,3.2-7.1,7.1v5.3h-7.7c-13.2,0-23.9,10.7-23.9,23.9v39.3c0,13.2,10.7,23.9,23.9,23.9h64.7
		c13.2,0,23.9-10.7,23.9-23.9v-3.3c9.4-1.6,16.9-8.7,19-17.9c2.1-9.3-1.5-18.9-9.2-24.4v-13C322.7,187.8,326.7,182.4,326.7,176.4z
		 M234.2,180.6h33.4v4.4h-33.4V180.6z M299.1,248.2c0,8.8-7.1,15.9-15.9,15.9h-64.7c-8.8,0-15.9-7.1-15.9-15.9V209
		c0-8.8,7.1-15.9,15.9-15.9h64.7c8.8,0,15.9,7.1,15.9,15.9V248.2z M307.1,236.8v-30.2c6.9,1.8,11.6,8,11.6,15.1
		S313.9,235,307.1,236.8L307.1,236.8z M307.1,176.4c0-3.2,2.6-5.8,5.8-5.8s5.8,2.6,5.8,5.8s-2.6,5.8-5.8,5.8
		C309.7,182.2,307.1,179.6,307.1,176.4L307.1,176.4z"/>
	<path class="st2" d="M223,208.4h-0.5c-5.5,0-9.9,4.5-10,10v5.4c0,2.2,1.8,4,4,4h12.4c2.2,0,4-1.8,4-4v-5.4
		C232.9,212.9,228.5,208.4,223,208.4z M225,219.8h-4.4v-1.4c0-1.1,0.9-2,2-2h0.5c1.1,0,2,0.9,2,2V219.8z"/>
	<path class="st2" d="M279.2,208.4h-0.5c-5.5,0-9.9,4.5-10,10v5.4c0,2.2,1.8,4,4,4h12.4c2.2,0,4-1.8,4-4v-5.4
		C289.2,212.9,284.7,208.4,279.2,208.4z M281.2,219.8h-4.4v-1.4c0-1.1,0.9-2,2-2h0.5c1.1,0,2,0.9,2,2V219.8z"/>
	<path class="st2" d="M263.3,236.6h-24.8c-2.2,0-4,1.8-4,4v0.5c0,8.8,7.1,15.9,15.9,15.9h0.9c8.8,0,15.9-7.1,15.9-15.9v-0.5
		C267.2,238.4,265.5,236.6,263.3,236.6z M251.3,249h-0.9c-3,0-5.8-1.7-7.1-4.4h15.2C257.1,247.3,254.4,249,251.3,249z"/>
	<path class="st2" d="M402.4,85.5h-31.2c-2.2,0-4,1.8-4,4c0,2.2,1.8,4,4,4h31.2c2.2,0,4-1.8,4-4C406.4,87.3,404.6,85.5,402.4,85.5z"
		/>
	<path class="st2" d="M315.2,93.5h39c2.2,0,4-1.8,4-4c0-2.2-1.8-4-4-4h-39c-2.2,0-4,1.8-4,4C311.2,91.7,313,93.5,315.2,93.5z"/>
	<path class="st2" d="M402.4,103.2H340c-2.2,0-4,1.8-4,4c0,2.2,1.8,4,4,4h62.4c2.2,0,4-1.8,4-4C406.4,105,404.6,103.2,402.4,103.2z"
		/>
	<path class="st2" d="M315.2,111.2h7.8c2.2,0,4-1.8,4-4c0-2.2-1.8-4-4-4h-7.8c-2.2,0-4,1.8-4,4C311.2,109.4,313,111.2,315.2,111.2z"
		/>
	<path class="st2" d="M402.4,121h-34c-2.2,0-4,1.8-4,4c0,2.2,1.8,4,4,4h34c2.2,0,4-1.8,4-4C406.4,122.8,404.6,121,402.4,121z"/>
	<path class="st2" d="M351.4,121h-36.2c-2.2,0-4,1.8-4,4c0,2.2,1.8,4,4,4h36.2c2.2,0,4-1.8,4-4C355.3,122.8,353.6,121,351.4,121z"/>
	<path class="st2" d="M409.2,56.3H308.4c-10,0-18.2,8.1-18.2,18.2V77H211c-20.5,0-37,16.6-37.1,37.1v231.6c0,20.5,16.6,37,37.1,37.1
		h99.3c20.5,0,37-16.6,37.1-37.1v-158c1.2-0.8,2.4-1.7,3.5-2.7c5.7-5,12.4-14.2,12.2-29.2h46.1c4.8,0,9.4-1.9,12.8-5.3
		c3.4-3.4,5.3-8,5.3-12.8V74.5C427.3,64.4,419.2,56.3,409.2,56.3z M211,84.9h79.3v30.9H181.9V114C181.9,98,194.9,84.9,211,84.9z
		 M310.3,374.8H211c-16.1,0-29.1-13-29.1-29.1v-29.1h157.5v29.1C339.4,361.7,326.4,374.8,310.3,374.8z M339.4,308.6H181.9V123.8
		h108.4v13.8c0,10,8.1,18.2,18.2,18.2h12.2c4.4,0,7.6,1.3,9.8,4.1c5.6,7.2,3.5,22.6,2.2,27.9c-0.3,1.4,0.1,2.8,1.1,3.8
		s2.5,1.4,3.8,1c0.1,0,0.8-0.2,1.9-0.6V308.6z M419.4,137.6c0,2.7-1.1,5.3-3,7.2c-1.9,1.9-4.5,3-7.2,3h-47.8c-1.7,0-3.3,0.7-4.5,1.9
		c-1.2,1.3-1.8,2.9-1.8,4.7c0.7,15.6-7.2,23.6-13.1,27.4c-0.1,0-0.2,0.1-0.3,0.1c0.9-7.7,0.9-19.4-4.9-26.9
		c-3.7-4.8-9.1-7.2-16.1-7.2h-12.2c-5.6,0-10.2-4.6-10.2-10.2V74.5c0-5.6,4.6-10.2,10.2-10.2h100.7c5.6,0,10.2,4.6,10.2,10.2V137.6z
		"/>
</g>
</svg>
