<svg xmlns="http://www.w3.org/2000/svg" width="75.964" height="22" viewBox="0 0 75.964 22"><defs><style>.a{fill:#bfbdc1;fill-rule:evenodd;}</style></defs><g transform="translate(-390 -289.276)"><path class="a" d="M390,289.276h75.964v1.5H390v-1.5Z" transform="translate(0 0)"/><path class="a" d="M390,305.716h75.964v1.5H390v-1.5Z" transform="translate(0 4.055)"/><path class="a" d="M391.286,292.345h11.037v2.746h-3.171v6.388l-4.691,0v-6.385h-3.174v-2.746Zm22.251,0h11.035v2.746H421.4v6.388l-4.691,0v-6.385h-3.17v-2.746Zm-12.393,9.13h4.48l2.264-5.283,2.288,5.329H414.7l-4.574-9.139h-4.621l-4.364,9.093Zm22.15,0h4.482l2.264-5.283,2.285,5.329h4.529l-4.574-9.139h-4.623l-4.363,9.093Z" transform="translate(0.317 0.757)"/><path class="a" d="M440.986,292.616h2.286v8.78h-2.286v-8.78Zm-11.22,8.708h2.27l.854-2.33h4l.894,2.385h2.289l-3.089-7.975a1.105,1.105,0,0,0-.91-.707,6.985,6.985,0,0,0-2.209-.007,1.39,1.39,0,0,0-1.081.917l-3.019,7.717Zm3.8-3.846h2.685l-1.134-3.072a.258.258,0,0,0-.507,0l-1.043,3.072Zm10.674,3.846h2.269l.856-2.33h4l.893,2.385h2.29l-3.088-7.975a1.105,1.105,0,0,0-.911-.707,6.978,6.978,0,0,0-2.208-.007,1.39,1.39,0,0,0-1.082.917l-3.019,7.717Zm3.8-3.846h2.685l-1.136-3.072a.258.258,0,0,0-.507,0l-1.042,3.072Z" transform="translate(9.808 0.821)"/><path class="a" d="M429.888,300.957h.959v3H433.2v.613h-3.311v-.615h0v-3Zm0,3.612Zm7.523-3.612h.959v3.612h-.959v-3.612Zm5.538,0h3.24v.613h-2.281v.8h1.927v.613h-1.927v1.582h-.96v-3.612Zm7.719,0h3.467v.613h-2.508v.8h2.334v.613h-2.334v.967h2.508v.613h-3.467v-.615h0v-3Z" transform="translate(9.838 2.881)"/></g></svg>