<svg xmlns="http://www.w3.org/2000/svg" width="94.53" height="34" viewBox="0 0 94.53 34"><defs><style>.a{fill:#bfbdc1;}</style></defs><g transform="translate(-0.996 -2.722)"><g transform="translate(28.121 2.722)"><path class="a" d="M109.762,4.654c.489-.642.938-1.316,1.462-1.932q-7.676,13.566-15.3,27.161c-1.273,2.283-2.577,4.549-3.835,6.839a1.214,1.214,0,0,1-.3-.221c-1.8-1.831-3.6-3.651-5.4-5.479,1.278-.014,2.555,0,3.833-.007Q99.99,17.837,109.762,4.654Z" transform="translate(-86.385 -2.722)"/></g><g transform="translate(0.996 10.189)"><path class="a" d="M1,26.265c15.271-.022,30.54,0,45.811-.011C41.729,32.962,36.686,39.7,31.583,46.387q-15.288-.012-30.576,0c-.024-6.709,0-13.417-.011-20.126M26.88,31.2a2.667,2.667,0,0,0-1.845,2.3,2.823,2.823,0,0,0,.759,2.2c.857.931,2.119,1.311,3.094,2.09a.922.922,0,0,1,.285,1.157,1.365,1.365,0,0,1-1.185.6,5.37,5.37,0,0,1-2.859-1.023c.036.893.091,1.784.178,2.674a6.1,6.1,0,0,0,4.65.01,3.149,3.149,0,0,0,1.079-4.479,12.169,12.169,0,0,0-3.243-2.212,1.024,1.024,0,0,1-.557-.861c.008-.517.575-.8,1.036-.77a5.238,5.238,0,0,1,2.5.954c0-.79.008-1.58-.007-2.37A6.014,6.014,0,0,0,26.88,31.2m-20.911.1c1.145,1.775,2.368,3.5,3.517,5.269.044,1.592.005,3.189.018,4.783.785,0,1.57,0,2.355,0,0-1.606-.015-3.212.007-4.817,1.222-1.776,2.572-3.47,3.826-5.229-.827-.011-1.655,0-2.482-.007-.782,1.052-1.546,2.122-2.3,3.193-.724-1.056-1.386-2.151-2.119-3.2-.939.018-1.879,0-2.82.008M16.721,41.36q3.082,0,6.164,0c.011-.707.005-1.413,0-2.119-1.289-.015-2.577,0-3.867,0,0-.661,0-1.323,0-1.984,1.092,0,2.185,0,3.278,0,0-.681-.008-1.361.006-2.04-1.092-.02-2.186-.011-3.278-.007-.007-.6,0-1.206-.005-1.809,1.277-.089,2.558.007,3.832-.044-.016-.684,0-1.369-.01-2.053-2.038,0-4.077,0-6.115,0C16.714,34.654,16.726,38.008,16.721,41.36Z" transform="translate(-0.996 -26.246)"/><path class="a" d="M125.7,32.09c1.1-1.945,2.13-3.935,3.265-5.858q23.129.014,46.26,0c.049,6.713.014,13.429.018,20.143q-28.7-.018-57.407,0c2.6-4.769,5.248-9.515,7.864-14.277m24.266-1.165c-.022,3.472-.007,6.945-.008,10.419.55,0,1.1-.015,1.653.01.046-2.128,0-4.258.022-6.385,2.171,2.214,4.276,4.5,6.451,6.708l.161-.075c.011-3.245,0-6.49.007-9.736a2.042,2.042,0,0,0-.068-.588c-.547.018-1.094.008-1.641.01-.01,2.134,0,4.268,0,6.4-2.019-2.132-4.056-4.247-6.08-6.377a1.267,1.267,0,0,0-.493-.385m-7.1,1.159c-1.462,3.083-2.9,6.178-4.37,9.254.587,0,1.174,0,1.762.005.291-.59.553-1.192.821-1.791,1.513,0,3.026-.005,4.538,0,.261.6.523,1.2.807,1.793.6-.015,1.211-.005,1.816-.01-1.585-3.482-3.144-6.974-4.762-10.439a7.583,7.583,0,0,0-.612,1.185m-12.012-.8c-.007,3.352,0,6.7,0,10.055,1.069-.008,2.138.014,3.208-.017a3.671,3.671,0,0,0,2.754-1.129,3.112,3.112,0,0,0,.384-2.75,2.315,2.315,0,0,0-1.618-1.468,3.04,3.04,0,0,0,1.062-.714,2.494,2.494,0,0,0,.165-2.731,2.739,2.739,0,0,0-2.139-1.177c-1.266-.135-2.541-.042-3.812-.071m30.558,10.057c.57-.005,1.139,0,1.708,0,.007-1.566,0-3.131,0-4.7q2.249,2.345,4.489,4.7c.747-.01,1.492,0,2.239-.011-1.679-1.73-3.337-3.483-5.014-5.217,1.514-1.61,3.036-3.211,4.538-4.83-.669,0-1.338,0-2.006,0-1.423,1.5-2.834,3-4.25,4.5-.008-1.5.015-3-.008-4.505-.563,0-1.125.005-1.688,0-.038,3.353-.01,6.708-.014,10.061Z" transform="translate(-80.719 -26.228)"/><path class="a" d="M164.085,46.373a5.322,5.322,0,0,1,2.3.249,1.372,1.372,0,0,1-.048,2.289,4.36,4.36,0,0,1-2.247.3C164.088,48.264,164.09,47.318,164.085,46.373Z" transform="translate(-112.278 -39.97)"/><path class="a" d="M194.6,52.223c.033-.044.1-.13.132-.173.519,1.23,1.059,2.451,1.58,3.679-1.084-.007-2.171.031-3.253-.018.535-1.152,1.025-2.326,1.541-3.488Z" transform="translate(-132.051 -43.847)"/><path class="a" d="M164.089,59.522c.845.046,1.8-.176,2.542.338a1.571,1.571,0,0,1-.242,2.575,5.886,5.886,0,0,1-2.3.217c0-1.043,0-2.088,0-3.131Z" transform="translate(-112.281 -48.939)"/></g></g></svg>