<svg xmlns="http://www.w3.org/2000/svg" width="22.854" height="16" viewBox="0 0 22.854 16"><defs><style>.a{fill:#494d59;}</style></defs><g transform="translate(0)"><path class="a" d="M24.375,7.516A2.862,2.862,0,0,0,22.363,5.5c-1.788-.491-8.942-.5-8.942-.5s-7.153-.008-8.942.461a2.923,2.923,0,0,0-2.017,2.03,30.256,30.256,0,0,0-.476,5.5,30.071,30.071,0,0,0,.464,5.5A2.861,2.861,0,0,0,4.463,20.5c1.806.491,8.941.5,8.941.5s7.154.008,8.942-.46a2.872,2.872,0,0,0,2.018-2.013,30.121,30.121,0,0,0,.476-5.495,28.642,28.642,0,0,0-.465-5.516ZM11.132,16.424l.006-6.851L17.084,13Z" transform="translate(-1.986 -5)"/></g></svg>