<?xml version="1.0" encoding="utf-8"?>
<!-- Generator: Adobe Illustrator 24.0.1, SVG Export Plug-In . SVG Version: 6.00 Build 0)  -->
<svg version="1.1" xmlns="http://www.w3.org/2000/svg" xmlns:xlink="http://www.w3.org/1999/xlink" x="0px" y="0px"
	 viewBox="0 0 486.7 486.7" style="enable-background:new 0 0 486.7 486.7;" xml:space="preserve">
<style type="text/css">
	.st0{opacity:0.497;fill:url(#SVGID_1_);enable-background:new    ;}
	.st1{clip-path:url(#SVGID_3_);}
	.st2{display:none;}
	.st3{display:inline;}
	.st4{fill:#0E106A;}
	.st5{display:inline;fill:#0E106A;}
	.st6{fill:none;stroke:#0E106A;stroke-width:17;stroke-miterlimit:10;}
	.st7{fill:#FFFFFF;}
	.st8{display:inline;fill:none;stroke:#0E106A;stroke-width:5;stroke-miterlimit:10;}
	.st9{fill:none;stroke:#0E106A;stroke-width:5;stroke-miterlimit:10;}
	.st10{fill:none;stroke:#0E106A;stroke-width:7;stroke-miterlimit:10;}
	.st11{display:inline;fill:none;stroke:#0E106A;stroke-width:6;stroke-miterlimit:10;}
	.st12{display:inline;fill:#FFFFFF;}
	.st13{display:inline;fill:none;stroke:#0E106A;stroke-width:3;stroke-miterlimit:10;}
	.st14{display:inline;fill:none;stroke:#0E106A;stroke-width:11;stroke-linejoin:round;stroke-miterlimit:10;}
	.st15{display:inline;fill:none;stroke:#0E106A;stroke-width:0.75;stroke-miterlimit:10;}
	.st16{fill:none;stroke:#0E106A;stroke-width:4;stroke-miterlimit:10;}
	.st17{stroke:#000000;stroke-width:5;stroke-miterlimit:10;}
</style>
<g id="Layer_2">
	<g id="Layer_1_3_">
		<g id="Layer_2_1_">
			<g id="Group_1862" transform="translate(741.808 2919.427) rotate(180)">
				
					<linearGradient id="SVGID_1_" gradientUnits="userSpaceOnUse" x1="268.709" y1="6978.0845" x2="262.7633" y2="6970.061" gradientTransform="matrix(48 0 0 48 -12333.1934 -332309.5625)">
					<stop  offset="0" style="stop-color:#FFFFFF"/>
					<stop  offset="1" style="stop-color:#FFA600"/>
				</linearGradient>
				<path class="st0" d="M670.6,2898.5l49.2-445.2l-445.3,174.3L670.6,2898.5z M513,2656.4c5.9-2,11.1,0.6,17,1.4
					c6.5,0.9,13.2,1.1,19.8,1.1c0.1-0.1,0.3-0.1,0.4-0.2c5.6-3.2,10.6,5.4,5,8.6c-3.3,1.9-6.9,3.7-10.6,5.2c5-0.8,10-1.6,15-2.5
					c6.3-1.2,9,8.5,2.7,9.6c-0.4,0.1-0.8,0.1-1.3,0.2c2.1,1.8,2,5.6-0.2,7.7c1.8,2.8,0.4,7.8-4,8.2c-5.1,0.5-10.3,0.2-15.4,0.2
					c-3.7,0-9.4-0.8-12.7,0.9c-5.7,2.9-10.8-5.7-5-8.6c0,0,0.1,0,0.1-0.1c-1.2-0.7-1.9-1.8-2-3c-3.5-0.8-4-5.7-1.5-8.3
					c-5.4-1.3-5.1-10.3,1-9.8c1.9,0.1,3.9,0.1,5.9-0.1c-3.9-1-8.1-2.1-11.4-1C509.5,2668.1,506.9,2658.4,513,2656.4z"/>
				<g id="Group_1782" transform="translate(184.807 279.427)">
					<g>
						<g>
							<g>
								<g>
									<defs>
										<polygon id="SVGID_2_" points="89.8,2348.5 485.8,2619.3 535,2174.1 										"/>
									</defs>
									<clipPath id="SVGID_3_">
										<use xlink:href="#SVGID_2_"  style="overflow:visible;"/>
									</clipPath>
									<g id="Group_1781" transform="translate(0 0)" class="st1">
										
											<image style="overflow:visible;enable-background:new    ;" width="258" height="431" xlink:href="../../../meet/niloofar/icon/DE219773.png"  transform="matrix(1.6594 0 0 1.6594 187.5152 2039.2084)">
										</image>
									</g>
								</g>
							</g>
						</g>
					</g>
				</g>
			</g>
		</g>
		<g id="Layer_1_2_" class="st2">
			<g id="Layer_1_1_" class="st3">
				<path class="st4" d="M350.3,176.4c0-8.7-6.6-15.9-15.1-16.7c-8.7-0.9-16.5,5-18.2,13.4c-1.7,8.6,3.3,16.9,11.6,19.4v11.4
					c-1.7-0.5-3.5-0.7-5.4-0.9c-5-9.8-15-16-26-16h-9.4v-6.5c0-4.8-3.9-8.7-8.7-8.7h-16.8v-6.2c0-2.7-2.2-4.9-4.9-4.9
					c-2.7,0-4.9,2.2-4.9,4.9v6.2H236c-4.8,0-8.7,3.9-8.7,8.7v6.5h-9.4c-16.1,0-29.2,13.1-29.2,29.2v48c0,16.1,13.1,29.2,29.2,29.2
					h79c16.1,0,29.2-13.1,29.2-29.2v-4c11.5-2,20.6-10.6,23.2-21.9c2.6-11.4-1.8-23.1-11.2-29.8v-15.9
					C345.4,190.3,350.3,183.7,350.3,176.4z M237.3,181.5h40.8v5.4h-40.8V181.5L237.3,181.5z M316.6,264.1c0,10.8-8.7,19.4-19.4,19.4
					h-79c-10.8,0-19.4-8.7-19.4-19.4v-47.9c0-10.8,8.7-19.4,19.4-19.4h79c10.8,0,19.4,8.7,19.4,19.4V264.1z M326.4,250.1v-36.9
					c8.4,2.2,14.2,9.8,14.2,18.4C340.5,240.4,334.7,247.9,326.4,250.1L326.4,250.1z M326.4,176.4c0-3.9,3.2-7.1,7.1-7.1
					s7.1,3.2,7.1,7.1s-3.2,7.1-7.1,7.1C329.5,183.4,326.4,180.3,326.4,176.4L326.4,176.4z"/>
				<path class="st4" d="M223.6,215.4H223c-6.7,0-12.1,5.5-12.2,12.2v6.6c0,2.7,2.2,4.9,4.9,4.9h15.1c2.7,0,4.9-2.2,4.9-4.9v-6.6
					C235.7,220.9,230.3,215.4,223.6,215.4z M226.1,229.4h-5.4v-1.7c0-1.3,1.1-2.4,2.4-2.4h0.6c1.3,0,2.4,1.1,2.4,2.4V229.4
					L226.1,229.4z"/>
				<path class="st4" d="M292.3,215.4h-0.6c-6.7,0-12.1,5.5-12.2,12.2v6.6c0,2.7,2.2,4.9,4.9,4.9h15.1c2.7,0,4.9-2.2,4.9-4.9v-6.6
					C304.5,220.9,299,215.4,292.3,215.4z M294.7,229.4h-5.4v-1.7c0-1.3,1.1-2.4,2.4-2.4h0.6c1.3,0,2.4,1.1,2.4,2.4V229.4
					L294.7,229.4z"/>
				<path class="st4" d="M272.8,249.9h-30.3c-2.7,0-4.9,2.2-4.9,4.9v0.6c0,10.8,8.7,19.4,19.4,19.4h1.1c10.8,0,19.4-8.7,19.4-19.4
					v-0.6C277.6,252.1,275.5,249.9,272.8,249.9z M258.2,265h-1.1c-3.7,0-7.1-2.1-8.7-5.4H267C265.3,263,262,265,258.2,265z"/>
			</g>
		</g>
		<g id="Layer_3" class="st2">
			<path class="st5" d="M748.4,21c-0.6,0-1.1,0-1.7,0l0,0l0,0c-35.7-0.4-65.5,27.4-67.4,63.1c-0.1,1.1-0.1,9.7-0.1,12.7l-12,31.1
				c-0.8,2-0.5,4.2,0.7,5.9s3.2,2.8,5.3,2.8h15v17.1c0,4.8,1.9,9.4,5.4,12.7c3.4,3.3,8.1,5.1,12.8,5c0.4,0,3.4,0,18.4-0.1l0,0
				c2.4,0,4.5,1.5,5.2,3.8v21.7c0,2,1.6,3.6,3.6,3.6H790c1,0,1.9-0.4,2.6-1.1c0.7-0.7,1-1.7,1-2.7c0-0.4-2.2-38.7,0-62.1
				c0.5-5.3,5.2-17.9,7.1-22.6c9.9-19,9.3-41.8-1.5-60.3C788.7,33.3,769.4,21.7,748.4,21z M792,53.7h-23.9c-9.9,0-17.9-8-17.9-17.9
				v-7.5C767.4,29.6,783,39,792,53.7z M715.4,36.5v7.7c0,8-6.5,14.5-14.5,14.5h-7.1C698.9,49.5,706.4,41.9,715.4,36.5z M686.6,81.3
				h9.5c4.2,0,7.6,3.4,7.6,7.6s-3.4,7.6-7.6,7.6h-9.8c0-5.5,0-11.4,0.1-12.1C686.4,83.4,686.5,82.4,686.6,81.3z M706.2,164.2
				c-2.8,0.1-5.6-1-7.6-2.9c-2-2-3.2-4.7-3.2-7.5v-20.7c0-2-1.6-3.6-3.6-3.6h-17.5l9.8-25.5h12.1c8.2,0,14.9-6.7,14.9-14.9
				s-6.7-14.9-14.9-14.9h-8.3c0.6-2.8,1.5-5.5,2.5-8.2h10.5c12,0,21.7-9.7,21.7-21.7V32.8c6.5-2.7,13.4-4.3,20.4-4.6v7.6
				c0,13.9,11.2,25.1,25.1,25.1h27.7c3,6.7,4.5,14,4.7,21.4l-26.2,6.5c-10.9-10.4-27.1-12.6-40.4-5.5c-13.3,7.1-20.5,21.8-18,36.6
				s14.2,26.3,29.1,28.6c-2.4,9.1-10.7,15.5-20.1,15.6h-0.1C713.2,164.1,707,164.1,706.2,164.2z M768.6,134.6l-7.9-11.6
				c4.5-5.2,4.4-13-0.2-18.1c-4.6-5.1-12.3-6.1-18-2.2s-7.7,11.4-4.6,17.6c3.1,6.2,10.3,9.1,16.8,6.9l7.9,11.6
				c-13,6.6-28.9,1.9-36.3-10.7c-7.4-12.6-3.8-28.7,8.3-36.9s28.4-5.6,37.4,5.9C781,108.4,779.5,124.9,768.6,134.6z M756.3,116.5
				l-3.1-4.5c-1.1-1.6-3.4-2.1-5-1s-2.1,3.4-1,5l3.1,4.5h-0.1c-2.9,0-5.4-1.9-6.3-4.7c-0.8-2.8,0.2-5.8,2.6-7.4
				c2.4-1.6,5.6-1.5,7.8,0.4C756.6,110.8,757.4,113.9,756.3,116.5L756.3,116.5z M748.9,176c0-1.4,1.1-2.5,2.5-2.5s2.5,1.1,2.5,2.5
				s-1.1,2.5-2.5,2.5C750,178.5,748.9,177.4,748.9,176L748.9,176z M794,109c-0.7,1.8-7,17.4-7.7,24.8c-1.8,19.8-0.7,49-0.2,59.4H755
				v-8.1c4.3-1.7,6.8-6.3,6-10.9s-4.9-7.9-9.6-7.9c-4.7,0-8.7,3.3-9.6,7.9s1.6,9.2,6,10.9v8.1h-10.6v-18.6c0-0.3,0-0.6-0.1-0.9
				c-0.4-1.6-1.1-3-2-4.3c8.8-3.5,15.3-11.2,17.2-20.5c5-0.3,10-1.7,14.4-4.1l4.3,6.3v8.2c-4.3,1.7-6.9,6.3-6,10.9
				c0.9,4.6,4.9,7.9,9.6,7.9c4.7,0,8.7-3.3,9.6-7.9c0.9-4.6-1.6-9.2-5.9-10.9v-9.4c0-0.7-0.2-1.4-0.6-2l-4.9-7.2
				c13.5-11.3,16.4-30.9,6.7-45.7l20.7-5.1c-0.8,6.6-2.8,12.9-5.9,18.8C794.1,108.8,794.1,108.9,794,109z M774.6,165.7
				c1.4,0,2.5,1.1,2.5,2.5s-1.1,2.5-2.5,2.5s-2.5-1.1-2.5-2.5C772,166.8,773.2,165.7,774.6,165.7L774.6,165.7z"/>
			<path class="st5" d="M737.7,135.5c3.8,2.2,8.1,3.4,12.5,3.4c0.3,0,0.6,0,1,0c2-0.1,3.5-1.8,3.5-3.8c-0.1-2-1.8-3.5-3.7-3.5
				c-3.4,0.1-6.7-0.7-9.6-2.4c-1.1-0.7-2.5-0.7-3.6,0c-1.1,0.6-1.8,1.8-1.8,3.1S736.6,134.8,737.7,135.5L737.7,135.5z"/>
			<path class="st5" d="M772.6,103.3c-0.6-1.2-1.2-2.3-2-3.4c-0.9-1.2-1.8-2.4-2.9-3.5c-0.9-0.9-2.3-1.3-3.5-0.9
				c-1.2,0.3-2.2,1.3-2.5,2.6c-0.3,1.3,0,2.6,1,3.5c0.8,0.8,1.5,1.6,2.1,2.5c0.5,0.8,1,1.6,1.4,2.4c1.5,3,2,6.4,1.6,9.7
				c-0.2,2,1.2,3.8,3.2,4c0.1,0,0.3,0,0.4,0c1.8,0,3.4-1.4,3.6-3.2c0.1-1,0.2-2,0.2-3C775.1,110.3,774.2,106.6,772.6,103.3z"/>
			<path class="st5" d="M735.5,94c-3.8,2.8-6.7,6.6-8.4,11c-0.5,1.2-0.3,2.6,0.5,3.6s2.1,1.5,3.4,1.3c1.3-0.2,2.4-1.1,2.8-2.3
				c1.2-3.1,3.3-5.8,6-7.8c1.6-1.2,1.9-3.4,0.8-5C739.4,93.2,737.1,92.9,735.5,94L735.5,94z"/>
			<path class="st5" d="M640.2,96.7c0-3,0-11.6-0.1-12.7c-2-35.7-31.7-63.6-67.5-63.1c-0.6,0-1.1,0-1.7,0
				c-21.1,0.7-40.3,12.3-50.8,30.6c-10.8,18.5-11.4,41.3-1.5,60.3c1.9,4.6,6.6,17.3,7.1,22.6c2.2,23.4,0,61.7,0,62.1
				c-0.1,1,0.3,2,1,2.7s1.6,1.1,2.6,1.1h56.4c2,0,3.6-1.6,3.6-3.6V175c0.7-2.2,2.8-3.8,5.2-3.8l0,0c15,0.1,18,0.1,18.4,0.1
				c4.8,0.1,9.4-1.7,12.8-5c3.4-3.3,5.4-7.9,5.4-12.7v-17.1h15c2.1,0,4.1-1,5.3-2.8c1.2-1.7,1.5-4,0.7-5.9L640.2,96.7z M627.5,129.4
				c-2,0-3.6,1.6-3.6,3.6v20.7c0,2.8-1.1,5.5-3.2,7.5c-2,2-4.8,3-7.6,2.9c-0.8,0-7.1-0.1-18.6-0.1h-0.1c-10.8,0-19.8-8.3-20.7-19.1
				c-0.2-2-1.9-3.5-3.9-3.3s-3.5,1.9-3.3,3.9c0.9,10.6,7.8,19.8,17.7,23.8c-0.9,1.3-1.6,2.8-2,4.3c-0.1,0.3-0.1,0.6-0.1,0.9v18.6
				h-49c0.5-10.4,1.6-39.6-0.2-59.4c-0.7-7.4-7-23-7.7-24.8c0-0.1-0.1-0.2-0.1-0.3c-8.8-16.8-8.4-37.1,1.3-53.5
				c9.3-16.1,26.2-26.4,44.8-27c0.5,0,1,0,1.5,0c31.9-0.4,58.5,24.4,60.2,56.3c0,0.7,0.1,7.2,0.1,12.9c0,0.4,0.1,0.9,0.2,1.3
				l11.7,30.7h-17.4L627.5,129.4L627.5,129.4z"/>
		</g>
		<g id="Layer_4" class="st2">
			<path class="st5" d="M221.5,131.6c-7.6,0-13.8,6.2-13.8,13.8v27.7c0,2.9,0.9,5.7,2.6,8.1l-8.6,5.8h-3.2c-12.7,0-23,10.3-23,23
				v0.8c-5.5,1.9-9.2,7.1-9.2,13h9.2c0-2.5,2.1-4.6,4.6-4.6s4.6,2.1,4.6,4.6h9.2c0-5.8-3.7-11-9.2-13v-0.9c0-7.6,6.2-13.8,13.8-13.8
				v32.3c0,0.7,0.2,1.4,0.5,2.1l9.2,18.4c0.8,1.6,2.4,2.5,4.1,2.5h64.5c1.8,0,3.4-1,4.1-2.5l9.2-18.4c0.3-0.6,0.5-1.3,0.5-2.1v-32.3
				c7.6,0,13.8,6.2,13.8,13.8v0.8c-5.5,1.9-9.2,7.1-9.2,13h9.2c0-2.5,2.1-4.6,4.6-4.6s4.6,2.1,4.6,4.6h9.2c0-5.8-3.7-11-9.2-13v-0.8
				c0-12.7-10.3-23-23-23h-3.2l-8.6-5.8c1.7-2.3,2.6-5.2,2.7-8.1v-27.7c0-7.6-6.2-13.8-13.8-13.8h-18.4v-10.1
				c7.2-2.5,11-10.4,8.4-17.6c-2.5-7.2-10.4-11-17.6-8.4c-7.2,2.5-11,10.4-8.4,17.6c1.4,3.9,4.5,7,8.4,8.4v10.1L221.5,131.6z
				 M244.6,103.9c2.5,0,4.6,2.1,4.6,4.6s-2.1,4.6-4.6,4.6s-4.6-2.1-4.6-4.6S242,103.9,244.6,103.9z M274,242.2h-58.8l-4.6-9.2h68
				L274,242.2z M226.8,223.7c2.5-9.8,12.5-15.8,22.3-13.3c6.5,1.7,11.6,6.7,13.3,13.3H226.8z M281.5,223.7h-9.6
				c-2.5-15-16.8-25.2-31.8-22.7c-11.6,2-20.7,11-22.7,22.7h-9.6v-29.8l10.5-7h52.5l10.6,7.1v29.7H281.5z M253.8,177.7h-18.4v-4.6
				h18.4V177.7z M272.2,145.4v27.7c0,2.5-2.1,4.6-4.6,4.6H263v-9.2c0-2.5-2.1-4.6-4.6-4.6h-27.7c-2.5,0-4.6,2.1-4.6,4.6v9.2h-4.6
				c-2.5,0-4.6-2.1-4.6-4.6v-27.7c0-2.5,2.1-4.6,4.6-4.6h46.1C270.2,140.8,272.2,142.9,272.2,145.4z"/>
			<path class="st5" d="M226.2,150h9.2v9.2h-9.2V150z"/>
			<path class="st5" d="M253.8,150h9.2v9.2h-9.2V150z"/>
			<path class="st5" d="M350.6,122.4H346v9.2h4.6c7.6,0,13.8,6.2,13.8,13.8v124.4H124.8V145.4c0-7.6,6.2-13.8,13.8-13.8h4.6v-9.2
				h-4.6c-12.7,0-23,10.3-23,23v147.5c0,12.7,10.3,23,23,23h68.5l-3.5,27.7h-9.8c-7.6,0-13.8,6.2-13.8,13.8
				c0,7.6,6.2,13.8,13.8,13.8h101.5c7.6,0,13.8-6.2,13.8-13.8c0-7.6-6.2-13.8-13.8-13.8h-9.8l-3.5-27.7h68.5c12.7,0,23-10.3,23-23
				V145.4C373.6,132.7,363.3,122.4,350.6,122.4z M299.9,357.4c0,2.5-2.1,4.6-4.6,4.6H193.9c-2.5,0-4.6-2.1-4.6-4.6s2.1-4.6,4.6-4.6
				h101.4C297.8,352.8,299.9,354.9,299.9,357.4z M276.2,343.6h-63.3l3.5-27.7h56.4L276.2,343.6z M350.6,306.7h-212
				c-7.6,0-13.8-6.2-13.8-13.8v-13.8h239.7v13.8C364.4,300.5,358.2,306.7,350.6,306.7z"/>
			<path class="st5" d="M276.8,122.4h32.3v9.2h-32.3V122.4z"/>
			<path class="st5" d="M180.1,122.4h32.2v9.2H180v-9.2H180.1z"/>
			<path class="st5" d="M336.8,288.3h9.2v9.2h-9.2V288.3z"/>
			<path class="st5" d="M318.3,122.4h18.4c2.5,0,4.6-2.1,4.6-4.6V99.4c0-2.5-2.1-4.6-4.6-4.6h-18.4c-2.5,0-4.6,2.1-4.6,4.6v18.4
				C313.7,120.3,315.8,122.4,318.3,122.4z M322.9,103.9h9.2v9.2h-9.2V103.9z"/>
			<path class="st5" d="M321.6,153.3l9.2-9.2c0.9-0.9,1.4-2,1.4-3.3v-9.2H323v7.3l-6.5,6.5h-25.7v9.2h27.5
				C319.5,154.6,320.7,154.1,321.6,153.3z"/>
			<path class="st5" d="M336.8,223.7h18.4v9.2h-18.4V223.7z"/>
			<path class="st5" d="M336.8,242.2h18.4v9.2h-18.4V242.2z"/>
			<path class="st5" d="M341.4,163.8c-7.6,0-13.8,6.2-13.8,13.8s6.2,13.8,13.8,13.8c7.6,0,13.8-6.2,13.8-13.8
				C355.2,170,349,163.8,341.4,163.8z M341.4,182.3c-2.5,0-4.6-2.1-4.6-4.6s2.1-4.6,4.6-4.6s4.6,2.1,4.6,4.6
				C346,180.2,343.9,182.3,341.4,182.3z"/>
			<path class="st5" d="M303.2,234.3l-6.5,6.5l9.2,9.2c0.9,0.9,2,1.4,3.3,1.4h18.4v-9.2h-16.5L303.2,234.3z"/>
			<path class="st5" d="M299.9,173.1h18.4v9.2h-18.4V173.1z"/>
			<path class="st5" d="M152.4,122.4h18.4c2.5,0,4.6-2.1,4.6-4.6V99.4c0-2.5-2.1-4.6-4.6-4.6h-18.4c-2.5,0-4.6,2.1-4.6,4.6v18.4
				C147.8,120.3,149.9,122.4,152.4,122.4z M157,103.9h9.2v9.2H157V103.9z"/>
			<path class="st5" d="M157,131.6v9.2c0,1.2,0.5,2.4,1.4,3.3l9.2,9.2c0.9,0.9,2,1.4,3.3,1.4h27.7v-9.2h-25.7l-6.5-6.5v-7.3
				L157,131.6L157,131.6z"/>
			<path class="st5" d="M134,223.7h18.4v9.2H134V223.7z"/>
			<path class="st5" d="M134,242.2h18.4v9.2H134V242.2z"/>
			<path class="st5" d="M134,177.7c0,7.6,6.2,13.8,13.8,13.8s13.8-6.2,13.8-13.8s-6.2-13.8-13.8-13.8C140.2,163.8,134,170,134,177.7
				z M147.8,173.1c2.5,0,4.6,2.1,4.6,4.6s-2.1,4.6-4.6,4.6s-4.6-2.1-4.6-4.6C143.2,175.1,145.3,173.1,147.8,173.1z"/>
			<path class="st5" d="M161.6,242.2v9.2H180c1.2,0,2.4-0.5,3.3-1.4l9.2-9.2l-6.5-6.5l-7.9,7.9H161.6z"/>
			<path class="st5" d="M170.8,173.1h18.5v9.2h-18.4v-9.2H170.8z"/>
		</g>
		<g id="Layer_5" class="st2">
			<g class="st3">
				<path class="st6" d="M241.5,186.4c-1.7,1.4-2.8,3.3-3,5.5s0.4,4.3,1.7,6l23.1,29l-22,17.6l-23.1-29c-2.8-3.5-8-4.1-11.5-1.3
					l-10,8c-1.7,1.4-2.8,3.3-3,5.5s0.4,4.3,1.7,6l23.1,29L202,275.8c-1.7,1.4-2.8,3.3-3,5.5s0.4,4.3,1.7,6l11.6,14.5
					c2.8,3.5,8,4.1,11.5,1.3l3.4-2.7c0.7,1.4,1.6,2.7,2.6,4l33.6,42.1c4.2,5.3,10.2,8.6,17,9.3c6.7,0.8,13.3-1.1,18.6-5.3l16.2-12.9
					l23.3,29.2c4.9,6.2,13.9,7.2,20.1,2.3c3.1-2.5,4.9-5.9,5.3-9.6s-0.6-7.4-3-10.5l-23.3-29.2l16.3-13c5.3-4.2,8.6-10.2,9.3-17
					c0.8-6.7-1.1-13.3-5.3-18.6l-33.7-42.3c-1-1.3-2.1-2.4-3.3-3.4l3.4-2.7c1.7-1.4,2.8-3.3,3-5.5s-0.4-4.3-1.7-6L314,196.8
					c-1.4-1.7-3.3-2.8-5.5-3s-4.3,0.4-6,1.7L286,208.6l-23.1-29c-2.8-3.5-8-4.1-11.5-1.3L241.5,186.4z"/>
				<path class="st6" d="M104.2,50.2c-6.2,4.9-7.2,13.9-2.3,20.1l23.5,29.5l-16.1,12.9c-5.3,4.2-8.6,10.2-9.3,17
					c-0.8,6.7,1.1,13.3,5.3,18.6l33.6,42.1c1,1.3,2.1,2.4,3.3,3.4l-3.4,2.7c-1.7,1.4-2.8,3.3-3,5.5s0.4,4.3,1.7,6l11.6,14.5
					c1.4,1.7,3.3,2.8,5.5,3s4.3-0.4,6-1.7l100.6-80.3c1.7-1.4,2.8-3.3,3-5.5s-0.4-4.3-1.7-6l-11.6-14.5c-2.8-3.5-8-4.1-11.5-1.3
					l-3.4,2.7c-0.7-1.4-1.6-2.7-2.6-4l-33.7-42c-4.2-5.3-10.2-8.6-17-9.3c-6.7-0.8-13.3,1.1-18.6,5.3l-16.3,13l-23.5-29.4
					C119.4,46.3,110.4,45.3,104.2,50.2z"/>
			</g>
		</g>
		<g id="Layer_6" class="st2">
			<g class="st3">
				<g>
					<path class="st4" d="M350.3,133.4h-5.4C340,94.8,306.8,65,267.2,65c-21,0-41.5,8.8-56.2,23.9c-42-16.1-76.7,15.6-79.7,44.5
						c-22.5,2-40.1,21-40.1,44c0,24.4,19.5,44,44,44h19.5v-9.8h-19.5c-19.1,0-34.2-15.2-34.2-34.2s15.2-34.2,34.7-34.2h4.4
						c-0.5-29.3,32.3-63,73.3-42.5c0,0,19.5-25.9,53.8-25.9c47.9,0,69.9,44.5,68.4,68.4h14.7c19.1,0,34.2,15.2,34.2,34.2
						s-15.2,34.2-34.2,34.2h-19.5v9.8h19.5c24.4,0,44-19.5,44-44C394.2,153,374.7,133.4,350.3,133.4z"/>
				</g>
			</g>
			<g class="st3">
				<g>
					<path class="st4" d="M264.2,143.2H159.7V368h166.2V204.8L264.2,143.2z M267.2,159.8l42,42h-42V159.8z M316,358.2H169.4V153h88
						v58.6H316V358.2z"/>
				</g>
			</g>
			<g class="st3">
				<g>
					<path class="st4" d="M184.1,167.7v78.2h58.6v-78.2H184.1z M233,236.1h-39.1v-58.6H233L233,236.1L233,236.1z"/>
				</g>
			</g>
			<g class="st3">
				<g>
					<rect x="257.4" y="236.1" class="st4" width="48.9" height="9.8"/>
				</g>
			</g>
			<g class="st3">
				<g>
					<rect x="184.1" y="260.5" class="st4" width="122.2" height="9.8"/>
				</g>
			</g>
			<g class="st3">
				<g>
					<rect x="184.1" y="284.9" class="st4" width="122.2" height="9.8"/>
				</g>
			</g>
			<g class="st3">
				<g>
					<rect x="296.5" y="304.5" class="st4" width="9.8" height="44"/>
				</g>
			</g>
			<g class="st3">
				<g>
					<rect x="277" y="314.3" class="st4" width="9.8" height="34.2"/>
				</g>
			</g>
			<g class="st3">
				<g>
					<rect x="257.4" y="324" class="st4" width="9.8" height="24.4"/>
				</g>
			</g>
			<g class="st3">
				<g>
					<rect x="237.9" y="333.8" class="st4" width="9.8" height="14.7"/>
				</g>
			</g>
			<g class="st3">
				<g>
					<path class="st4" d="M267.2,84.6v9.8c26.9,0,48.9,22,48.9,48.9h9.8C325.8,111,299.4,84.6,267.2,84.6z"/>
				</g>
			</g>
		</g>
		<g id="Layer_7" class="st2">
			<g class="st3">
				<path class="st4" d="M414.8,176.2c-4.9-14.9-18.7-25-34.3-25c-3.8,0-7.5,0.6-11.2,1.8c-9.2,3-16.6,9.4-21,18
					c-2.8,5.6-4.2,11.7-3.9,17.8l-27.1,8.8c-8.7-16.7-24.9-28.9-44.1-32.1v-28.4c15.1-4.3,26.3-18.2,26.3-34.7
					c0-19.9-16.2-36.1-36.1-36.1s-36.1,16.3-36.1,36.2c0,16.5,11.1,30.4,26.3,34.7v28.4c-19.2,3.1-35.4,15.3-44.1,32.1l-27.1-8.8
					c0.2-6.1-1.1-12.2-3.9-17.8c-4.4-8.6-11.8-15-21-18c-3.6-1.2-7.4-1.8-11.2-1.8c-15.7,0-29.5,10-34.3,25c-3,9.2-2.2,19,2.2,27.6
					c4.4,8.6,11.8,15,21,18c3.6,1.2,7.4,1.8,11.2,1.8c12.3,0,23.4-6.2,30-16l27,8.8c-0.5,3-0.7,6-0.7,9.2c0,16.6,6.7,31.7,17.6,42.7
					l-16.7,23c-4-1.5-8.1-2.2-12.4-2.2c-11.5,0-22.5,5.6-29.2,14.9c-5.7,7.8-8,17.4-6.5,26.9s6.6,17.9,14.4,23.6
					c6.2,4.5,13.5,6.9,21.2,6.9c11.5,0,22.5-5.6,29.2-14.9c9.7-13.3,8.9-31.2-0.8-43.5l16.7-23c8.2,4.1,17.5,6.5,27.3,6.5
					c9.8,0,19.1-2.3,27.3-6.5l16.7,23c-9.7,12.4-10.5,30.2-0.8,43.5c6.8,9.3,17.7,14.9,29.2,14.9c7.7,0,15-2.4,21.2-6.9
					c7.8-5.7,12.9-14,14.4-23.6c1.5-9.5-0.8-19.1-6.5-26.9c-6.8-9.3-17.7-14.9-29.2-14.9c-4.3,0-8.5,0.8-12.4,2.2l-16.7-23
					c10.9-11,17.6-26.1,17.6-42.7c0-3.1-0.2-6.2-0.7-9.2l27-8.8c6.6,9.9,17.7,16,30,16c3.8,0,7.5-0.6,11.2-1.8c9.2-3,16.6-9.4,21-18
					C417,195.2,417.7,185.4,414.8,176.2z M161.8,192.5c-2.2,6.8-8.5,11.4-15.6,11.4c-1.7,0-3.4-0.3-5.1-0.8
					c-4.2-1.4-7.6-4.3-9.6-8.2s-2.3-8.4-1-12.5c2.2-6.8,8.5-11.4,15.6-11.4c1.7,0,3.4,0.3,5.1,0.8c4.2,1.4,7.6,4.3,9.6,8.2
					S163.2,188.3,161.8,192.5z M246.9,102.3c0-9.1,7.4-16.4,16.4-16.4c9,0,16.4,7.4,16.4,16.4s-7.4,16.4-16.4,16.4
					C254.3,118.7,246.9,111.4,246.9,102.3z M204.2,334.7c-3.1,4.2-8.1,6.8-13.3,6.8c-3.5,0-6.8-1.1-9.6-3.1
					c-3.5-2.6-5.9-6.4-6.6-10.7c-0.7-4.3,0.4-8.7,2.9-12.2c3.1-4.2,8.1-6.8,13.3-6.8c3.5,0,6.8,1.1,9.6,3.1
					C207.9,317.2,209.5,327.4,204.2,334.7z M222.3,225.5c0-22.6,18.4-41,41-41s41,18.4,41,41s-18.4,41-41,41
					S222.3,248.2,222.3,225.5z M349,315.4c2.6,3.5,3.6,7.9,2.9,12.2c-0.7,4.3-3,8.1-6.6,10.7c-2.8,2.1-6.2,3.1-9.6,3.1
					c-5.3,0-10.2-2.5-13.3-6.8c-5.3-7.3-3.7-17.6,3.6-22.9c2.8-2.1,6.2-3.1,9.6-3.1C340.9,308.7,345.9,311.2,349,315.4z M395,194.9
					c-2,3.9-5.4,6.8-9.6,8.2c-1.7,0.5-3.4,0.8-5.1,0.8c-7.1,0-13.4-4.6-15.6-11.4c-1.4-4.2-1-8.6,1-12.5s5.4-6.8,9.6-8.2
					c1.7-0.5,3.4-0.8,5.1-0.8c7.1,0,13.4,4.6,15.6,11.4C397.4,186.5,397,190.9,395,194.9z"/>
			</g>
		</g>
		<g id="Layer_8" class="st2">
			<g class="st3">
				<path class="st7" d="M307.4,301.9H201.3c-2.9,0-5.3,2.4-5.3,5.3v42.4c0,2.9,2.4,5.3,5.3,5.3h106.1c2.9,0,5.3-2.4,5.3-5.3v-42.4
					C312.7,304.3,310.3,301.9,307.4,301.9z M227.8,339c-5.9,0-10.6-4.7-10.6-10.6s4.7-10.6,10.6-10.6s10.6,4.7,10.6,10.6
					S233.7,339,227.8,339z"/>
				<path class="st7" d="M307.4,195.8H201.3c-2.9,0-5.3,2.4-5.3,5.3v42.4c0,2.9,2.4,5.3,5.3,5.3h106.1c2.9,0,5.3-2.4,5.3-5.3v-42.4
					C312.7,198.2,310.3,195.8,307.4,195.8z M227.8,232.9c-5.9,0-10.6-4.7-10.6-10.6s4.7-10.6,10.6-10.6s10.6,4.7,10.6,10.6
					S233.7,232.9,227.8,232.9z"/>
				<path class="st7" d="M307.4,248.9H201.3c-2.9,0-5.3,2.4-5.3,5.3v42.4c0,2.9,2.4,5.3,5.3,5.3h106.1c2.9,0,5.3-2.4,5.3-5.3v-42.4
					C312.7,251.2,310.3,248.9,307.4,248.9z M227.8,286c-5.9,0-10.6-4.7-10.6-10.6s4.7-10.6,10.6-10.6s10.6,4.7,10.6,10.6
					C238.4,281.2,233.7,286,227.8,286z"/>
			</g>
			<g class="st3">
				<path class="st4" d="M363.5,147c-10.8-48-58.4-78.1-106.4-67.3c-24.3,5.5-45.2,20.8-57.6,42.4h-0.8
					c-34.9,0.1-64.8,25.1-71.2,59.4c-31.8,11.6-48.1,46.8-36.5,78.6c8.8,24.1,31.8,40.2,57.5,40.2h27.8v-11.1h-27.8
					c-27.7,0-50.1-22.4-50.1-50.1c0-22.1,14.5-41.6,35.6-48c2.1-0.6,3.6-2.4,3.9-4.6c4.1-30.4,30-53.2,60.7-53.2
					c0.9,0,1.7,0.1,2.6,0.1l1.1,0.1c2.2,0.1,4.2-1,5.3-3c20-38.1,67-52.8,105.2-32.9c21.2,11.1,36.2,31.4,40.5,55
					c0.4,2.2,2.1,4,4.3,4.5c36.1,7.9,58.9,43.5,51,79.5c-6.7,30.6-33.8,52.5-65.2,52.6h-11.1v11.1h11.1c43.1,0,77.9-34.9,77.9-78
					C421.3,187,397.6,156.1,363.5,147z"/>
				<path class="st4" d="M310,188.9H198.7c-6.2,0-11.1,5-11.1,11.1v44.5c0,2,0.5,3.9,1.5,5.6c-1,1.7-1.5,3.6-1.5,5.6v44.5
					c0,2,0.5,3.9,1.5,5.6c-1,1.7-1.5,3.6-1.5,5.6v44.5c0,6.2,5,11.1,11.1,11.1h111.4c6.2,0,11.1-5,11.1-11.1v-44.5
					c0-2-0.5-3.9-1.5-5.6c1-1.7,1.5-3.6,1.5-5.6v-44.5c0-2-0.5-3.9-1.5-5.6c1-1.7,1.5-3.6,1.5-5.6V200
					C321.2,193.9,316.2,188.9,310,188.9z M198.7,200.1h111.4v44.5H198.7V200.1z M310,300.3H198.7v-44.5h111.4L310,300.3L310,300.3z
					 M310,356H198.7v-44.5h111.4L310,356L310,356z"/>
				<path class="st4" d="M226.5,205.6c-9.2,0-16.7,7.5-16.7,16.7s7.5,16.7,16.7,16.7s16.7-7.5,16.7-16.7S235.7,205.6,226.5,205.6z
					 M226.5,227.9c-3.1,0-5.6-2.5-5.6-5.6s2.5-5.6,5.6-5.6s5.6,2.5,5.6,5.6S229.6,227.9,226.5,227.9z"/>
				<path class="st4" d="M254.4,205.6h11.1v11.1h-11.1V205.6z"/>
				<path class="st4" d="M276.6,205.6h22.3v11.1h-22.3V205.6z"/>
				<path class="st4" d="M226.5,294.7c9.2,0,16.7-7.5,16.7-16.7s-7.5-16.7-16.7-16.7s-16.7,7.5-16.7,16.7S217.3,294.7,226.5,294.7z
					 M226.5,272.4c3.1,0,5.6,2.5,5.6,5.6s-2.5,5.6-5.6,5.6s-5.6-2.5-5.6-5.6C220.9,274.9,223.4,272.4,226.5,272.4z"/>
				<path class="st4" d="M254.4,261.3h11.1v11.1h-11.1V261.3z"/>
				<path class="st4" d="M276.6,261.3h22.3v11.1h-22.3V261.3z"/>
				<path class="st4" d="M226.5,350.4c9.2,0,16.7-7.5,16.7-16.7s-7.5-16.7-16.7-16.7s-16.7,7.5-16.7,16.7S217.3,350.4,226.5,350.4z
					 M226.5,328.1c3.1,0,5.6,2.5,5.6,5.6s-2.5,5.6-5.6,5.6s-5.6-2.5-5.6-5.6C220.9,330.6,223.4,328.1,226.5,328.1z"/>
				<path class="st4" d="M254.4,317h11.1v11.1h-11.1V317z"/>
				<path class="st4" d="M276.6,317h22.3v11.1h-22.3V317z"/>
			</g>
		</g>
		<g id="Layer_10" class="st2">
			<path class="st5" d="M218.9,178.6v13.2v1.1v27.4h51.6v-27.4v-1.1v-13.2H218.9z"/>
			<path class="st5" d="M372.3,217.6v23.3h-34.4v21.8h34.4h21.4h0.4v-45.1L372.3,217.6z"/>
			<path class="st8" d="M399.3,159.7l-5.9,13.5l-2.3,5.2c2.5,2.2,4.1,5.4,4.1,9c0,6.6-5.4,12-12,12s-12-5.4-12-12
				c0-3.6,1.6-6.8,4.1-9l-2.3-5.2l-5.9-13.5c-9.6,5.6-16.1,15.9-16.1,27.8c0,17.7,14.4,32.1,32.1,32.1s32.1-14.4,32.1-32.1
				C415.3,175.6,408.9,165.3,399.3,159.7z"/>
			<path class="st5" d="M120.6,292.8v-24.7H155v-21.8h-34.4H99.2h-0.4v46.5L120.6,292.8L120.6,292.8z"/>
			<g class="st3">
				<circle class="st4" cx="109.7" cy="257.1" r="16"/>
				<circle class="st4" cx="383.2" cy="250.8" r="16"/>
				<path class="st9" d="M93.7,349.3l5.9-13.5l2.3-5.2c-2.5-2.2-4.1-5.4-4.1-9c0-6.6,5.4-12,12-12s12,5.4,12,12c0,3.6-1.6,6.8-4.1,9
					l2.3,5.2l5.9,13.5c9.6-5.6,16.1-15.9,16.1-27.8c0-17.7-14.4-32.1-32.1-32.1s-32.1,14.4-32.1,32.1
					C77.6,333.4,84.1,343.7,93.7,349.3L93.7,349.3z"/>
				<path class="st10" d="M314.8,195H177.3c-14.2,0-25.8-11.5-25.8-25.8v-51.6c0-14.2,11.5-25.8,25.8-25.8h137.5
					c14.2,0,25.8,11.5,25.8,25.8v51.6C340.6,183.5,329.1,195,314.8,195z"/>
			</g>
			<path class="st11" d="M314.8,332.9H177.3c-14.2,0-25.8-11.5-25.8-25.8v-60.2c0-14.2,11.5-25.8,25.8-25.8h137.5
				c14.2,0,25.8,11.5,25.8,25.8v60.2C340.6,321.3,329.1,332.9,314.8,332.9z"/>
			<path class="st12" d="M203.1,177.8c-19,0-34.4-15.4-34.4-34.4s15.4-34.4,34.4-34.4s34.4,15.4,34.4,34.4S222,177.8,203.1,177.8z
				 M203.1,130.5c-7.1,0-12.9,5.8-12.9,12.9s5.8,12.9,12.9,12.9s12.9-5.8,12.9-12.9S210.2,130.5,203.1,130.5z"/>
			<circle class="st5" cx="293.2" cy="143.3" r="16.4"/>
			<circle class="st5" cx="203.1" cy="144" r="16"/>
		</g>
		<g id="Layer_9" class="st2">
			<path class="st13" d="M196.2,237.7l6.6,11.6c0.2,0.4,0.6,0.7,1,0.8l6.2,1.6l21.3,21.3l2.4-2.4L212.1,249
				c-0.2-0.2-0.5-0.4-0.8-0.4l-6-1.5l-5.7-9.9l4.9-4.9l9.9,5.7l1.5,6c0.1,0.3,0.2,0.6,0.4,0.8l21.6,21.6l2.4-2.4L219,242.7l-1.6-6.2
				c-0.1-0.4-0.4-0.8-0.8-1l-11.6-6.6c-0.6-0.4-1.5-0.3-2,0.3l-6.6,6.6C195.9,236.3,195.8,237.1,196.2,237.7z"/>
			<path class="st13" d="M265.3,261.4l-36.6,36.5l-2.4-2.4l36.6-36.6L265.3,261.4z"/>
			<path class="st13" d="M222.3,299.2c-0.3-0.5-0.8-0.8-1.4-0.8h-10c-0.6,0-1.1,0.3-1.4,0.8l-5,8.3c-0.3,0.5-0.3,1.2,0,1.7l5,8.3
				c0.3,0.5,0.8,0.8,1.4,0.8h10c0.6,0,1.1-0.3,1.4-0.8l5-8.3c0.3-0.5,0.3-1.2,0-1.7L222.3,299.2z M219.9,315h-8.1l-4-6.6l4-6.6h8.1
				l4,6.6L219.9,315z"/>
			<path class="st13" d="M275.7,268.5c11,0,19.9-8.8,19.9-19.8c0-1.7-0.2-3.3-0.6-5c-0.2-0.9-1.1-1.4-2-1.2
				c-0.3,0.1-0.6,0.2-0.8,0.4l-10.3,10.3l-8.2-2.7l-2.7-8.2l10.3-10.3c0.6-0.6,0.6-1.7,0-2.4c-0.2-0.2-0.5-0.4-0.8-0.4
				c-10.6-2.7-21.5,3.7-24.2,14.4c-0.4,1.6-0.6,3.3-0.6,4.9c0,1.3,0.1,2.6,0.4,3.9l-36.4,36.4c-1.3-0.3-2.6-0.4-3.9-0.4
				c-11,0-19.9,8.9-19.9,19.9s8.9,19.9,19.9,19.9s19.9-8.9,19.9-19.9c0-1.3-0.1-2.6-0.4-3.9l8.7-8.7l3.8,3.8c0.6,0.6,1.7,0.6,2.4,0
				l0.8-0.8c0.7-0.7,1.9-0.7,2.6,0s0.7,1.9,0,2.6l0,0l-0.8,0.8c-0.6,0.6-0.6,1.7,0,2.4l19.8,19.8c5.2,5.3,13.7,5.3,19,0.1
				c5.3-5.2,5.3-13.7,0.1-19l-0.1-0.1l-19.8-19.8c-0.6-0.6-1.7-0.6-2.4,0l-0.8,0.8c-0.7,0.7-1.9,0.7-2.6,0s-0.7-1.9,0-2.6l0,0
				l0.8-0.8c0.6-0.6,0.6-1.7,0-2.4l-3.8-3.8l8.7-8.7C273.1,268.3,274.4,268.5,275.7,268.5z M282.3,325c-1.2,0-2.4-0.2-3.5-0.6l13-13
				c2,5.2-0.7,11-5.9,13C284.7,324.8,283.5,325,282.3,325z M263.4,281.8c-1.8,2.2-1.6,5.5,0.6,7.3c1.9,1.6,4.7,1.6,6.7,0l18.7,18.7
				c0.2,0.2,0.4,0.4,0.6,0.6l-14.2,14.2c-0.2-0.2-0.4-0.4-0.6-0.6l-18.7-18.7c1.8-2.2,1.6-5.5-0.6-7.3c-1.9-1.6-4.7-1.6-6.7,0
				l-2.7-2.7l14.3-14.3L263.4,281.8z M270.1,265.1l-37.7,37.7c-0.4,0.4-0.6,1-0.4,1.6c2.3,9-3.1,18.1-12.1,20.3
				c-9,2.3-18.1-3.1-20.3-12.1c-2.3-9,3.1-18.1,12.1-20.3c2.7-0.7,5.5-0.7,8.3,0c0.6,0.1,1.2,0,1.6-0.4l37.7-37.7
				c0.4-0.4,0.6-1,0.4-1.6c-2.3-8.9,3.1-17.9,11.9-20.1c1.7-0.4,3.4-0.6,5.1-0.5l-8.8,8.8c-0.4,0.4-0.6,1.1-0.4,1.7l3.3,10
				c0.2,0.5,0.6,0.9,1.1,1.1l10,3.3c0.6,0.2,1.3,0,1.7-0.4l8.8-8.8c0,0.3,0,0.6,0,0.9c0,9.1-7.3,16.6-16.5,16.6
				c-1.4,0-2.8-0.2-4.2-0.5C271.1,264.5,270.5,264.7,270.1,265.1L270.1,265.1L270.1,265.1z"/>
			<path class="st13" d="M281.9,312.2l-2.4,2.4l-16.6-16.7l2.4-2.4L281.9,312.2z"/>
		</g>
	</g>
</g>
<g id="Capa_1" class="st2">
	<g class="st3">
		<path class="st4" d="M401.8,162.3l-1.4,1.3l-6.1-6.3c-11.3-11.7-30.1-12.6-42-1.5c-0.3,0.3-1,0.9-1.3,1.2
			c-11.4,11.4-11.3,30.2,0,42l6.1,6.3l-1.4,1.3c-2.1,2-1.7,5.8,0.9,8.5l30.7,31.8c2.6,2.7,6.4,3.2,8.5,1.2l45.9-44.3
			c2.1-2,1.7-5.8-0.9-8.5l-30.7-31.8C407.7,160.8,403.9,160.2,401.8,162.3z M403.2,201l9.3,9.6c1.1,1.1,1,2.9-0.1,4l-4.6,4.4
			c-1.1,1.1-2.9,1-4-0.1l-9.3-9.6c-2.1,0-4.1-0.9-5.7-2.5c-2.9-3.1-3.1-7.9-0.2-11c0.3-0.3,0.9-0.9,1.3-1.2c3.1-2.8,8-2.4,10.9,0.6
			C402.4,196.8,403.2,198.9,403.2,201z M391.5,172.2l-12,11.6l-1.3,1.2l-12,11.6l-6.1-6.3c-6.8-7-6.6-18.3,0.3-25
			c7-6.7,18.2-6.4,25,0.6L391.5,172.2L391.5,172.2z"/>
	</g>
</g>
<g id="Layer_4_1_" class="st2">
	<g id="surface1" class="st3">
		<path class="st4" d="M385.5,154.3l0-0.2c-0.1-3.1-0.2-6.3-0.3-9.9c-0.3-17.6-14.3-32.2-31.9-33.2c-36.7-2-65.1-14-89.4-37.7
			l-0.2-0.2c-7.9-7.3-19.9-7.3-27.8,0l-0.2,0.2c-24.3,23.7-52.7,35.6-89.4,37.7c-17.6,1-31.6,15.5-31.9,33.2
			c-0.1,3.6-0.1,6.8-0.3,9.9l0,0.6c-0.7,37.4-1.6,84.1,14,126.4c8.6,23.3,21.6,43.5,38.6,60.1c19.4,18.9,44.8,34,75.5,44.7
			c1,0.3,2,0.6,3.1,0.8c1.5,0.3,3,0.4,4.5,0.4s3-0.1,4.5-0.4c1.1-0.2,2.1-0.5,3.1-0.8c30.7-10.7,56.1-25.8,75.4-44.7
			c17-16.6,30-36.9,38.6-60.1C387,238.5,386.2,191.8,385.5,154.3z M353.8,274.5c-16.4,44.6-50,75.2-102.6,93.6
			c-0.2,0.1-0.4,0.1-0.6,0.2c-0.5,0.1-1.1,0.1-1.6,0c-0.2,0-0.4-0.1-0.6-0.2c-52.7-18.4-86.3-49-102.7-93.6
			c-14.4-39-13.6-81.8-12.8-119.5l0-0.2c0.1-3.2,0.2-6.6,0.3-10.4c0.1-7.8,6.3-14.3,14.2-14.7c20.8-1.2,39-5.2,55.8-12.3
			c16.8-7.1,31.6-17.1,45.5-30.6c0.7-0.6,1.6-0.6,2.3,0c13.9,13.5,28.7,23.5,45.5,30.6c16.8,7.1,35,11.1,55.8,12.3
			c7.8,0.4,14.1,6.9,14.2,14.7c0.1,3.8,0.2,7.1,0.3,10.4C367.4,192.6,368.2,235.4,353.8,274.5z"/>
		<path class="st4" d="M249.8,166.5c-33.6,0-60.9,27.3-60.9,60.9c0,33.6,27.3,60.9,60.9,60.9c33.6,0,60.9-27.3,60.9-60.9
			C310.6,193.8,283.3,166.5,249.8,166.5z M249.8,273.9c-25.7,0-46.5-20.9-46.5-46.5s20.9-46.5,46.5-46.5c25.7,0,46.5,20.9,46.5,46.5
			S275.4,273.9,249.8,273.9z"/>
	</g>
</g>
<g id="Layer_5_1_" class="st2">
	<g class="st3">
		<g id="Layer_1_65_">
			<g>
				<path class="st4" d="M395.4,213.3c-1-2.2-3.2-3.5-5.6-3.5h-18.2C360.1,147,305,99.3,238.9,99.3c-74.4,0-135,60.6-135,135
					s60.6,135,135,135c48,0,92.8-25.9,116.9-67.5c3.4-5.9,1.4-13.4-4.5-16.8c-5.9-3.4-13.4-1.4-16.8,4.5
					c-19.7,34.1-56.4,55.2-95.7,55.2c-60.9,0-110.5-49.6-110.5-110.4c0-60.9,49.6-110.5,110.5-110.5c52.5,0,96.4,36.8,107.6,85.9
					h-18c-2.4,0-4.5,1.4-5.6,3.5c-1,2.2-0.7,4.7,0.8,6.5l30.7,36.8c1.2,1.4,2.9,2.2,4.7,2.2c1.8,0,3.5-0.8,4.7-2.2l30.7-36.8
					C396.1,218,396.4,215.5,395.4,213.3z"/>
				<path class="st4" d="M238.9,130c-6.8,0-12.3,5.5-12.3,12.3v74.5c-5.5,3.9-9.2,10.3-9.2,17.6c0,11.8,9.6,21.5,21.5,21.5
					c3.2,0,6.3-0.8,9.1-2.1l42.7,24.6c1.9,1.1,4,1.7,6.1,1.7c4.2,0,8.4-2.2,10.6-6.1c3.4-5.9,1.4-13.4-4.5-16.8l-42.7-24.7
					c-0.6-6.5-3.9-12.2-9-15.7v-74.5C251.2,135.5,245.7,130,238.9,130z M238.9,243.5c-5.1,0-9.2-4.1-9.2-9.2c0-5.1,4.1-9.2,9.2-9.2
					s9.2,4.1,9.2,9.2C248.1,239.4,244,243.5,238.9,243.5z"/>
			</g>
		</g>
	</g>
</g>
<g id="Layer_6_1_" class="st2">
	<g class="st3">
		<g>
			<path class="st4" d="M158.6,180.6c0.7,4,2.2,6.5,3.7,8c3.6,23.9,23.6,46.1,41.8,46.1c21.3,0,40.7-24,44.4-46
				c1.5-1.6,3.1-4.1,3.8-8.1c1.2-4.5,2.8-12.3,0-15.9c-0.1-0.2-0.3-0.4-0.4-0.5c2.6-9.4,5.8-28.8-5.8-42c-1-1.3-7.6-9.1-21.5-13.2
				l-6.7-2.3c-11-3.4-17.9-4.2-18.2-4.2c-0.5,0-1,0-1.5,0.1c-0.4,0.1-1.7,0.5-2.7,0.3c-2.6-0.4-6.6,1-7.3,1.2
				c-0.9,0.4-22.2,8.9-28.6,28.7c-0.6,1.6-3.2,10,0.2,30.6c-0.5,0.4-1,0.8-1.4,1.3C155.8,168.3,157.4,176.1,158.6,180.6z"/>
			<path class="st4" d="M243.6,331.2c-3.9-2.2-8.2-4.3-12.7-6.3c-2.2-1-4.4-1.9-6.7-2.8c-1.7-0.7-3.8-1.5-5.2-1.9l-21.1-5.7
				l39.4-80.2l16.9,10.7c3.6,2.2,6.2,4.1,9.1,6.2l0.6,0.4c2.9,2.1,5.7,4.3,8.4,6.5c6,4.8,11.3,9.6,16.2,14.4
				c0.4,0.4,0.7,0.7,1.1,1.1c1.7-1.8,3.3-3.5,4.9-5.2c-2.1-6.1-4.6-11.8-7.6-16.3c0,0-4.3-5.9-14.6-9.9c0,0-0.9-0.3-2.2-0.7
				c-9.1-4.3-17.8-7-17.8-7c-1.9-0.7-3.5-1.3-5-2c-6.2-3.1-11.4-6.5-12.4-9.8c0,0,3.6,34.7-26.8,35.5l-4.2-0.2
				c-27.5-2.5-29.3-35.4-29.3-35.4c-2.9,9-37.5,19.5-37.5,19.5c-10.3,3.9-14.6,9.9-14.6,9.9c-15.2,22.5-17,72.7-17,72.7
				c0.2,11.5,5.1,12.7,5.1,12.7c35,15.6,89.8,18.4,89.8,18.4c3,0.1,5.7-0.1,8.5-0.2l0.1,0.3c0,0,26.8-1.4,54.8-7.5l-3.4-4.5
				C257.5,340.2,251.3,335.5,243.6,331.2z"/>
			<path class="st4" d="M233.6,224.3c0.4-0.5,0.8-1,1.2-1.5c-0.1-0.3-0.1-0.5-0.1-0.5C234.3,223,234,223.6,233.6,224.3z"/>
			<path class="st4" d="M174.6,222.7l-0.1-0.4l-0.1,0.4c0-0.1,0.1-0.1,0.1-0.2C174.6,222.5,174.6,222.6,174.6,222.7z"/>
			<path class="st4" d="M351.9,238.8c-10,7-19.2,15-28.1,23.3c-8.9,8.4-17.3,17.3-25.3,26.4c-3,3.4-5.9,6.9-8.8,10.3
				c0-0.1-0.1-0.1-0.1-0.2c-4.3-5.7-8.9-10.7-13.7-15.5c-4.8-4.7-9.8-9.1-14.9-13.2c-2.6-2.1-5.2-4.1-7.8-6.1
				c-2.8-2-5.2-3.8-8.5-5.9l-21,42.7c1.9,0.5,4.7,1.6,7.1,2.5c2.5,1,5,2,7.4,3.1c4.9,2.2,9.7,4.5,14.2,7.1c9,5,17.4,11.2,22.2,17.5
				l16.1,21.2l9.3-20.1c4.7-10.1,10.3-20.6,16-30.7c5.8-10.1,12-20,18.7-29.6c6.7-9.6,13.9-18.8,21.9-27.3
				c8-8.5,16.9-16.4,27.4-21.9C372.5,225.7,361.8,231.8,351.9,238.8z"/>
		</g>
	</g>
</g>
<g id="Layer_7_1_" class="st2">
	<path class="st4" d="M112.2,143.2H147v8.7h-34.9V143.2z"/>
	<path class="st4" d="M155.8,143.2h8.7v8.7h-8.7V143.2z"/>
	<path class="st5" d="M112.2,239.1H147v8.7h-34.9V239.1z"/>
	<path class="st5" d="M155.8,239.1h8.7v8.7h-8.7V239.1z"/>
	<path class="st5" d="M112.2,335H147v8.7h-34.9V335z"/>
	<path class="st5" d="M155.8,335h8.7v8.7h-8.7V335z"/>
	<path class="st5" d="M348.5,182.6c-16.1-16.2-38-25.3-60.9-25.2c-6.2,0-12.4,0.7-18.5,2.1V104H94.7v87.2h13.1v8.7H94.7v87.2h13.1
		v8.7H94.7V383h174.4v-55.4c4.7,1,9.4,1.7,14.2,1.9v21.4l49.3-40.9l-49.3-40.9v25.4c-8-0.7-15.7-3.2-22.5-7.4h8.3v-87.2h-8.3
		c20.3-12.5,46.7-9.3,63.4,7.7c16.7,17.1,19.4,43.5,6.4,63.6l-1.9,3l24.8,24.8l3-4C382.2,260.7,378.7,212.9,348.5,182.6L348.5,182.6
		z M103.4,112.7h156.9v49.1c-12.6,4.2-24.1,11.2-33.5,20.6H103.4V112.7z M116.5,191.2h102.8c-2.1,2.8-4.1,5.7-5.9,8.7h-96.9V191.2z
		 M103.4,208.6h105.5c-9.9,22.2-9.9,47.6,0,69.8H103.4V208.6z M116.5,287.1h96.9c1.8,3,3.7,5.9,5.9,8.7H116.5V287.1z M260.4,374.3
		H103.4v-69.8h123.5c9.4,9.4,20.9,16.5,33.5,20.7V374.3z M250.2,208.6h10.2v69.8h-10.2C231.8,258.8,231.8,228.2,250.2,208.6z
		 M360.9,268.3c-2.1,6.1-4.9,11.9-8.4,17.3l-12.7-12.7c13.2-23.6,9.1-53.1-10.2-72c-19.3-19-48.9-22.6-72.2-9
		c-23.3,13.7-34.6,41.2-27.6,67.3c7.1,26.1,30.7,44.2,57.8,44.2h4.4v-15.8l27,22.3l-27,22.3v-11.4h-4.4c-33.6,0-63.3-21.7-73.5-53.7
		s1.3-66.9,28.6-86.4s64.1-19.3,91,0.7C360.7,201.4,371.7,236.5,360.9,268.3L360.9,268.3z"/>
</g>
<g id="Layer_9_1_" class="st2">
	<g class="st3">
		<g id="Layer_8_7_">
			<path class="st4" d="M323.3,118.8H334V93H140v25.8h10.7v6.7c0,42.1,14.4,80.7,38.1,103.6c-23.7,22.9-38.1,61.5-38.1,103.6v8.4
				H140v25.8h194v-25.8h-10.7v-8.4c0-42.1-14.4-80.7-38.1-103.6c23.7-22.9,38.1-61.5,38.1-103.6V118.8z M267.1,222.4l-8.9,6.7
				l8.9,6.7c22.2,16.8,37.1,50.9,39.1,88.4H167.9c2-37.5,16.9-71.6,39.1-88.4l8.9-6.7l-8.9-6.7c-22.2-16.8-37.1-50.9-39.1-88.4
				h138.3C304.2,171.5,289.3,205.6,267.1,222.4z M185.7,147.5h102.6c-1.5,28.5-12.8,54.4-29.7,67.1c0,0-2.9,1.2-6.7,5.1
				c-8,11.4-8.4,53.1-8.4,54.9c5.7,0.6,11.9,3,18.1,8.6c21.6,19.8,27.9,22.1,28.7,36.5H188.7c0.8-14.4,13.1-24.6,28.7-36.5
				c0,0,7.4-6.5,17.8-8.3c-0.2-0.3-0.3-0.5-0.3-0.5c0-39.2-12.8-56.1-12.8-56.1l-9.1-5.1C196.1,200.4,187.2,175.9,185.7,147.5z"/>
		</g>
	</g>
</g>
<g id="Layer_10_1_" class="st2">
	<g class="st3">
		<path class="st4" d="M146.8,196.2c-1.9-6.5-3.8-13.1-5.2-19.3c-9.1-5.4-15.4-15.3-15.4-26.6c0-17.1,13.9-31,31-31s31,13.9,31,31
			c0,2.4-0.3,4.6-0.8,6.8c3,6.5,5.4,13.9,7.5,21.4c5.9-7.9,9.5-17.6,9.5-28.2c0-26.1-21.1-47.2-47.2-47.2s-47.2,21.1-47.2,47.2
			C110.1,172.7,125.8,191.4,146.8,196.2z"/>
		<path class="st4" d="M114.2,308c11.6-12.6,24.7-7.7,42.2-5c15,2.3,29.8-1.9,28.8-10c-1.6-13.1-3.7-19-8.7-36
			c-4-13.5-11.5-37.9-18.4-61.2c-9.2-31.2-11.9-45.7,0.4-49.3c13.2-3.8,20.8,14.9,27.6,40.9c7.8,29.6,11.9,42.7,14.2,42
			c4.1-1.2-1.5-13.8,9.1-16.9c13.3-3.9,15.8,6.5,19.5,5.5c3.7-1.1,2.5-11.6,13-14.7c10.6-3.1,16,10,20.3,8.7c4.3-1.3,4.2-6,10.8-7.9
			c6.6-1.9,31.2,9.1,45.4,57.4c17.7,60.7-2.2,72,3.8,92.5L243.1,384c-6.4-15.4-26.2-16.5-43.8-26.4c-17.7-10-29.7-29.3-75.8-28.4
			C106.2,329.6,107,315.8,114.2,308z"/>
	</g>
</g>
<g id="Layer_8_1_" class="st2">
	<g class="st3">
		<path class="st4" d="M181.9,120.3c-11.1,0-20.1,9-20.1,20.1c0,2.9,0.6,5.6,1.8,8.2c5,11,14.7,22.6,17.5,25.9
			c0.2,0.2,0.5,0.4,0.8,0.4s0.6-0.1,0.8-0.4c2.8-3.3,12.5-14.9,17.5-25.9c1.2-2.6,1.8-5.3,1.8-8.2C202,129.3,193,120.3,181.9,120.3z
			 M181.9,150.8c-5.8,0-10.4-4.7-10.4-10.4c0-5.8,4.7-10.4,10.4-10.4c5.8,0,10.4,4.7,10.4,10.4C192.3,146.2,187.7,150.8,181.9,150.8
			z"/>
	</g>
</g>
<g id="Layer_11" class="st2">
	<g class="st3">
		<g id="Layer_1_4_">
			<g>
				<path class="st4" d="M257.2,219.5c-0.3-0.7-1-1.1-1.8-1.1h-5.8c-3.7-19.9-21.1-35-42.1-35c-23.6,0-42.8,19.2-42.8,42.8
					s19.2,42.8,42.8,42.8c15.2,0,29.5-8.2,37.1-21.4c1.1-1.9,0.4-4.2-1.4-5.3c-1.9-1.1-4.2-0.4-5.3,1.4
					c-6.3,10.8-17.9,17.5-30.3,17.5c-19.3,0-35-15.7-35-35c0-19.3,15.7-35,35-35c16.6,0,30.6,11.7,34.1,27.3h-5.7
					c-0.8,0-1.4,0.4-1.8,1.1c-0.3,0.7-0.2,1.5,0.3,2.1l9.7,11.7c0.4,0.4,0.9,0.7,1.5,0.7c0.6,0,1.1-0.3,1.5-0.7l9.7-11.7
					C257.4,221,257.5,220.2,257.2,219.5z"/>
				<path class="st4" d="M207.5,193.1c-2.2,0-3.9,1.7-3.9,3.9v23.6c-1.8,1.2-2.9,3.3-2.9,5.6c0,3.8,3.1,6.8,6.8,6.8
					c1,0,2-0.2,2.9-0.7l13.5,7.8c0.6,0.4,1.3,0.5,1.9,0.5c1.3,0,2.7-0.7,3.4-1.9c1.1-1.9,0.4-4.2-1.4-5.3l-13.6-7.8
					c-0.2-2.1-1.3-3.9-2.9-5V197C211.4,194.8,209.7,193.1,207.5,193.1z M207.5,229.1c-1.6,0-2.9-1.3-2.9-2.9c0-1.6,1.3-2.9,2.9-2.9
					s2.9,1.3,2.9,2.9C210.5,227.8,209.1,229.1,207.5,229.1z"/>
			</g>
		</g>
	</g>
</g>
<g id="Layer_12" class="st2">
	<path class="st5" d="M383.3,226.5l-44.3-44.3c-1.6-1.6-3.7-2.4-5.9-2.4h-36v-0.6c0-16.8-13.7-30.4-30.4-30.4h-133
		c-16.8,0-30.4,13.7-30.4,30.4V290c0,16.8,13.7,30.4,30.4,30.4h5.9c3.8,18.9,20.6,33.2,40.7,33.2c20.1,0,36.8-14.3,40.7-33.2H268
		c3.8,18.9,20.6,33.2,40.7,33.2c20.1,0,36.8-14.3,40.7-33.2h28c4.6,0,8.3-3.7,8.3-8.3v-79.8C385.7,230.2,384.8,228.1,383.3,226.5z
		 M329.7,196.4l27.8,27.8h-60.4v-27.8H329.7z M119.8,290V179.2c0-7.7,6.2-13.9,13.9-13.9h133c7.7,0,13.9,6.2,13.9,13.9v102.5
		c-6.2,5.8-10.7,13.5-12.5,22.1h-47.2c-3.8-18.9-20.6-33.2-40.7-33.2s-36.8,14.3-40.7,33.2h-5.9C126,303.9,119.8,297.7,119.8,290z
		 M180.2,337.1c-13.8,0-25-11.2-25-25c0-13.8,11.2-25,25-25c13.8,0,25,11.2,25,25C205.2,325.9,194,337.1,180.2,337.1z M308.7,337.1
		c-13.8,0-25-11.2-25-25c0-13.8,11.2-25,25-25c13.8,0,25,11.2,25,25C333.7,325.9,322.5,337.1,308.7,337.1z M349.4,303.9
		c-3.8-18.9-20.6-33.2-40.7-33.2c-4.1,0-8,0.6-11.7,1.7v-31.7h72.1v63.2L349.4,303.9L349.4,303.9z"/>
</g>
<g id="Layer_13" class="st2">
	<g class="st3">
		<path class="st4" d="M199.5,230.7c-10.3,0-18.7,8.4-18.7,18.7c0,10.3,8.4,18.7,18.7,18.7c10.3,0,18.7-8.4,18.7-18.7
			C218.2,239.1,209.8,230.7,199.5,230.7z M199.5,256.3c-3.8,0-6.9-3.1-6.9-6.9s3.1-6.9,6.9-6.9s6.9,3.1,6.9,6.9
			S203.2,256.3,199.5,256.3z"/>
		<path class="st4" d="M346.5,313.8h-122v-36.1c7.8-6.9,12.8-17.1,12.8-28.3c0-14-7.6-26.2-18.9-32.8L208,197.8h36.2
			c3.3,0,5.9-2.6,5.9-5.9V185h52.1v13.8h-19.7c-2,0-4,1.1-5,2.8c-1.1,1.7-1.2,3.9-0.3,5.8l12.8,25.6c1,2.1,3.1,3.3,5.3,3.3
			c0.9,0,1.8-0.2,2.6-0.6c2.9-1.5,4.1-5,2.6-7.9l-8.5-17h32l-8.5,17c-1.5,2.9-0.3,6.5,2.6,7.9c2.9,1.5,6.5,0.3,7.9-2.6l12.8-25.6
			c0.9-1.8,0.8-4-0.3-5.8c-1.1-1.7-3-2.8-5-2.8h-19.7V184c7.4-2.5,12.8-9.5,12.8-17.7c0-10.3-8.4-18.7-18.7-18.7h-58v-6.9
			c0-3.3-2.6-5.9-5.9-5.9h-89.5l0,0c-5.1,0-10.4,1.3-15.2,3.9c-7.4,4.1-12.7,10.7-15,18.8c-2.3,8.1-1.4,16.6,2.7,24l34.8,63.1
			c-0.2,1.6-0.3,3.2-0.3,4.8c0,1.5,0.1,2.9,0.3,4.3l-36.1,60.1h-9.4c-3.3,0-5.9,2.6-5.9,5.9v25.6c0,3.3,2.6,5.9,5.9,5.9h230.2
			c3.3,0,5.9-2.6,5.9-5.9v-25.6C352.4,316.5,349.8,313.8,346.5,313.8z M199.5,275.5c-14.4,0-26.1-11.7-26.1-26.1
			c0-14.4,11.7-26.1,26.1-26.1s26.1,11.7,26.1,26.1C225.5,263.8,213.8,275.5,199.5,275.5z M308.2,173.2c-3.8,0-6.9-3.1-6.9-6.9
			s3.1-6.9,6.9-6.9s6.9,3.1,6.9,6.9S311.9,173.2,308.2,173.2z M290.8,159.4c-0.8,2.1-1.3,4.4-1.3,6.9c0,2.4,0.5,4.7,1.3,6.9h-40.6
			v-13.8H290.8z M238.3,186h-36.8l-19.2-34.9c-0.9-1.6-1.9-3.1-3-4.5h59V186z M137.5,175.8c-5.2-9.5-1.8-21.5,7.7-26.7
			c3-1.7,6.3-2.4,9.5-2.4c6.9,0,13.7,3.7,17.3,10.2l30.2,54.8c-0.9-0.1-1.8-0.1-2.7-0.1c-13.6,0-25.6,7.3-32.3,18.1L137.5,175.8z
			 M166.8,268.5c6.6,11.2,18.8,18.8,32.7,18.8c4.7,0,9.1-0.9,13.3-2.4v28.9h-73.2L166.8,268.5z M340.6,339.4H122.3v-13.8h218.4
			L340.6,339.4L340.6,339.4z"/>
	</g>
	<rect x="252.5" y="256.8" class="st14" width="73" height="63.2"/>
</g>
<g id="Layer_14" class="st2">
	<g class="st3">
		<path class="st4" d="M170.2,236.8h-35.1c-4.6,0-8.4,3.8-8.4,8.4V333c0,4.6,3.8,8.4,8.4,8.4h35.1c4.6,0,8.4-3.8,8.4-8.4v-87.8
			C178.6,240.5,174.8,236.8,170.2,236.8z M161.8,324.6h-18.3v-71h18.3V324.6z"/>
		<path class="st4" d="M236.2,190.3h-35.1c-4.6,0-8.4,3.8-8.4,8.4V333c0,4.6,3.8,8.4,8.4,8.4h35.1c4.6,0,8.4-3.8,8.4-8.4V198.7
			C244.6,194,240.8,190.3,236.2,190.3z M227.8,324.6h-18.3V207.1h18.3C227.8,207.1,227.8,324.6,227.8,324.6z"/>
		<path class="st4" d="M302.2,243.7h-35.1c-4.6,0-8.4,3.8-8.4,8.4V333c0,4.6,3.8,8.4,8.4,8.4h35.1c4.6,0,8.4-3.8,8.4-8.4v-80.9
			C310.6,247.4,306.8,243.7,302.2,243.7z M293.8,324.6h-18.3v-64.1h18.3V324.6z"/>
		<path class="st4" d="M368.2,193.4h-35.1c-4.6,0-8.4,3.8-8.4,8.4V333c0,4.6,3.8,8.4,8.4,8.4h35.1c4.6,0,8.4-3.8,8.4-8.4V201.8
			C376.5,197.1,372.8,193.4,368.2,193.4z M359.8,324.6h-18.3V210.2h18.3L359.8,324.6L359.8,324.6z"/>
		<path class="st4" d="M279.7,208.6c3.1,2.2,7.2,2.1,10.2-0.2l62.7-50.1l-0.3,8.3c-0.2,4.6,3.5,8.5,8.1,8.7c0.1,0,0.2,0,0.3,0
			c4.5,0,8.2-3.6,8.4-8.1l1-29.3c0.1-2.3-0.8-4.6-2.5-6.2c-1.6-1.6-3.9-2.5-6.2-2.5l-29.3,1c-4.6,0.2-8.3,4-8.1,8.7
			c0.2,4.6,4,8.3,8.7,8.1l7.7-0.3l-55.9,44.6L220.8,145c-2.8-2-6.5-2.1-9.4-0.3l-94.6,60.1c-3.9,2.5-5.1,7.7-2.6,11.6
			c1.6,2.5,4.3,3.9,7.1,3.9c1.5,0,3.1-0.4,4.5-1.3l89.8-57L279.7,208.6z"/>
	</g>
</g>
<g id="Layer_15" class="st2">
	<g class="st3">
		<g>
			<path class="st4" d="M363.3,110.5H138.8c-6.6,0-12,5.4-12,12v149.9c0,6.6,5.4,12,12,12h115c2.3,0,4.1-1.9,4.1-4.1
				s-1.9-4.1-4.1-4.1h-115c-2,0-3.7-1.7-3.7-3.7V122.4c0-2,1.7-3.7,3.7-3.7h224.5c2,0,3.7,1.7,3.7,3.7v95.3c0,2.3,1.9,4.1,4.1,4.1
				s4.1-1.9,4.1-4.1v-95.3C375.3,115.8,369.9,110.5,363.3,110.5z"/>
		</g>
	</g>
	<g class="st3">
		<g>
			<path class="st4" d="M358.7,122.9H143.4c-2.3,0-4.1,1.9-4.1,4.1v140.8c0,2.3,1.9,4.1,4.1,4.1h111.8c2.3,0,4.1-1.9,4.1-4.1
				s-1.9-4.1-4.1-4.1H147.5V131.2h207v8.3c0,2.3,1.9,4.1,4.1,4.1c2.3,0,4.1-1.9,4.1-4.1V127C362.9,124.7,361,122.9,358.7,122.9z"/>
		</g>
	</g>
	<g class="st3">
		<g>
			<path class="st4" d="M255.2,276.1h-16.6c-2.3,0-4.1,1.9-4.1,4.1v29c0,2.3,1.9,4.1,4.1,4.1h16.6c2.3,0,4.1-1.9,4.1-4.1v-29
				C259.3,277.9,257.5,276.1,255.2,276.1z M251.1,305.1h-8.3v-20.7h8.3V305.1z"/>
		</g>
	</g>
	<g class="st3">
		<g>
			<path class="st4" d="M255.2,305.1h-45.5c-2.3,0-4.1,1.9-4.1,4.1s1.9,4.1,4.1,4.1h45.5c2.3,0,4.1-1.9,4.1-4.1
				S257.5,305.1,255.2,305.1z"/>
		</g>
	</g>
	<g class="st3">
		<g>
			<path class="st4" d="M362.9,139.4h-99.5c-6.8,0-12.4,5.6-12.4,12.4v198.8c0,6.8,5.6,12.4,12.4,12.4h99.5
				c6.8,0,12.4-5.6,12.4-12.4V151.8C375.3,145,369.7,139.4,362.9,139.4z M367,350.7c0,2.3-1.8,4.1-4.1,4.1h-99.5
				c-2.3,0-4.1-1.8-4.1-4.1V151.8c0-2.3,1.8-4.1,4.1-4.1h99.5c2.3,0,4.1,1.8,4.1,4.1V350.7L367,350.7z"/>
		</g>
	</g>
	<g class="st3">
		<g>
			<path class="st4" d="M358.7,151.9h-91.1c-2.3,0-4.1,1.9-4.1,4.1v161.5c0,2.3,1.9,4.1,4.1,4.1h91.1c2.3,0,4.1-1.9,4.1-4.1V156
				C362.9,153.7,361,151.9,358.7,151.9z M354.6,313.4h-82.8V160.2h82.8V313.4z"/>
		</g>
	</g>
	<g class="st3">
		<g>
			<path class="st4" d="M313.2,325.8c-6.8,0-12.4,5.6-12.4,12.4s5.6,12.4,12.4,12.4c6.8,0,12.4-5.6,12.4-12.4S320,325.8,313.2,325.8
				z M313.2,342.3c-2.3,0-4.1-1.9-4.1-4.1c0-2.3,1.9-4.1,4.1-4.1c2.3,0,4.1,1.9,4.1,4.1S315.5,342.3,313.2,342.3z"/>
		</g>
	</g>
	<g class="st3">
		<g>
			<path class="st4" d="M295.4,169.6c-1.6-1.6-4.2-1.6-5.9,0L279.2,180c-1.6,1.6-1.6,4.2,0,5.9c0.8,0.8,1.9,1.2,2.9,1.2
				s2.1-0.4,2.9-1.2l10.4-10.4C297,173.9,297,171.3,295.4,169.6z"/>
		</g>
	</g>
	<g class="st3">
		<g>
			<path class="st4" d="M312,169.6c-1.6-1.6-4.2-1.6-5.9,0l-22.8,22.8c-1.6,1.6-1.6,4.2,0,5.9c0.8,0.8,1.9,1.2,2.9,1.2
				s2.1-0.4,2.9-1.2l22.8-22.8C313.6,173.9,313.6,171.3,312,169.6z"/>
		</g>
	</g>
	<g class="st3">
		<g>
			<path class="st4" d="M175.3,144.8c-1.6-1.6-4.2-1.6-5.9,0l-10.4,10.4c-1.6,1.6-1.6,4.2,0,5.9c0.8,0.8,1.9,1.2,2.9,1.2
				s2.1-0.4,2.9-1.2l10.4-10.4C176.9,149,176.9,146.4,175.3,144.8z"/>
		</g>
	</g>
	<g class="st3">
		<g>
			<path class="st4" d="M191.9,144.8c-1.6-1.6-4.2-1.6-5.9,0l-22.8,22.8c-1.6,1.6-1.6,4.2,0,5.9c0.8,0.8,1.9,1.2,2.9,1.2
				c1.1,0,2.1-0.4,2.9-1.2l22.8-22.8C193.5,149,193.5,146.4,191.9,144.8z"/>
		</g>
	</g>
</g>
<g id="Layer_16" class="st2">
	<g class="st3">
		<g>
			<path class="st4" d="M392.7,303.6c0-0.6,0-1.2-0.1-1.8c0-0.6,0-1.2-0.1-1.8l0-0.5l0-0.2l0-0.1l0-0.5l0,0l0-0.1l-0.1-0.8
				c-0.1-1-0.2-2.1-0.2-3.1l-0.1-0.8l-0.1-1c-0.1-0.7-0.1-1.3-0.2-2c-0.1-0.7-0.1-1.3-0.2-2c0-0.3-0.1-0.7-0.1-1
				c0-0.3-0.1-0.6-0.1-0.9c-0.3-2.4-0.6-4.8-1.1-7.1c-0.2-1.1-0.4-2.3-0.6-3.4c-0.2-1.1-0.5-2.2-0.7-3.2c-0.4-2.1-0.9-4-1.4-5.8
				c-0.1-0.4-0.2-0.9-0.3-1.3c-0.1-0.4-0.2-0.8-0.3-1.3c-0.2-0.8-0.4-1.6-0.7-2.3c-0.2-0.7-0.4-1.4-0.6-2c-0.2-0.6-0.4-1.2-0.5-1.7
				c-0.2-0.8-0.4-1.4-0.6-1.9c-0.2-0.7-1-1.2-1.8-0.9l-47.3,13.5c-0.7,0.2-1.2,0.9-1,1.7c0.1,0.3,0.1,0.6,0.2,0.9
				c0.1,0.4,0.1,0.7,0.2,1.2c0.1,0.4,0.1,0.9,0.2,1.4c0.1,0.5,0.2,1,0.2,1.6c0,0.3,0.1,0.6,0.1,0.9c0,0.3,0.1,0.6,0.1,0.9
				c0.1,1.2,0.3,2.6,0.4,4c0.1,0.7,0.1,1.4,0.2,2.2c0,0.7,0.1,1.5,0.1,2.3c0.1,1.5,0.1,3.1,0.1,4.7l0,0.6l0,0.5c0,0.4,0,0.7,0,1.1
				c0,0.4,0,0.7,0,1.1l0,0.5l0,0.8c0,1-0.1,2.1-0.1,3.1l0,0.8l0,0.1l0,0c0,0.1,0-0.9,0-0.5l0,0l0,0.2l0,0.3c0,0.4-0.1,0.8-0.1,1.2
				c0,0.4-0.1,0.8-0.1,1.2c0,0.4-0.1,0.8-0.1,1.2c-0.1,0.8-0.2,1.6-0.3,2.3c-0.1,0.8-0.2,1.5-0.3,2.2c-0.1,0.7-0.2,1.4-0.4,2.1
				c-0.1,0.7-0.3,1.3-0.4,2c-0.1,0.6-0.2,1.3-0.4,1.8c-0.1,0.6-0.3,1.2-0.4,1.7c-0.1,0.3-0.1,0.5-0.2,0.8c-0.1,0.2-0.1,0.4-0.2,0.6
				c0,0.1-0.1,0.2-0.1,0.4h57.8c0.8,0,1.4-0.6,1.4-1.4c0,0,0,0,0,0c0-1.1,0.1-2.2,0.1-3.3c0-1.1,0-2.3,0.1-3.5c0-1.2,0-2.4,0-3.6
				C392.7,304.8,392.7,304.2,392.7,303.6z"/>
			<path class="st4" d="M377.7,243c0.8-0.3,1.1-1.2,0.8-2c-0.2-0.3-0.3-0.7-0.6-1.2c-0.2-0.4-0.4-0.9-0.7-1.4c-0.3-0.6-0.6-1.3-1-2
				c-0.4-0.7-0.7-1.5-1.1-2.3c-0.2-0.4-0.4-0.8-0.6-1.2c-0.2-0.4-0.4-0.8-0.6-1.2c-0.4-0.8-0.9-1.7-1.4-2.5c-0.5-0.9-1-1.7-1.5-2.6
				c-0.3-0.5-0.5-0.9-0.8-1.4c-0.3-0.5-0.6-0.9-0.9-1.4c-0.6-0.9-1.2-1.9-1.8-2.9c-1.3-1.9-2.6-3.9-4-5.8c-0.4-0.5-0.7-1-1.1-1.5
				l-0.5-0.7l-0.6-0.7c-0.7-1-1.5-1.9-2.2-2.9c-0.8-1-1.5-1.9-2.3-2.8c-0.4-0.5-0.8-0.9-1.2-1.4c-0.4-0.5-0.8-0.9-1.2-1.4
				c-0.4-0.4-0.8-0.9-1.2-1.3c-0.4-0.4-0.8-0.9-1.2-1.3c-0.8-0.9-1.6-1.7-2.4-2.5c-0.8-0.8-1.6-1.6-2.4-2.4
				c-0.8-0.8-1.5-1.5-2.3-2.2c-0.8-0.7-1.5-1.4-2.2-2.1c-0.7-0.7-1.4-1.3-2.1-1.9c-0.7-0.6-1.3-1.2-2-1.7c-0.6-0.5-1.2-1-1.8-1.5
				c-0.6-0.5-1.1-0.9-1.6-1.3c-0.5-0.4-1-0.8-1.4-1.1c-0.6-0.5-1.1-0.9-1.5-1.2c-0.6-0.5-1.5-0.4-2,0.2l-25.4,30.7
				c-0.5,0.6-0.4,1.4,0.1,2c0.2,0.2,0.5,0.5,0.7,0.7c0.3,0.3,0.6,0.5,0.9,0.9c0.3,0.3,0.6,0.7,1,1.1c0.4,0.4,0.7,0.8,1.1,1.2
				c0.4,0.4,0.8,0.9,1.2,1.4c0.4,0.5,0.9,1,1.3,1.5c0.4,0.5,0.9,1.1,1.4,1.6c0.5,0.6,0.9,1.2,1.4,1.8c0.5,0.6,1,1.2,1.4,1.9
				c0.5,0.6,0.9,1.3,1.4,2c0.2,0.3,0.5,0.7,0.7,1c0.2,0.3,0.5,0.7,0.7,1c0.2,0.3,0.5,0.7,0.7,1c0.2,0.3,0.5,0.7,0.7,1.1
				c0.4,0.7,0.9,1.4,1.4,2.1c0.4,0.7,0.9,1.5,1.3,2.2l0.3,0.5l0.3,0.6c0.2,0.4,0.4,0.7,0.6,1.1c0.8,1.4,1.5,2.9,2.2,4.3
				c0.3,0.7,0.7,1.4,1,2.1c0.2,0.3,0.3,0.7,0.5,1c0.1,0.3,0.3,0.7,0.4,1c0.3,0.7,0.6,1.3,0.8,1.9c0.2,0.6,0.5,1.2,0.7,1.8
				c0.1,0.3,0.2,0.6,0.3,0.9c0.1,0.3,0.2,0.6,0.3,0.8c0.2,0.5,0.3,0.9,0.5,1.4c0.1,0.4,0.3,0.8,0.4,1.2c0.2,0.5,0.3,1,0.5,1.4
				c0.2,0.5,0.3,0.9,0.4,1.2c0.3,0.8,1.1,1.2,1.9,0.9L377.7,243z"/>
			<path class="st4" d="M248.6,188.1c0.4,0.1,0.8,0.1,1.3,0.2c0.5,0.1,1,0.2,1.5,0.3c0.5,0.1,1.1,0.2,1.7,0.3
				c0.5,0.1,1.1,0.2,1.6,0.3l16-32.7c-0.8-0.1-1.6-0.2-2.4-0.4c-0.5-0.1-1-0.2-1.6-0.2c-0.5-0.1-1-0.1-1.5-0.2c-1-0.1-2-0.2-2.9-0.3
				c-1-0.1-1.9-0.2-2.8-0.2c-0.9-0.1-1.7-0.2-2.5-0.2c-0.8,0-1.6-0.1-2.3-0.1c-0.7,0-1.4-0.1-2-0.1c-0.6,0-1.2,0-1.7,0
				c-0.7,0-1.3,0-1.8,0c-0.8,0-1.4,0.6-1.5,1.4l-1.5,30.5c0,0.8,0.5,1.4,1.3,1.5C247.8,188,248.1,188.1,248.6,188.1z"/>
			<path class="st4" d="M291.6,204.9c0.4,0.3,0.8,0.6,1.2,0.9c0.4,0.3,0.7,0.5,1.1,0.8c0.1,0.1,0.4,0.3,0.6,0.4
				c0.2,0.1,0.4,0.3,0.6,0.4c0.4,0.3,0.7,0.6,1,0.8c0.7,0.5,1.6,0.3,2.1-0.4L319,176c0.5-0.7,0.2-1.6-0.5-2.1
				c-0.3-0.2-0.7-0.4-1.1-0.6c-0.2-0.1-0.4-0.2-0.6-0.4c-0.2-0.1-0.5-0.3-0.7-0.4c-0.6-0.3-1.2-0.7-1.9-1.1
				c-0.7-0.4-1.4-0.8-2.2-1.2c-0.7-0.4-1.5-0.8-2.3-1.2c-0.8-0.4-1.6-0.8-2.5-1.2c-0.9-0.4-1.8-0.8-2.7-1.3
				c-0.9-0.4-1.9-0.8-2.9-1.3c-1-0.4-2-0.9-3.1-1.3c-0.3-0.1-0.5-0.2-0.8-0.3l-9,39.1c0.5,0.3,1,0.6,1.4,0.9
				C290.6,204.2,291.1,204.6,291.6,204.9z"/>
			<path class="st4" d="M220.5,188c0.4-0.1,0.8-0.1,1.2-0.2c0.4,0,0.8-0.1,1.2-0.1c0.8-0.1,1.5-0.2,2.2-0.2c0.7,0,1.4-0.1,2.1-0.1
				c0.3,0,0.7,0,1-0.1c0.3,0,0.6,0,0.9,0c0.6,0,1.1,0,1.6,0c0.5,0,1,0,1.4,0c0.5,0,1,0,1.5,0c0.5,0,0.9,0,1.3,0
				c0.8,0,1.5-0.7,1.4-1.5l-1.9-28.7c-0.1-0.8-0.8-1.4-1.6-1.3c-0.4,0-0.8,0.1-1.3,0.2c-0.5,0.1-1,0.1-1.5,0.2
				c-0.6,0.1-1.3,0.2-2.1,0.3c-0.7,0.1-1.5,0.2-2.4,0.4c-0.4,0.1-0.8,0.1-1.2,0.2c-0.4,0.1-0.8,0.2-1.3,0.2
				c-0.9,0.2-1.7,0.3-2.7,0.5c-0.9,0.2-1.9,0.4-2.8,0.6c-0.5,0.1-1,0.2-1.5,0.3c-0.5,0.1-1,0.3-1.5,0.4c-1,0.3-2,0.5-3.1,0.8
				c-1,0.3-2.1,0.6-3.2,1c-0.5,0.2-1.1,0.3-1.6,0.5c-0.5,0.2-1.1,0.4-1.6,0.5c-0.5,0.2-1.1,0.4-1.6,0.6c-0.5,0.2-1.1,0.4-1.6,0.6
				c-1.1,0.4-2.1,0.8-3.2,1.2c-1.1,0.4-2.1,0.9-3.2,1.3c-0.5,0.2-1.1,0.4-1.6,0.7c-0.5,0.2-1,0.5-1.5,0.7c-0.5,0.2-1,0.5-1.5,0.7
				c-0.5,0.2-1,0.5-1.5,0.7c-1,0.5-2,1-2.9,1.5c-1,0.5-1.9,1-2.8,1.5c-0.9,0.5-1.8,1-2.6,1.5c-0.8,0.5-1.7,1-2.5,1.5
				c-0.8,0.5-1.5,1-2.3,1.4c-0.7,0.5-1.4,0.9-2.1,1.3c-0.6,0.4-1.2,0.9-1.8,1.2c-0.6,0.4-1.1,0.8-1.6,1.1c-0.5,0.3-0.9,0.7-1.3,1
				c-0.5,0.4-1,0.7-1.4,1c-0.6,0.5-0.8,1.3-0.3,2l11.9,17.5c0.4,0.6,1.3,0.8,1.9,0.4c0.3-0.2,0.7-0.4,1.1-0.6
				c0.4-0.2,0.7-0.4,1.2-0.7c0.4-0.2,0.9-0.5,1.4-0.7c0.5-0.3,1-0.5,1.6-0.8c0.6-0.3,1.2-0.6,1.8-0.9c0.6-0.3,1.3-0.6,2-0.9
				c0.7-0.3,1.4-0.6,2.1-0.9c0.7-0.3,1.5-0.6,2.3-0.9c0.8-0.3,1.5-0.6,2.4-0.9c0.8-0.3,1.6-0.6,2.5-0.9c0.4-0.2,0.8-0.3,1.3-0.4
				c0.4-0.1,0.9-0.3,1.3-0.4c0.4-0.1,0.9-0.3,1.3-0.4c0.4-0.1,0.9-0.2,1.3-0.4c0.9-0.2,1.7-0.5,2.6-0.7c0.9-0.2,1.8-0.4,2.6-0.7
				c0.4-0.1,0.9-0.2,1.3-0.3c0.4-0.1,0.9-0.2,1.3-0.3c0.4-0.1,0.9-0.2,1.3-0.3c0.4-0.1,0.9-0.2,1.3-0.2c0.9-0.1,1.7-0.3,2.5-0.4
				C218.9,188.2,219.7,188.1,220.5,188z"/>
			<path class="st4" d="M139.2,210.6c-0.3,0.4-0.6,0.9-0.9,1.3c-0.3,0.4-0.6,0.9-0.9,1.3c-0.3,0.4-0.6,0.9-0.9,1.4
				c-0.6,0.9-1.2,1.8-1.8,2.8c-0.6,0.9-1.2,1.9-1.7,2.8l-0.4,0.7l-0.4,0.7c-0.3,0.5-0.5,0.9-0.8,1.4c-1.1,1.9-2.1,3.8-3,5.6
				c-0.5,0.9-0.9,1.8-1.3,2.7c-0.2,0.4-0.4,0.9-0.6,1.3c-0.2,0.4-0.4,0.9-0.6,1.3c-0.4,0.9-0.8,1.7-1.1,2.5c-0.3,0.8-0.7,1.6-1,2.4
				c-0.3,0.8-0.6,1.5-0.9,2.2c-0.3,0.7-0.5,1.4-0.7,2c-0.2,0.6-0.4,1.2-0.7,1.7c-0.2,0.5-0.4,1-0.5,1.5c-0.2,0.6-0.4,1.1-0.5,1.5
				c-0.2,0.7,0.1,1.5,0.9,1.8l11.1,4.3c0.7,0.3,1.5,0,1.8-0.7c0.2-0.3,0.4-0.7,0.6-1.2c0.2-0.4,0.4-0.8,0.6-1.3
				c0.2-0.5,0.5-0.9,0.8-1.5c0.3-0.5,0.6-1.1,0.9-1.7c0.3-0.6,0.7-1.2,1-1.8c0.4-0.6,0.7-1.3,1.1-2c0.4-0.7,0.8-1.4,1.3-2.1
				c0.2-0.4,0.4-0.7,0.7-1.1c0.2-0.4,0.5-0.7,0.7-1.1c0.5-0.7,1-1.5,1.4-2.2c1-1.5,2.1-3,3.2-4.5c0.3-0.4,0.6-0.8,0.8-1.1l0.4-0.6
				l0.4-0.6c0.6-0.7,1.2-1.5,1.8-2.2c0.6-0.7,1.2-1.5,1.8-2.2c0.3-0.4,0.6-0.7,0.9-1.1c0.3-0.4,0.6-0.7,0.9-1c0.3-0.3,0.6-0.7,0.9-1
				c0.3-0.3,0.6-0.7,0.9-1c0.6-0.7,1.3-1.3,1.9-2c0.6-0.6,1.3-1.2,1.9-1.8c0.6-0.6,1.2-1.2,1.8-1.7c0.6-0.5,1.2-1.1,1.8-1.6
				c0.6-0.5,1.1-1,1.7-1.4c0.5-0.5,1.1-0.9,1.5-1.3c0.5-0.4,0.9-0.7,1.4-1.1c0.4-0.3,0.8-0.7,1.2-1c0.2-0.1,0.4-0.3,0.6-0.5
				c0.2-0.2,0.4-0.3,0.6-0.4c0.4-0.3,0.7-0.6,1-0.8c0.7-0.5,0.8-1.5,0.2-2.1l-12.6-14.8c-0.5-0.6-1.5-0.7-2.1-0.1
				c-0.3,0.3-0.6,0.6-0.9,0.9c-0.2,0.2-0.3,0.3-0.5,0.5c-0.2,0.2-0.4,0.3-0.6,0.6c-0.4,0.4-0.9,0.9-1.4,1.4c-0.5,0.5-1,1-1.6,1.6
				c-0.5,0.6-1.1,1.2-1.6,1.8c-0.6,0.6-1.2,1.2-1.8,1.9c-0.6,0.7-1.2,1.4-1.8,2.1c-0.6,0.7-1.2,1.5-1.9,2.3
				c-0.6,0.8-1.3,1.6-1.9,2.4c-0.6,0.8-1.3,1.7-1.9,2.5C139.8,209.7,139.5,210.2,139.2,210.6z"/>
			<path class="st4" d="M116.3,262.5c-0.1,0.4-0.2,0.8-0.3,1.3c-0.1,0.4-0.2,0.9-0.3,1.5c-0.1,0.5-0.2,1.2-0.3,1.8
				c-0.1,0.7-0.2,1.4-0.4,2.1c-0.1,0.4-0.1,0.8-0.2,1.1c-0.1,0.4-0.1,0.8-0.2,1.2c-0.2,1.6-0.5,3.3-0.6,5.2
				c-0.1,0.9-0.2,1.9-0.3,2.8c-0.1,1-0.1,2-0.2,3c-0.2,2-0.2,4.1-0.3,6.2l0,0.8l0,0.8c0,0.5,0,1.1,0,1.6c0,0.5,0,1.1,0,1.6l0,0.8
				l0,0.8c0,1.1,0.1,2.1,0.1,3.2l0,0.8l0,0.3l0,0.2l0,0.4c0,0.5,0.1,1,0.1,1.5c0,0.5,0.1,1,0.1,1.5c0.1,0.5,0.1,1,0.2,1.6
				c0.1,0.5,0.1,1,0.2,1.5c0,0.3,0.1,0.5,0.1,0.8c0,0.2,0.1,0.5,0.1,0.7c0.1,1,0.2,2,0.4,2.9c0.1,0.9,0.3,1.9,0.4,2.8
				c0.1,0.9,0.3,1.8,0.4,2.6c0,0.1,0,0.1,0,0.2c0.1,0.7,0.7,1.2,1.4,1.2h3.9c0.8,0,1.5-0.7,1.4-1.5c0-0.2,0-0.4,0-0.7
				c0-0.8-0.1-1.6-0.1-2.5c0-0.9-0.1-1.7-0.1-2.7c0-0.9,0-1.8,0-2.8c0-0.2,0-0.5,0-0.7c0-0.2,0-0.5,0-0.7c0-0.5,0-0.9,0-1.4
				c0-0.5,0-1,0-1.4c0-0.5,0-1,0.1-1.5c0-0.5,0-1,0.1-1.5l0-0.4l0-0.2l0,0c0-0.1,0,0.1,0,0l0,0l0-0.1l0.1-0.7c0.1-1,0.2-2,0.2-3
				l0.1-0.7l0.1-0.7c0.1-0.5,0.1-1,0.2-1.5c0.1-0.5,0.1-1,0.2-1.5l0.1-0.7l0.1-0.7c0.3-1.9,0.6-3.8,0.9-5.7c0.2-0.9,0.3-1.8,0.5-2.7
				c0.2-0.9,0.4-1.7,0.6-2.5c0.3-1.7,0.8-3.2,1.1-4.6c0.1-0.4,0.2-0.7,0.3-1c0.1-0.3,0.2-0.7,0.3-1c0.2-0.6,0.4-1.2,0.5-1.8
				c0.2-0.6,0.3-1.1,0.5-1.6c0.2-0.5,0.3-1,0.5-1.4c0.2-0.5,0.3-0.9,0.4-1.2c0.3-0.8-0.2-1.6-1-1.9l-9.8-2.6
				C117.3,261.2,116.4,261.7,116.3,262.5z"/>
			<path class="st4" d="M227.2,313.3c3.2,1.6,6.6,2.3,9.9,2.3c8.3,0,16.4-4.7,20.3-12.7c0.8-1.5,1.3-3.2,1.7-4.8L282,199l8.7-37.7
				l5.4-23.4c0.6-2.7-1.5-4.6-3.7-4.6c-1.3,0-2.5,0.6-3.3,2.1l-11,22.4L261.9,191l-45.1,92.2C211.4,294.3,216,307.8,227.2,313.3z
				 M238,281.4c6.1,0,11.1,5,11.1,11.1c0,6.1-5,11.1-11.1,11.1c-6.1,0-11.1-5-11.1-11.1C226.9,286.4,231.9,281.4,238,281.4z"/>
		</g>
	</g>
</g>
<g id="Layer_17" class="st2">
	<path class="st5" d="M141.5,360.2c0.5,2.7,3.1,4.6,5.8,4.1l41.1-7.2c2.7-0.5,4.6-3.1,4.1-5.8l-0.8-4.6l9.6-7.8
		c3.8-3.1,8.6-4.7,13.5-4.3l67.1,4.9c0.1,0,0.2,0,0.3,0h0.4c14.8,0,29.2-4.7,41.2-13.5c0.2-0.1,0.4-0.3,0.5-0.5l79.9-78.2
		c1.9-1.9,2-4.9,0.3-6.9c-9.2-10.6-25.2-12.2-36.2-3.5l-36.7,27.4c-7.6-9.3-19.7-13.7-31.5-11.7l-37.5,6.6c-6,1-12.1,0.7-17.9-0.9
		l-4.2-1.2c-21.6-6.2-44.8-1.4-62.1,12.9l-1.6-9c-0.5-2.7-3.1-4.6-5.8-4.1l-41.1,7.2c-2.7,0.5-4.6,3.1-4.1,5.8L141.5,360.2z
		 M237.7,266.8l4.2,1.2c7.3,2.1,15,2.5,22.4,1.2l37.5-6.6c10.7-1.9,21.3,4,25.5,14l-56.1,9.8c-2.6,0.4-4.4,2.8-4.2,5.4
		c0.2,2.6,2.4,4.6,5,4.6c0.3,0,0.6,0,0.9-0.1l61.6-10.8c2.7-0.5,4.6-3.1,4.1-5.8c-0.4-2.3-1-4.5-1.9-6.7l37.6-28.1
		c0,0,0.1-0.1,0.1-0.1c5.4-4.3,13-4.7,18.8-1l-75.7,74.2c-10.2,7.3-22.4,11.3-34.9,11.3h-0.2l-66.9-4.9c-7.5-0.6-14.8,1.8-20.6,6.6
		l-5.2,4.2l-9.4-53.5C195.4,266.7,217.3,261,237.7,266.8z M167.7,267.7l14.1,80.3l-31.2,5.5l-14.1-80.3L167.7,267.7z"/>
	<path class="st5" d="M278.3,245c37.8,0,68.4-30.6,68.4-68.4s-30.6-68.4-68.4-68.4c-37.8,0-68.4,30.6-68.4,68.4
		C209.9,214.3,240.5,244.9,278.3,245z M278.3,118.2c32.2,0,58.3,26.1,58.3,58.3s-26.1,58.3-58.3,58.3c-32.2,0-58.3-26.1-58.3-58.3
		C220,144.4,246.1,118.3,278.3,118.2z"/>
	<path class="st5" d="M274.8,187.1h28.2c2.8,0,5-2.3,5-5c0-2.8-2.3-5-5-5h-23.4v-32.2c0-2.8-2.3-5-5-5c-2.8,0-5,2.3-5,5v37
		C269.6,184.7,271.9,187,274.8,187.1z"/>
</g>
<g id="Layer_18">
	<path class="st4" d="M238.7,140.6l-4,0l-8.6,0c0-0.1,0-0.3,0-0.4v-13.6h-14.9v13.5c0,0.1,0,0.3,0,0.4l-8.6,0l-4,0
		c-5.2,0-9.4,4.2-9.4,9.4l0,19.3h58.8l0-19.3C248.1,144.8,243.9,140.6,238.7,140.6L238.7,140.6z"/>
	<path class="st4" d="M346.5,140.6l-4,0l-8.6,0c0-0.1,0-0.3,0-0.4v-13.6h-14.9v13.5c0,0.1,0,0.3,0,0.4l-8.6,0l-4,0
		c-5.2,0-9.4,4.2-9.4,9.4l0,19.3h58.8l0-19.3C355.9,144.8,351.7,140.6,346.5,140.6L346.5,140.6z"/>
	<path class="st4" d="M346.5,140.6l-4,0l-5.1,0v0l1,0c5.2,0,9.4,4.2,9.4,9.4l0,19.3h8.1l0-19.3C355.9,144.8,351.7,140.6,346.5,140.6
		z"/>
	<path class="st4" d="M198.7,140.6l4,0l5.1,0v0l-1,0c-5.2,0-9.4,4.2-9.4,9.4l0,19.3h-8.1l0-19.3
		C189.3,144.8,193.5,140.6,198.7,140.6z"/>
	<ellipse class="st4" cx="272.7" cy="339" rx="36.4" ry="36.4"/>
	<path class="st4" d="M172.8,169.2l63.4,96.1v37.3H309v-37.3l63.4-96.1L172.8,169.2z"/>
	<path class="st4" d="M272.6,302.7c-1.6,0-3.1,0.1-4.6,0.3c17.9,2.3,31.8,17.6,31.8,36.1s-13.9,33.8-31.8,36.1
		c1.5,0.2,3.1,0.3,4.6,0.3c20.1,0,36.4-16.3,36.4-36.4S292.7,302.7,272.6,302.7z"/>
	<path class="st4" d="M272.6,302.7c1.6,0,3.1,0.1,4.6,0.3c-17.9,2.3-31.8,17.6-31.8,36.1s13.9,33.8,31.8,36.1
		c-1.5,0.2-3.1,0.3-4.6,0.3c-20.1,0-36.4-16.3-36.4-36.4S252.5,302.7,272.6,302.7z"/>
	<path class="st4" d="M360.9,169.2l-63.4,96.1v37.3H309v-37.3l63.4-96.1L360.9,169.2z"/>
	<path class="st4" d="M184.3,169.2l63.4,96.1v37.3h-11.5v-37.3l-63.4-96.1L184.3,169.2z"/>
	<path class="st4" d="M319.1,126.6h14.9v14.3c0,4.1-3.3,7.4-7.4,7.4c-4.1,0-7.4-3.3-7.4-7.4L319.1,126.6z"/>
	<path class="st4" d="M326.5,150.7c-5.4,0-9.8-4.4-9.8-9.8v-14.3c0-1.3,1.1-2.4,2.4-2.4h14.9c1.3,0,2.4,1.1,2.4,2.4v14.3
		C336.3,146.3,331.9,150.7,326.5,150.7L326.5,150.7z M321.5,129v11.9c0,2.8,2.3,5,5,5c2.8,0,5-2.3,5-5V129H321.5z"/>
	<path class="st7" d="M355.9,171.6h-58.8c-0.6,0-1.2-0.3-1.7-0.7c-0.4-0.4-0.7-1.1-0.7-1.7l0-19.3c0-6.5,5.3-11.8,11.8-11.8h0
		l10.2,0l0-11.6c0-1.3,1.1-2.4,2.4-2.4h14.9c1.3,0,2.4,1.1,2.4,2.4v11.6l10.2,0c3.1,0,6.1,1.2,8.3,3.5c2.2,2.2,3.4,5.2,3.4,8.3
		l0,19.3C358.2,170.6,357.2,171.6,355.9,171.6L355.9,171.6z M299.4,166.9h54l0-16.9c0-1.9-0.7-3.6-2.1-5c-1.3-1.3-3.1-2.1-5-2.1
		l-12.6,0c-0.7,0-1.3-0.3-1.7-0.7c-0.4-0.5-0.7-1.1-0.6-1.8l0-0.3v-11.2h-10.1l0,11.3c0,0.7-0.2,1.3-0.6,1.8
		c-0.5,0.5-1.1,0.8-1.7,0.8c0,0,0,0,0,0l-12.6,0c0,0,0,0,0,0c-3.9,0-7,3.1-7,7L299.4,166.9z"/>
	<path class="st4" d="M326.5,136.2c-8.3,0-15-6.8-15-15.2v-10.5c0-8.4,6.7-15.2,15-15.2c8.3,0,15,6.8,15,15.2V121
		C341.5,129.4,334.8,136.2,326.5,136.2z"/>
	<path class="st7" d="M326.5,138.5c-9.6,0-17.4-7.9-17.4-17.6v-10.5c0-9.7,7.8-17.6,17.4-17.6s17.4,7.9,17.4,17.6V121
		C343.9,130.7,336.1,138.5,326.5,138.5z M326.5,97.7c-7,0-12.6,5.7-12.6,12.8V121c0,7.1,5.7,12.8,12.6,12.8s12.6-5.7,12.6-12.8
		v-10.5C339.1,103.4,333.4,97.7,326.5,97.7z"/>
	<path class="st4" d="M211.3,126.6h14.9v14.3c0,4.1-3.3,7.4-7.4,7.4c-4.1,0-7.4-3.3-7.4-7.4V126.6z"/>
	<path class="st4" d="M218.8,150.7c-5.4,0-9.8-4.4-9.8-9.8v-14.3c0-1.3,1.1-2.4,2.4-2.4h14.9c1.3,0,2.4,1.1,2.4,2.4v14.3
		C228.6,146.3,224.2,150.7,218.8,150.7z M213.7,129v11.9c0,2.8,2.3,5,5,5c2.8,0,5-2.3,5-5V129H213.7z"/>
	<path class="st7" d="M248.1,171.6h-58.8c-0.6,0-1.2-0.3-1.7-0.7c-0.4-0.4-0.7-1.1-0.7-1.7l0-19.3c0-3.2,1.2-6.1,3.5-8.3
		c2.2-2.2,5.2-3.4,8.3-3.4h0l10.2,0l0-11.6c0-1.3,1.1-2.4,2.4-2.4h14.9c1.3,0,2.4,1.1,2.4,2.4v11.6l10.2,0c3.2,0,6.1,1.2,8.3,3.5
		c2.2,2.2,3.4,5.2,3.4,8.3l0,19.3C250.5,170.6,249.4,171.6,248.1,171.6L248.1,171.6z M191.7,166.9h54l0-16.9c0-1.9-0.7-3.6-2.1-5
		c-1.3-1.3-3.1-2.1-5-2.1l-12.6,0c-0.7,0-1.3-0.3-1.7-0.7c-0.4-0.5-0.7-1.1-0.6-1.8l0-0.3v-11.2h-10.1l0,11.3c0,0.7-0.2,1.3-0.7,1.8
		c-0.5,0.5-1.1,0.8-1.7,0.8c0,0,0,0,0,0l-12.6,0c0,0,0,0,0,0c-3.9,0-7,3.1-7,7L191.7,166.9z"/>
	<path class="st4" d="M218.7,136.2c-8.3,0-15-6.8-15-15.2v-10.5c0-8.4,6.7-15.2,15-15.2c8.3,0,15,6.8,15,15.2V121
		C233.7,129.4,227,136.2,218.7,136.2z"/>
	<g>
		<path class="st7" d="M218.7,138.5c-9.6,0-17.4-7.9-17.4-17.6v-10.5c0-9.7,7.8-17.6,17.4-17.6s17.4,7.9,17.4,17.6V121
			C236.1,130.7,228.3,138.5,218.7,138.5z M218.7,97.7c-7,0-12.6,5.7-12.6,12.8V121c0,7.1,5.7,12.8,12.6,12.8s12.6-5.7,12.6-12.8
			v-10.5C231.3,103.4,225.7,97.7,218.7,97.7z"/>
		<path class="st7" d="M309,305h-72.8c-1.3,0-2.4-1.1-2.4-2.4v-36.5l-63-95.6c-0.5-0.7-0.5-1.7-0.1-2.4c0.4-0.8,1.2-1.3,2.1-1.3
			h199.7c0.9,0,1.7,0.5,2.1,1.3c0.4,0.8,0.4,1.7-0.1,2.4l-63,95.6v36.5C311.4,304,310.3,305,309,305L309,305z M238.6,300.3h68v-34.9
			c0-0.5,0.1-0.9,0.4-1.3l61-92.5H177.2l61,92.5c0.3,0.4,0.4,0.8,0.4,1.3L238.6,300.3z"/>
		<path class="st7" d="M206.5,203.5c-0.8,0-1.5-0.4-2-1.1l-9.4-14.3c-0.7-1.1-0.4-2.6,0.7-3.3c1.1-0.7,2.6-0.4,3.3,0.7l9.4,14.3
			c0.7,1.1,0.4,2.6-0.7,3.3C207.4,203.4,207,203.5,206.5,203.5z"/>
		<path class="st7" d="M272.6,377.8c-21.4,0-38.8-17.4-38.8-38.8c0-21.4,17.4-38.8,38.8-38.8s38.8,17.4,38.8,38.8
			C311.4,360.4,294,377.8,272.6,377.8z M272.6,305c-18.8,0-34,15.3-34,34s15.3,34,34,34s34-15.3,34-34S291.3,305,272.6,305z"/>
	</g>
	<path class="st4" d="M296.8,134.6l-4.8,0l-10.4,0c0-0.2,0-0.3,0-0.5v-16.4h-18V134c0,0.2,0,0.3,0,0.5l-10.4,0l-4.8,0
		c-6.3,0-11.4,5.1-11.4,11.4l0,23.4h71.1l0-23.3C308.1,139.7,303.1,134.6,296.8,134.6L296.8,134.6z"/>
	<path class="st4" d="M263.7,117.7h18v17.3c0,5-4,9-9,9c-5,0-9-4-9-9L263.7,117.7L263.7,117.7z"/>
	<path class="st4" d="M272.6,146.3c-6.3,0-11.4-5.1-11.4-11.4v-17.3c0-1.3,1.1-2.4,2.4-2.4h18c1.3,0,2.4,1.1,2.4,2.4v17.3
		C284,141.2,278.9,146.3,272.6,146.3z M266,120.1v14.9c0,3.6,3,6.6,6.6,6.6s6.6-3,6.6-6.6v-14.9L266,120.1z"/>
	<path class="st7" d="M308.1,171.6h-71.1c-0.6,0-1.2-0.3-1.7-0.7c-0.4-0.4-0.7-1.1-0.7-1.7l0-23.4c0-3.7,1.4-7.1,4-9.7
		c2.6-2.6,6-4,9.7-4h0l12.8,0l0-14.5c0-1.3,1.1-2.4,2.4-2.4h18c1.3,0,2.4,1.1,2.4,2.4v14.5l12.8,0c3.7,0,7.1,1.4,9.7,4
		c2.6,2.6,4,6.1,4,9.7l0,23.3C310.5,170.6,309.4,171.6,308.1,171.6L308.1,171.6z M239.4,166.9h66.3l0-20.9c0-2.4-0.9-4.7-2.6-6.4
		c-1.7-1.7-3.9-2.6-6.3-2.6c0,0,0,0,0,0l-15.2,0c-0.7,0-1.3-0.3-1.7-0.7c-0.4-0.5-0.7-1.1-0.6-1.8l0-0.4v-14H266l0,14.2
		c0,0.1,0,0.1,0,0.2c0,0.7-0.2,1.3-0.6,1.8c-0.5,0.5-1.1,0.7-1.7,0.7c0,0,0,0,0,0l-15.2,0c0,0,0,0,0,0c-2.4,0-4.6,0.9-6.3,2.6
		c-1.7,1.7-2.6,3.9-2.6,6.3L239.4,166.9z"/>
	<path class="st4" d="M272.6,129.3c-10,0-18.1-8.2-18.1-18.3V98.2c0-10.1,8.1-18.3,18.1-18.3s18.1,8.2,18.1,18.3v12.7
		C290.7,121.1,282.6,129.3,272.6,129.3L272.6,129.3z"/>
	<path class="st7" d="M272.6,131.6c-11.3,0-20.5-9.3-20.5-20.7V98.2c0-11.4,9.2-20.7,20.5-20.7c11.3,0,20.5,9.3,20.5,20.7v12.7
		C293.1,122.3,283.9,131.6,272.6,131.6z M272.6,82.3c-8.7,0-15.7,7.2-15.7,16v12.7c0,8.8,7.1,16,15.7,16c8.7,0,15.7-7.2,15.7-16
		V98.2C288.3,89.4,281.3,82.3,272.6,82.3z"/>
	<path class="st4" d="M262.1,249l10.5,14.2l10.5-14.2l10.5-14.2h-12.9v-42.8h-16.2v42.8h-12.9L262.1,249z"/>
	<path class="st7" d="M272.6,265.6c-0.8,0-1.5-0.4-1.9-1l-21-28.3c-0.5-0.7-0.6-1.7-0.2-2.5c0.4-0.8,1.2-1.3,2.1-1.3h10.5v-40.4
		c0-1.3,1.1-2.4,2.4-2.4h16.2c1.3,0,2.4,1.1,2.4,2.4v40.4h10.5c0.9,0,1.7,0.5,2.1,1.3c0.4,0.8,0.3,1.8-0.2,2.5l-21,28.3
		C274.1,265.2,273.4,265.6,272.6,265.6L272.6,265.6z M256.4,237.3l7.7,10.4l8.6,11.6l16.2-21.9h-8.2c-1.3,0-2.4-1.1-2.4-2.4v-40.4
		h-11.4v40.4c0,1.3-1.1,2.4-2.4,2.4H256.4z"/>
</g>
<g id="Layer_25">
	<g>
		<path class="st7" d="M280.1,336.6c-2.1-1.1-4.3-2-6.5-2.9c-1.3-0.5-2.5-1.1-3.6-2c-2.1-1.7-1.7-4.4,0.8-5.5
			c0.7-0.3,1.4-0.4,2.2-0.4c2.9-0.2,5.6,0.4,8.2,1.6c1.3,0.6,1.7,0.4,2.2-0.9c0.5-1.4,0.8-2.9,1.3-4.3c0.3-1-0.1-1.6-1-2
			c-1.7-0.7-3.4-1.3-5.2-1.5c-2.3-0.4-2.3-0.4-2.4-2.7c0-3.3,0-3.3-3.3-3.3c-0.5,0-1,0-1.4,0c-1.6,0-1.8,0.3-1.9,1.9
			c0,0.7,0,1.4,0,2.1c0,2.1,0,2-2,2.8c-4.8,1.8-7.8,5-8.1,10.3c-0.3,4.7,2.1,7.8,6,10.1c2.4,1.4,5,2.2,7.5,3.4
			c1,0.4,1.9,0.9,2.7,1.6c2.4,2,2,5.3-0.9,6.5c-1.5,0.7-3.1,0.8-4.8,0.6c-2.6-0.3-5-1-7.3-2.2c-1.3-0.7-1.7-0.5-2.2,0.9
			c-0.4,1.3-0.7,2.5-1.1,3.8c-0.5,1.7-0.3,2.1,1.3,2.9c2.1,1,4.3,1.5,6.6,1.9c1.8,0.3,1.8,0.4,1.9,2.2c0,0.8,0,1.7,0,2.5
			c0,1.1,0.5,1.7,1.6,1.7c1.2,0,2.5,0,3.7,0c1,0,1.5-0.6,1.5-1.6c0-1.1,0.1-2.3,0-3.4c-0.1-1.2,0.4-1.8,1.6-2.1
			c2.6-0.7,4.8-2.1,6.4-4.1C288.5,348.6,286.7,340.3,280.1,336.6z"/>
	</g>
</g>
<g id="Layer_19" class="st2">
</g>
<g id="Layer_20" class="st2">
	<circle class="st15" cx="255.3" cy="219.9" r="90.1"/>
</g>
<g id="Layer_21" class="st2">
	<path class="st5" d="M243.3,248.2l-14.1-14.1l5.6-5.6l8.4,8.4l24.1-24.9l5.7,5.5L243.3,248.2z"/>
	<path class="st5" d="M201.4,292.2H265v7.9h-63.6V292.2z"/>
	<path class="st5" d="M201.4,308.1H265v7.9h-63.6V308.1z"/>
	<path class="st5" d="M344.5,294.7V125.3H273c0-13.2-10.7-23.8-23.8-23.8c-13.2,0-23.8,10.7-23.8,23.8h-71.5v230.5h190.8V351
		l4.2,4.2l28.1-28.1L344.5,294.7z M296.8,133.2h39.7v153.6l-7.9-7.9V141.2h-31.8V133.2z M225.3,133.2h7.9v-7.9
		c0-8.8,7.1-15.9,15.9-15.9c8.8,0,15.9,7.1,15.9,15.9v7.9h7.9v7.9h-47.7V133.2z M209.4,133.2h7.9v15.9h63.6v-15.9h7.9v19.9
		c0,2.2-1.8,4-4,4h-71.5c-2.2,0-4-1.8-4-4V133.2z M213.4,165h71.5c6.6,0,11.9-5.3,11.9-11.9v-4h23.8v121.8l-5.7-5.7l-5.6,5.6
		l-12.1-12.1c15.3-23.9,10.2-55.6-12-73.4c-22.1-17.8-54.1-16.1-74.2,4c-20.1,20.1-21.8,52.1-4,74.2c17.8,22.1,49.4,27.3,73.4,12
		l12.1,12.1l-5.6,5.6l33.8,33.8v4.9H177.6V149.1h23.8v4C201.4,159.7,206.8,165,213.4,165z M303.7,276.4l-5.6,5.6l-16.9-16.9l-2.8,2
		c-19,13.7-45.2,11.7-61.9-4.8c-12.1-12-16.9-29.6-12.4-46.1c4.4-16.5,17.3-29.4,33.8-33.8c16.5-4.4,34.1,0.3,46.1,12.5
		c16.5,16.7,18.5,42.8,4.8,61.9l-2,2.8L303.7,276.4z M336.6,347.9H161.7V133.2h39.7v7.9h-31.8v198.7h159v-4.9l7.9,7.9V347.9z
		 M298.1,293.3l16.9-16.9l50.6,50.6l-16.9,16.9L298.1,293.3z"/>
	<path class="st5" d="M278.4,200.5c-13.4-13.4-34.4-15.5-50.2-5c-15.8,10.5-21.9,30.8-14.7,48.3c7.3,17.5,25.9,27.5,44.5,23.8
		c18.6-3.7,32-20,32-39C290,218.1,285.9,208,278.4,200.5z M272.8,251.1c-10.7,10.8-27.6,12.4-40.2,4c-12.6-8.4-17.6-24.6-11.8-38.7
		c5.8-14,20.7-22,35.6-19.1c14.9,3,25.6,16,25.6,31.2C282.1,237.1,278.8,245.2,272.8,251.1z"/>
</g>
<g id="Layer_3_1_" class="st2">
	<path class="st5" d="M274.9,236.6h-39.3c-3.2,0-5.8-2.6-5.8-5.8v-26.5c0-3.2,2.6-5.8,5.8-5.8h12.7c0.9,0,1.6,0.7,1.6,1.6
		c0,0.9-0.7,1.6-1.6,1.6h-12.7c-1.5,0-2.7,1.2-2.7,2.7v26.5c0,1.5,1.2,2.7,2.7,2.7h39.3c1.5,0,2.7-1.2,2.7-2.7v-26.5
		c0-1.5-1.2-2.7-2.7-2.7h-12.7c-0.9,0-1.6-0.7-1.6-1.6c0-0.9,0.7-1.6,1.6-1.6h12.7c3.2,0,5.8,2.6,5.8,5.8v26.5
		C280.8,234,278.2,236.6,274.9,236.6z"/>
	<path class="st5" d="M260.1,205.8h-9.6c-2,0-3.7-1.7-3.7-3.7v-4.2c0-2,1.7-3.7,3.7-3.7h9.6c2,0,3.7,1.7,3.7,3.7v4.2
		C263.8,204.2,262.1,205.8,260.1,205.8z M250.5,197.3c-0.3,0-0.5,0.2-0.5,0.5v4.2c0,0.3,0.2,0.5,0.5,0.5h9.6c0.3,0,0.5-0.2,0.5-0.5
		v-4.2c0-0.3-0.2-0.5-0.5-0.5H250.5z"/>
	<path class="st5" d="M245.7,219.6c-2.9,0-5.3-2.4-5.3-5.3c0-2.9,2.4-5.3,5.3-5.3s5.3,2.4,5.3,5.3
		C251,217.3,248.7,219.6,245.7,219.6z M245.7,212.2c-1.2,0-2.1,1-2.1,2.1c0,1.2,1,2.1,2.1,2.1c1.2,0,2.1-1,2.1-2.1
		C247.9,213.2,246.9,212.2,245.7,212.2z"/>
	<path class="st5" d="M253.7,230.3c-0.9,0-1.6-0.7-1.6-1.6v-1.1c0-1.5-1.2-2.7-2.7-2.7H242c-1.5,0-2.7,1.2-2.7,2.7v1.1
		c0,0.9-0.7,1.6-1.6,1.6c-0.9,0-1.6-0.7-1.6-1.6v-1.1c0-3.2,2.6-5.8,5.8-5.8h7.4c3.2,0,5.8,2.6,5.8,5.8v1.1
		C255.3,229.5,254.6,230.3,253.7,230.3z"/>
	<path class="st5" d="M272.8,213.3h-11.7c-0.9,0-1.6-0.7-1.6-1.6s0.7-1.6,1.6-1.6h11.7c0.9,0,1.6,0.7,1.6,1.6
		S273.7,213.3,272.8,213.3z"/>
	<path class="st5" d="M272.8,221.8h-11.7c-0.9,0-1.6-0.7-1.6-1.6s0.7-1.6,1.6-1.6h11.7c0.9,0,1.6,0.7,1.6,1.6
		S273.7,221.8,272.8,221.8z"/>
	<path class="st5" d="M272.8,230.3h-11.7c-0.9,0-1.6-0.7-1.6-1.6s0.7-1.6,1.6-1.6h11.7c0.9,0,1.6,0.7,1.6,1.6
		S273.7,230.3,272.8,230.3z"/>
</g>
<g id="Layer_22" class="st2">
	<g class="st3">
		<g>
			<path class="st4" d="M195,192h-55.4c-3.3,0-5.9,2.7-5.9,5.9v39.4c0,3.2,2.6,5.9,5.9,5.9H195c3.2,0,5.9-2.6,5.9-5.9v-39.4
				C200.9,194.7,198.3,192,195,192z M194.2,196l-26.8,26.8l-27-26.8H194.2z M137.6,236.5v-37.8l19,18.8L137.6,236.5z M140.4,239.3
				l19-19l6.7,6.6c0.8,0.8,2,0.8,2.8,0l6.5-6.5l18.9,18.9H140.4z M197,236.5l-18.9-18.9l18.9-18.9V236.5z"/>
		</g>
	</g>
	<g class="st3">
		<path class="st16" d="M373.6,207.1h-1.9v21.2c0,3.3-1.9,6.3-5.8,6.3h-37.8v1c0,2.9,3.3,5.9,6.7,5.9h28.9l11,6.5l-1.6-6.5h0.4
			c3.4,0,4.9-2.9,4.9-5.9v-23.5C378.6,209.2,377,207.1,373.6,207.1z"/>
		<path class="st16" d="M360.3,192.4h-43.8c-3.9,0-8.3,3.4-8.3,6.7v26.6c0,3,3.8,5.2,7.4,5.6l-2.3,8.9l15-8.9h32.1
			c3.9,0,7.4-2.3,7.4-5.6v-21.5v-5.1C367.7,195.8,364.1,192.4,360.3,192.4z M323.1,214.8c-2.2,0-4-1.8-4-4s1.8-4,4-4
			c2.2,0,4,1.8,4,4S325.3,214.8,323.1,214.8z M337.9,214.8c-2.2,0-4-1.8-4-4s1.8-4,4-4c2.2,0,4,1.8,4,4S340.1,214.8,337.9,214.8z
			 M352.7,214.8c-2.2,0-4-1.8-4-4s1.8-4,4-4c2.2,0,4,1.8,4,4S354.9,214.8,352.7,214.8z"/>
	</g>
	<g class="st3">
		<g>
			<path class="st4" d="M255.5,279.3c-8,0-14.4,6.4-14.4,14.3c0,3.1,1,6.1,2.8,8.4l-1.8,5.3l5.6-1.8c2.3,1.5,5,2.4,8,2.4
				c8,0,14.5-6.4,14.5-14.3C270,285.7,263.5,279.3,255.5,279.3z M264,299.6c-0.4,1-2.1,1.9-2.9,2s-0.8,0.6-5.1-1
				c-4.3-1.7-7-6-7.2-6.3c-0.2-0.3-1.7-2.3-1.7-4.3s1.1-3.1,1.5-3.5c0.4-0.4,0.8-0.5,1.1-0.5s0.6,0,0.8,0c0.3,0,0.6-0.1,0.9,0.7
				c0.4,0.8,1.2,2.9,1.3,3.1c0.1,0.2,0.2,0.4,0,0.7c-0.1,0.3-0.2,0.4-0.4,0.7c-0.2,0.2-0.4,0.5-0.6,0.7c-0.2,0.2-0.4,0.4-0.2,0.8
				c0.3,0.4,1.1,1.8,2.4,2.9c1.6,1.4,3,1.9,3.4,2.1s0.7,0.2,0.9-0.1c0.3-0.3,1.1-1.2,1.3-1.6c0.3-0.4,0.6-0.4,0.9-0.2
				c0.4,0.1,2.4,1.2,2.9,1.4c0.4,0.2,0.7,0.3,0.8,0.5C264.3,297.7,264.3,298.6,264,299.6z"/>
		</g>
	</g>
	<g class="st3">
		<g>
			<path class="st4" d="M269.2,266h-28c-7.8,0-14.1,6.3-14.1,14.1v28c0,7.7,6.3,14,14.1,14h28c7.8,0,14.1-6.3,14.1-14.1v-28
				C283.3,272.3,277,266,269.2,266z M255.5,310.7c-3,0-5.8-0.8-8.3-2.1l-9.5,3l3.1-9.1c-1.6-2.6-2.4-5.6-2.4-8.8
				c0-9.4,7.7-17.1,17.2-17.1c9.5,0,17.2,7.6,17.2,17.1S265,310.7,255.5,310.7z"/>
		</g>
	</g>
	<path class="st5" d="M275.3,167.9c-13.3,1.4-26.7,1.4-40,0c-5.3-0.6-9.5-4.8-10.1-10.1c-1.4-13.3-1.4-26.7,0-40
		c0.6-5.3,4.8-9.5,10.1-10.1c13.3-1.4,26.7-1.4,40,0c5.3,0.6,9.5,4.8,10.1,10.1c1.4,13.3,1.4,26.7,0,40
		C284.8,163.2,280.6,167.4,275.3,167.9z"/>
	<path class="st12" d="M255.3,118.5c-10.6,0-19.2,8-19.2,17.8c0,5.6,2.8,10.6,7.1,13.8l0.1,6.3c0,0.3,0.4,0.5,0.7,0.4l6-3.4
		c1.7,0.4,3.5,0.7,5.3,0.7c10.6,0,19.2-8,19.2-17.8C274.5,126.5,265.9,118.5,255.3,118.5z M256.8,142l-4.1-4.3
		c-0.2-0.3-0.6-0.3-0.9-0.1l-7.2,3.9c-0.3,0.1-0.5-0.2-0.3-0.4l8.5-9c0.2-0.3,0.7-0.3,0.9,0l4.1,4.3c0.2,0.3,0.6,0.3,0.9,0.1
		l7.1-3.8c0.3-0.1,0.5,0.2,0.3,0.4l-8.4,8.9C257.4,142.3,257,142.3,256.8,142z"/>
</g>
<g id="Layer_23" class="st2">
	<path class="st5" d="M368.6,131.9H152.1c-2.1,0-3.7,1.7-3.7,3.7v171.7c0,2.1,1.7,3.7,3.7,3.7h89.6v22.4H182c-2.1,0-3.7,1.7-3.7,3.7
		v14.9c0,2.1,1.7,3.7,3.7,3.7h156.8c2.1,0,3.7-1.7,3.7-3.7v-14.9c0-2.1-1.7-3.7-3.7-3.7H279v-22.4h89.6c2.1,0,3.7-1.7,3.7-3.7V135.6
		C372.4,133.6,370.7,131.9,368.6,131.9z M335,348.4H185.7V341H335V348.4z M271.6,333.5h-22.4v-22.4h22.4V333.5z M364.9,303.6H155.8
		V139.4h209.1V303.6z"/>
	<path class="st5" d="M357.4,146.8H163.3v134.4h194.1V146.8z M350,273.8H170.8V154.3H350V273.8z"/>
	<path class="st5" d="M338.8,288.7h18.7v7.5h-18.7V288.7z"/>
	<path class="st5" d="M323.8,288.7h7.5v7.5h-7.5V288.7z"/>
	<path class="st5" d="M252.9,288.7h14.9v7.5h-14.9V288.7z"/>
	<path class="st5" d="M230.5,217.8c0,2.1,1.7,3.7,3.7,3.7h11.2v14.9c0,2.1,1.7,3.7,3.7,3.7h11.2v11.2c0,2.1,1.7,3.7,3.7,3.7h11.2
		v7.5c0,2.1,1.7,3.7,3.7,3.7h29.9c2.1,0,3.7-1.7,3.7-3.7v-13.4l4.8,4.8l5.3-5.3l-13.8-13.8l-13.8,13.8l5.3,5.3l4.8-4.8v9.7h-22.4
		v-7.5c0-2.1-1.7-3.7-3.7-3.7h-11.2v-11.2c0-2.1-1.7-3.7-3.7-3.7h-11.2v-14.9c0-2.1-1.7-3.7-3.7-3.7H238v-52.3h-7.5v22.4h-14.9
		v-22.4h-7.5v29.9h22.4v7.5h-44.8v-5.6l14.9-11.2v-20.5h-22.4v14.9h7.5v-7.5h7.5v9.3l-14.9,11.2v16.8h52.3V217.8z"/>
	<path class="st5" d="M252.9,184.2h3.7c2.1,0,3.7,1.7,3.7,3.7v37.3h7.5v-37.3c0-6.2-5-11.2-11.2-11.2h-3.7v-14.9h-7.5v44.8h7.5
		V184.2z"/>
	<path class="st5" d="M308.9,229c18.6,0,33.6-15,33.6-33.6s-15-33.6-33.6-33.6c-18.6,0-33.6,15-33.6,33.6
		C275.3,213.9,290.4,228.9,308.9,229z M283.1,191.6c0.6-4.3,2.3-8.4,4.9-11.9l3.3,3.3l5.3-5.3l-3.3-3.3c3.5-2.6,7.6-4.3,11.9-4.9
		v7.2h7.5v-7.2c4.3,0.6,8.4,2.3,11.9,4.9l-3.3,3.3l5.3,5.3l3.3-3.3c2.6,3.5,4.3,7.6,4.9,11.9h-7.2v7.5h7.2
		c-0.6,4.3-2.3,8.4-4.9,11.9l-3.3-3.3l-5.3,5.3l3.3,3.3c-3.5,2.6-7.6,4.3-11.9,4.9V214h-7.5v7.2c-4.3-0.6-8.4-2.3-11.9-4.9l3.3-3.3
		l-5.3-5.3L288,211c-2.6-3.5-4.3-7.6-4.9-11.9h7.2v-7.5H283.1z"/>
	<path class="st5" d="M320.1,199.1v-7.5h-9.7l-10.1-10.1l-5.3,5.3l12.3,12.3H320.1z"/>
</g>
<g id="Layer_24" class="st2">
	<g class="st3">
		<g>
			<path class="st4" d="M213.6,291c12.4-8.8,15.4-25.9,6.6-38.3s-25.9-15.4-38.3-6.6c-12.4,8.8-15.4,25.9-6.6,38.3
				c1.5,2.1,3.3,4,5.3,5.7c-15.2,5.1-25.1,19.7-24.1,35.6h0l2,33.5c0.1,2.1,1.8,3.7,3.9,3.7h66.8c2.1,0,3.8-1.6,3.9-3.7l2-33.5
				C236,310.8,227.4,296.9,213.6,291z M178.1,268.6c0-10.9,8.8-19.7,19.7-19.7s19.7,8.8,19.7,19.7c0,10.9-8.8,19.7-19.7,19.7
				C186.9,288.2,178.1,279.4,178.1,268.6z M227.3,325.2l-1.8,29.8h-59.4l-1.8-29.8c-0.9-15.2,10.7-28.2,25.9-29.1c0.5,0,1.1,0,1.6,0
				h8c15.2,0,27.5,12.3,27.5,27.5C227.3,324.2,227.3,324.7,227.3,325.2z"/>
		</g>
	</g>
	<g class="st3">
		<g>
			<path class="st4" d="M347.3,291c12.4-8.8,15.4-25.9,6.6-38.3s-25.9-15.4-38.3-6.6c-12.4,8.8-15.4,25.9-6.6,38.3
				c1.5,2.1,3.3,4,5.3,5.7c-15.2,5.1-25.1,19.7-24.1,35.6h0l2,33.5c0.1,2.1,1.8,3.7,3.9,3.7h66.8c2.1,0,3.8-1.6,3.9-3.7l2-33.5
				C369.6,310.8,361,296.9,347.3,291z M311.8,268.6c0-10.9,8.8-19.7,19.7-19.7s19.7,8.8,19.7,19.7c0,10.9-8.8,19.7-19.7,19.7
				C320.6,288.2,311.8,279.4,311.8,268.6z M360.9,325.2l-1.8,29.8h-59.4l-1.8-29.8c-0.9-15.2,10.7-28.2,25.9-29.1c0.5,0,1.1,0,1.6,0
				h8c15.2,0,27.5,12.3,27.5,27.5C361,324.2,360.9,324.7,360.9,325.2z"/>
		</g>
	</g>
	<g class="st3">
		<g>
			<path class="st4" d="M361.5,165l-30.1-2.8l1.1-17.8c0.3-4.5-1.4-8.9-4.5-12.1c-3.2-3.2-7.6-4.8-12-4.6l-123.7,6.7v0
				c-6.8,0.4-12.5,5-14.3,11.6l-5.8,21.1c-2.3,8.4,2.6,17,11,19.3c1,0.3,2.1,0.5,3.1,0.5l13.4,0.9v13.9c0,10.8,8.8,19.6,19.7,19.7
				h5.3l-1.4,19.4c-0.1,1.8,1,3.5,2.8,4.1c1.8,0.5,3.7-0.3,4.6-1.9l11.6-21.5h37.7l14.6,25.6c1.1,1.9,3.5,2.5,5.4,1.5
				c1.1-0.6,1.8-1.7,1.9-2.9l3.4-23.9l51.8,2.9c10.7,0.5,19.8-7.5,20.7-18.1l1.6-20.3C380.1,175.4,372.2,166,361.5,165z
				 M225.2,213.6h-5.9c-6.5,0-11.8-5.3-11.8-11.8v-13.4l19.4,1.3L225.2,213.6z M232.4,223.1l2.6-36.8c0.2-2.2-1.5-4-3.6-4.2
				c0,0,0,0,0,0l-44.6-3c-4.3-0.3-7.6-4-7.3-8.4c0-0.5,0.1-1,0.3-1.6l5.8-21.1c0.9-3.3,3.8-5.6,7.2-5.8l123.7-6.7
				c2.2-0.2,4.4,0.7,6,2.3c1.6,1.6,2.4,3.8,2.3,6l-2.4,38c-0.3,4.3-4,7.6-8.3,7.4l-59.1-3.3c-1.5-0.1-3,0.7-3.7,2.1L232.4,223.1z
				 M371.5,185.5l-1.6,20.3c-0.5,6.4-6,11.2-12.4,10.9l-55.4-3.1c-2-0.1-3.8,1.4-4.1,3.4l-2.3,16.2l-10-17.6c-0.7-1.2-2-2-3.4-2
				h-35.8L257,194l56.6,3.1c8.6,0.5,16-6.1,16.6-14.7l0.8-12.3l29.9,2.7C367.2,173.4,371.9,179,371.5,185.5z"/>
		</g>
	</g>
	<line class="st17" x1="184.9" y1="223.5" x2="224.3" y2="223.5"/>
	<line class="st17" x1="184.9" y1="242.7" x2="224.3" y2="242.7"/>
	<line class="st17" x1="184.9" y1="262" x2="224.3" y2="262"/>
</g>
</svg>
